<svg xmlns="http://www.w3.org/2000/svg" width="71" height="80" fill="none" viewBox="0 0 71 80"><path fill="#02345D" fill-rule="evenodd" d="M4.133 29.509c.187-.348 1.038-1.11 1.368-1.443.514-.519.862-.737 1.926-.78 3.144-.134 7.468 1.718 9.884 3.64l1.404 1.302c.352.364.874 1.112 1.186 1.594 1.792 2.765 3.55 5.487 5.077 8.471.281.548.65 1.314 1.055 1.654.546.459 1.45.451 2.005.026.44-.335 10.447-10.494 10.84-10.888C46.08 25.86 53.276 18.472 60.496 11.31c2.788-2.767 6.353.304 5.253 3.145-.374.966-1.877 2.27-2.51 2.909L51.066 29.628c-.426.428-.973.913-1.337 1.37-1.227 1.539.787 3.927 2.637 2.154 1.939-1.857 5.52-.203 5.1 2.787-.27 1.906-2.457 2.98-2.892 3.944-.152.336-.198.75-.084 1.153a1.67 1.67 0 0 0 1.455 1.232c.956.098 1.28-.485 1.79-.845.543-.384 1.32-.608 2.138-.51 1.37.163 2.531 1.335 2.675 2.75.283 2.78-2.845 3.536-3.04 5.221-.156 1.37 1.458 2.735 3.018 1.296 1.696-1.565 4.44-.63 5.003 1.53.499 1.913-.735 2.98-1.482 3.734L49.819 71.779c-1.606 1.623-3.266 3.595-6.366 4.457-3.208.892-6.383.163-8.712-1.371-1.154-.76-1.998-1.69-2.855-2.559L21.1 61.432c-.732-.733-.925-.765-1.177-1.53l-6.09-18.392c-.233-.705-.436-1.347-.676-2.038-.325-.942-.313-1.205-.927-1.782l-2.698-2.717c-.926-.932-1.764-1.789-2.691-2.725l-2.71-2.737zM66.53 18.894c1.018-1.026 2.257-2.145 2.658-4.265.775-4.104-2.18-7.411-5.773-7.746a6.5 6.5 0 0 0-2.976.442c-.715.279-1.739.934-2.08 1.336-.56.662-1.1 1.14-1.685 1.735l-15.44 15.552c-.105.107-13.383 13.62-13.785 13.81l-1.84-3.248c-1.907-3.197-3.512-6.197-6.489-8.48-1.797-1.378-4.12-2.58-6.666-3.365-2.464-.76-6.086-1.377-8.275.07-.477.316-.95.875-1.32 1.246-.43.432-.81.818-1.241 1.25-.83.833-2.216 1.827-1.338 3.19.305.473 6.756 6.87 7.456 7.577l1.884 1.893c.23.245.25.424.384.827l6.234 18.819c.209.617.417 1.254.621 1.876.33 1.005.4.928.983 1.514 3.342 3.368 6.638 6.674 9.974 10.046.98.99 2.732 2.843 3.782 3.77 4.478 3.96 11.633 4.372 16.792.888 1.515-1.024 2.573-2.253 3.894-3.586.146-.149.984-.91 1.01-1.082l-.004-.12c.471-.171.597-.412.876-.692l11.606-11.69c1.137-1.147 3.781-3.557 4.496-4.91 1.574-2.973.534-6.917-2.428-8.592-1.085-.613-1.789-.555-2.293-.788.187-1.265.499-1.73.264-3.246-.27-1.734-1.31-3.451-2.747-4.31-.83-.494-1.502-.71-2.577-.917-.01-.236.227-1.005.28-1.386.068-.507.072-1.05.018-1.573a6.45 6.45 0 0 0-.804-2.526 5.7 5.7 0 0 0-2.625-2.435c-.208-.093-.38-.175-.604-.252-.168-.057-.407-.11-.548-.23l10.33-10.401zM29.6.09c-1.486.424-1.35 1.56-1.35 3.03v8.532c0 1.252.884 2.408 2.49 1.966 1.44-.395 1.322-1.587 1.322-3.043l.001-8.532C32.067.477 30.87-.273 29.6.09M14.406 5.368c-1.253.247-2.101 1.682-.71 2.968.914.845 1.77 1.64 2.683 2.489.899.836 1.747 1.619 2.645 2.455 1.043.97 1.977 2.192 3.262 1.92 1.119-.237 2.116-1.598.633-2.978l-5.327-4.945c-1.076-.993-1.934-2.157-3.187-1.91z" clip-rule="evenodd"/><path fill="#02345D" fill-rule="evenodd" d="M45.307 5.386c-.716.19-1.005.666-1.397 1.058l-5.56 5.566c-.158.158-.496.446-.625.619-.887 1.194.223 2.93 1.729 2.56.612-.151 1.028-.72 1.364-1.054l4.94-4.942c.37-.37.9-.826 1.241-1.245.936-1.155-.237-2.947-1.692-2.56z" clip-rule="evenodd"/></svg>