<svg xmlns="http://www.w3.org/2000/svg" width="94" height="80" fill="none" viewBox="0 0 94 80"><path fill="#02345D" fill-rule="evenodd" d="M47.835 38.73c-.036-3.993-.002-8.003-.002-12 0-3.837-.702-6.102 1.225-7.701l4.8-4.321c2.57-2.108 7.104-6.623 9.43-8.495 1.09-.876 1.892-1.835 3.56-2.574 3.25-1.439 6.127.215 8.426 2.47 2.302 2.258 6.782 6.057 9.428 8.492.485.446 1.035.956 1.568 1.42 1.19 1.034 4.136 3.434 4.49 4.47.442 1.29.141 20.739.141 23.872 0 2.53.197 28.883-.033 29.999-.401 1.94-1.952 2.143-3.814 2.136l-33.324.04c.721-1.84.654-4.213-.116-6.599.72-.644.99-.526 1.732-1.562 1.266-1.765 1.145-3.276 1.079-5.454-.042-1.378-.33-1.597-.64-2.625 1.025-.996 2.19-1.69 2.423-4.038.083-.836.079-2.335.013-3.177-.104-1.303-.498-1.65-.81-2.58.868-.617 1.657-1.612 1.96-3.128.222-1.108.177-3.772-.122-4.832-.957-3.398-3.83-3.815-6.592-3.815h-4.818zm18.5.152c2.277-.088 4.987-.288 6.844.705 5.527 2.955 4.136 12.156-3.092 12.16l-3.75-.015zm.023 15.406c2.366-.033 5.061.276 7.123-.541 6.474-2.567 7.02-10.711 3.089-14.835-3.764-3.946-12.023-2.62-12.422-2.182-.738.812-.356 12.87-.356 14.993-.94.048-3.048-.358-2.997 1.336.043 1.447 1.687 1.202 2.991 1.23l.012 2.173c-1.282.042-3.085-.21-3.001 1.359.076 1.426 1.712 1.177 3.007 1.216-.037 1.52-.009 3.065-.011 4.589-.002 1.454-.302 3.351 1.362 3.257 1.545-.087 1.185-1.967 1.184-3.427 0-1.466-.025-2.953.009-4.417 1.797-.052 3.638-.016 5.439-.016 1.393 0 3.964.414 3.863-1.336-.095-1.642-2.593-1.21-4.033-1.21-1.743 0-3.53.04-5.28-.014zm.64-38.42c-.648-3.357 4.222-3.895 4.727-1.026.58 3.288-4.164 3.95-4.727 1.025m.932-5.86c-7.038 1.923-4.246 12.446 2.761 10.697 2.598-.65 4.885-3.31 4.016-6.81-.62-2.499-3.435-4.802-6.778-3.888m-21.1 66.416a3 3 0 0 1-.214-.1 5 5 0 0 1-.401.104c-5.992.038-13.9.3-18.731-.668-4.672-.937-9.035-3.15-12.806-4.068l.001-.001c-.138-4.773.157-10.337-.01-14.776-.06-1.557-1.566-2.593-2.806-1.567-1.009.832-.691 2.594-.691 4.202v15.065l-7.608.025V43.06l7.608.058c.002 1.397 0 2.78 0 4.163 0 1.343-.241 2.955.604 3.664.882.74 2.223.39 2.685-.505.362-.705.214-3.098.207-4.037-.007-1.012-.154-1.032.37-1.644.326-.381.544-.733.864-1.263l11.175-18.473c.617-.87 1.745-1.273 2.706-.4 3.19 2.891 1.13 6.826.095 9.343-.42 1.021-.796 1.95-1.198 2.93-.331.807-1.013 2.238-1.228 3.04-.832 3.11 3.81 2.304 5.963 2.304l20.984.024c1.326.185 1.589 1.253 1.587 2.635-.01 3.785-.722 3.257-5.208 3.257H42.41c-1.455 0-2.716-.166-3.22 1.03-.543 1.289.35 2.36 1.473 2.464 3.102.293 10.552-.215 12.475.038 1.336.175 1.608 1.24 1.606 2.603-.01 3.82-.788 3.288-5.09 3.288-2.829 0-5.672-.027-8.5-.002-1.26.012-2.232.606-2.095 1.955.148 1.444 1.328 1.562 2.725 1.556 2.831-.01 5.664.01 8.496-.001 1.337-.005 2.387.238 2.603 1.489.19 1.106.187 3.083-.425 3.795-.778.904-2.288.63-3.68.63l-8.296.036c-.994.164-1.884 1.37-1.227 2.56.6 1.087 1.775.914 3.153.914h4.247c1.333 0 2.851-.226 3.551.634.566.696.572 2.69.398 3.778-.216 1.353-1.318 1.508-2.7 1.505q-.525-.003-1.075 0zm3.78 3.184c5.848.205 30.95.009 34.714.009 3.096 0 4.5.31 6.621-1.376 1.757-1.397 2.056-2.976 2.055-6.01l-.03-48.177c.002-3.16.272-4.614-1.438-6.595L75.618 2.298C73.985 1.098 72.315.154 69.92.016c-5.045-.291-8.082 3.4-10.49 5.478l-9.515 8.567c-3.936 3.445-5.226 4.064-5.224 8.733.002 5.22.172 10.746-.012 15.935l-12.902-.001c.495-3.011 4.18-7.06 3.006-12.098-1.071-4.605-5.134-7.54-8.914-5.209-1.543.952-2.296 2.605-3.37 4.39-.668 1.108-8.57 14.362-8.941 14.725-1.47-.85-1.14-.93-3.373-.936-1.854-.003-6.947-.33-8.341.441C-.53 41.353.066 44.307.066 47.026v26.296c-.004 5.606 3.018 4.822 8.37 4.822 2.08 0 5.467.472 6.11-2.763 1.54.353 3.612 1.18 5.131 1.7 7.452 2.544 9.202 2.848 17.612 2.848 2.518 0 11.559.29 13.279-.305z" clip-rule="evenodd"/></svg>