<svg xmlns="http://www.w3.org/2000/svg" width="81" height="81" fill="none" viewBox="0 0 81 81"><path fill="#02345D" fill-rule="evenodd" stroke="#02345D" d="M66.282 63.313c-6.387 0-5.543-8.438-.469-8.438 3.663 0 5.819 4.124 3.241 7.148-.514.603-1.717 1.29-2.772 1.29Zm-4.531-41.094v-.781c0-1.818 1.917-3.75 3.75-3.75h.937c4.473 0 5.445 7.837-.217 8.378-2.282.218-4.47-1.857-4.47-3.848ZM27.063 5.499V13c-4.465 0-4.553-.762-5.068 2.745-.184 1.256-.462 2.666-.557 3.818-1.197.1-3.319 1.406-3.75 1.406-.807 0-4.29-3.437-5.313-3.437-.504 0-3.335 3.1-3.867 3.633-4.254 4.253-4.438 3.107-1.892 6.5.643.857 1.267 1.648 1.852 2.523-.304.576-.542 1.18-.824 1.83-.292.675-.57 1.355-.738 2.076-1.181 0-2.407.293-3.464.441C2.477 34.673.5 34.67.5 35.657v9.376c0 1.095.848 1.106 1.743 1.225 2.081.279 3.979 1.2 3.414-1.225-1.333-.311-3.282-.34-3.282-.938v-7.656c1.799 0 3.278-.4 4.984-.641 1.104-.156 1.045-.45 1.365-1.448 1.589-4.958 2.965-2.89-.434-7.42-.44-.585-.89-1.103-1.227-1.74l5.587-5.664 2.337 1.802c3.629 2.723 2.426 1.523 6.295.111 2.344-.855 1.704-.438 2.187-3.28.145-.852.45-2.445.469-3.282h7.968c0 .873.322 2.3.442 3.152.109.772.033 2.414.702 2.892.377.268 2.047.683 2.654.94 1.847.783 2.166 1.73 3.816.474l3.636-2.77 5.663 5.586c-4.71 6.92-3.787 2.73-1.737 9.08.289.895.226 1.372 1.264 1.549 1.56.266 3.599.66 5.122.66v7.656c0 .662-1.666.613-2.821.773-.8.11-2.657.235-3.082.667-.232.234-.81 2.175-1.036 2.714-.212.506-1.185 2.243-1.185 2.564 0 .609 2.95 4.077 3.437 5l-5.506 5.588c-.776-.507-1.53-1.099-2.307-1.681-3.747-2.808-2.32-1.626-6.427-.177-2.414.852-1.701.394-2.19 3.28-.138.81-.446 2.441-.446 3.303h-7.969c-.034-1.509-.455-3.192-.648-4.665-.075-.576-.057-1.066-.496-1.379-.538-.383-1.964-.732-2.606-.987-3.284-1.304-2.253-1.668-5.223.558-.858.642-1.58 1.214-2.433 1.785L7.023 55.85c.373-.665 1.756-2.021 1.756-2.693a.954.954 0 0 0-.937-.937c-.636 0-1.059.837-1.384 1.272-.407.544-.82 1.032-1.213 1.605-.892 1.302.777 2.256 1.62 3.1 7.106 7.106 4.105 6.175 10.82 1.679.477.415 1.212.63 1.785.872.672.282 1.263.527 1.965.69.139 1.661.552 3.454.765 5.173.22 1.775.93 1.233 4.86 1.233v7.657c0 .364.418.781.782.781h11.25c1.536 0 1.217-1.875-.157-1.875H28.78v-6.563c4.943 0 4.544.82 5.089-2.88.177-1.208.287-2.46.536-3.527 1.288-.3 2.691-1.002 3.75-1.562.972.65 4.476 3.593 5.156 3.593 1.002 0 3.293-3.437 4.063-3.437H60.03c.017.767.344 1.492.65 2.006 1.917 3.218 6.278 4.247 9.235 1.627 3.986-3.532 1.614-10.508-3.478-10.508-1.858 0-3.32.425-4.57 1.523-.74.65-1.807 2.197-1.836 3.476H49.092c1.827-2.727 3.034-.96.134-4.82l-1.852-2.523c.154-.66.725-1.61 1.028-2.41.722-1.906.028-1.444 4.78-2.094 2.867-.392 2.16-.791 2.16-4.871.865 0 4.895.503 4.688-1.094-.158-1.224-3.333-.782-4.688-.782 0-4.29.78-4.541-2.647-5.008-1.164-.16-2.498-.46-3.76-.46-.323-1.388-1.304-2.797-1.562-3.906.463-.692 3.658-4.66 3.594-5.156-.566-1.07-1.426-1.44-2.032-2.344H60.03c.028 1.267 1.031 2.926 1.76 3.552 4.185 3.583 10.115.599 10.115-3.865 0-2.158-.372-3.446-1.91-4.964-1.385-1.366-4.236-2.043-6.265-1.18-1.81.77-3.65 2.468-3.7 4.738H47.373c-.951 0-2.966-3.438-4.219-3.438-.738 0-4.34 3.438-4.844 3.438-1.066 0-2.65-1.302-3.906-1.406-.044-.526-.216-1.24-.287-1.745-.755-5.39.22-4.818-5.338-4.818V6.593h10.313c1.552 0 1.628-1.876.156-1.876H27.842c-.364 0-.782.418-.782.781z" clip-rule="evenodd"/><path fill="#02345D" fill-rule="evenodd" stroke="#02345D" d="M30.188 34.812c-.688 1.188-.01 1.47 2.5 1.47l-.812.595c-.976.648-5.954 3.957-6.533 4.092-.49-.328-.783-.73-1.34-1.16-.568-.439-.814-.836-1.382-1.274-2.772-2.14-.95-2.982-7.389 1.853-.477.358-1.04.898-1.607 1.05 0-3.596.446-6.005 2.25-8.689l1.618-2.13c2.288-2.612 6.612-4.494 10.35-4.494 9.828 0 17.29 9.735 13.195 20.07-.456 1.15-1.864 3.416-2.725 3.993v-4.843c0-1.359.414-4.063-.938-4.063-.95 0-.95.88-.941 1.87l.004 8.912c-1.012.535-2.07 1.316-3.26 1.74-.392.14-.885.262-1.27.447v-9.062c-.988-.661-.733-.661-1.72 0v7.5c.008 2.465.72 2.031-4.063 2.031-.753 0-.469-1.375-.469-2.812v-3.282c-.795-.533-.322-.601-1.562-.313-.38 1.634-.156 4.036-.156 5.938-.362-.174-.704-.253-1.155-.408l-2.315-1.123c-.423-.267-.622-.424-1.062-.657v-5c0-1.375.463-4.063-.937-4.063-1.268 0-.938 1.862-.937 3.125v4.063c-1.272-.852-3.426-4.704-3.594-6.72.482-.128 2.626-1.852 3.192-2.276l3.214-2.254c.356.238.422.355.74.665l3.737 3.312c1.039.582 3.416-1.655 5.317-2.777 1.222-.721 2.348-1.531 3.488-2.294-.101 1.21-.9 1.276-.313 2.5 1.505.35 1.28.161 2.39-2.611.233-.583.398-.982.637-1.563.15-.364.33-.792.003-1.184l-2.675-.465c-.628-.086-2.669-.585-3.168-.021zM11.75 40.5c0 8.914 7.26 16.094 16.563 16.094 2.546 0 4.476-.704 6.34-1.472 1.28-.526 3.728-2.26 4.719-3.251 1.293-1.293 2.414-3.093 3.214-4.754.45-.935.76-1.88 1.011-2.895.128-.516.268-1.227.316-1.715.297-2.98.076-5.532-1.172-8.31-.778-1.734-1.826-3.469-3.136-4.833-2.275-2.367-6.416-4.957-10.98-4.957-5.154 0-8.776 1.388-12.306 4.881-2.746 2.716-4.569 7.105-4.569 11.212Zm53.282-3.438h13.594v6.72H65.032zm-1.718-.937v8.75c0 .364.417.781.78.781h15.313q1.094 0 1.094-1.094v-8.438c0-.364-.417-.78-.78-.78H64.094c-.364 0-.78.416-.78.78zM45.501 72.063h13.594v6.719H45.501zm-1.875-.782v8.438c0 .365.417.781.781.781h15.626c.364 0 .78-.417.78-.781v-8.75c0-.364-.416-.781-.78-.781H44.72q-1.095 0-1.094 1.094Zm1.875-69.063h13.594v6.719H45.501zm-1.875-.937V9.72q0 1.094 1.094 1.094h15c.527 0 1.095-.276 1.095-.781v-8.75c0-.366-.418-.782-.782-.782H44.408c-.365 0-.781.417-.781.781z" clip-rule="evenodd"/></svg>