<svg xmlns="http://www.w3.org/2000/svg" width="81" height="81" fill="none" viewBox="0 0 81 81"><path fill="#02345D" fill-rule="evenodd" stroke="#02345D" stroke-width=".7" d="M39.495 2.76c1.594-.25 2.934.172 3.958.907 1.574 1.13 2.043 3.402 5.706 4.342 3.963 1.017 5.512-1.571 8.473-.868 1.43.34 2.422 1.074 3.097 1.93.957 1.216.896 2.098 1.243 3.784.402 1.957 1.475 3.392 2.92 4.528 2.028 1.595 3.912 1.21 5.62 1.916 2.01.83 3.902 3.602 2.867 6.596-.508 1.468-.996 2.248-.92 4.103.094 2.29 1.268 4.497 3.014 5.768.249.181.468.32.703.551.783.775 1.516 1.62 1.751 3.206a5.35 5.35 0 0 1-.95 3.954c-1.115 1.516-3.415 2.073-4.318 5.735-1.004 4.076 1.622 5.321.869 8.475a5.35 5.35 0 0 1-1.963 3.062c-2.275 1.768-3.872.258-7.085 2.877-2.846 2.317-2.37 5.255-3.12 6.929-.883 1.975-3.61 3.898-6.63 2.79-1.43-.525-2.273-.996-4.108-.89-1.496.087-2.74.534-3.784 1.233-2.602 1.742-2.37 3.694-5.727 4.233-1.567.251-2.942-.295-3.945-.992-.914-.635-1.537-1.8-2.416-2.606-1.622-1.487-4.858-2.446-7.636-1.442-1.4.507-2.425 1.093-4.191.628a5.5 5.5 0 0 1-3.01-2.011c-1.665-2.213-.288-3.919-2.887-7.075-2.335-2.834-5.372-2.355-6.937-3.105-1.101-.527-2.003-1.388-2.518-2.504-1.548-3.358.8-4.82.67-8.144-.078-2.016-.77-3.217-1.723-4.534-.793-1.096-2.144-1.53-3.119-3.16-1.078-1.803-.844-4.095.334-5.785.315-.452.77-.9 1.263-1.249 2.605-1.841 4.018-5.225 2.828-8.778-.474-1.42-1.067-2.23-.67-4.056.326-1.498 1.076-2.45 1.902-3.116 1.305-1.053 1.978-.895 3.76-1.266 1.426-.297 2.417-.885 3.328-1.604 2.869-2.262 2.455-5.302 3.152-6.893.891-2.034 3.405-3.955 6.55-2.932 1.541.5 2.152.972 4.09.933 1.485-.03 2.81-.56 3.845-1.177 2.442-1.452 2.408-3.774 5.714-4.292ZM39.276.433c-3.998.54-4.747 3.042-6.301 4.308-3.102 2.526-5.945.08-8.233-.064-2.88-.182-5.718 1.328-7.038 3.54-.942 1.578-.857 2.083-1.235 4.035a5.35 5.35 0 0 1-2.097 3.267c-2.368 1.675-4.52.342-7.362 3.182-2.069 2.068-2.88 5.038-1.943 7.87.5 1.51 1.167 2.343.709 4.284-.772 3.267-2.95 2.795-4.612 6.026-1.65 3.207-.72 7.228 2.158 9.52.581.462.937.675 1.415 1.263.75.925 1.326 2.446 1.12 4.033-.2 1.529-1 2.401-1.15 4.207-.28 3.38 1.651 5.807 3.494 7.049 2.546 1.715 5.22.506 7.305 3.325 1.05 1.422.823 2.19 1.27 4.007 1.034 4.192 5.649 6.67 9.749 5.358 1.58-.506 2.275-1.152 4.298-.736 1.522.315 2.552 1.23 3.218 2.134 2.75 3.734 7.67 4.333 11.042 1.675 1.401-1.103 1.497-1.857 2.555-2.72 3.225-2.634 5.931-.195 8.182-.013 1.521.123 3.18-.223 4.31-.886 1.365-.8 1.962-1.38 2.79-2.567 1.823-2.607.485-5.184 3.322-7.307 2.15-1.61 4.734-.59 7.398-3.15 1.637-1.573 3.079-4.719 1.995-7.968-.51-1.53-1.167-2.333-.703-4.297.764-3.233 3.087-2.934 4.599-6.04 1.649-3.387.749-7.085-2.149-9.493-.633-.526-.9-.668-1.416-1.263-.784-.903-1.331-2.446-1.119-4.059.2-1.515 1.01-2.41 1.146-4.229.246-3.288-1.716-5.958-3.591-7.067-2.842-1.682-5.337-.499-7.284-3.345-1.64-2.399-.247-4.704-3.464-7.67-.135-.123-.242-.188-.376-.296-2.05-1.64-4.691-2.12-7.22-1.28-1.543.512-2.356 1.126-4.305.675-1.523-.353-2.472-1.31-3.158-2.204-1.39-1.812-3.706-3.591-7.318-3.104Z" clip-rule="evenodd"/><path fill="#02345D" fill-rule="evenodd" stroke="#02345D" stroke-width=".7" d="M30.687 51.841c-.094-3.191.105-6.91-.008-9.878-.04-1.041-1.049-1.733-1.88-1.048-.676.557-.463 1.734-.463 2.81v10.07l-5.097.017V32.7l5.097.038c.002.934 0 1.858 0 2.782 0 .899-.16 1.976.406 2.45.59.495 1.49.262 1.798-.337.244-.472.143-2.071.139-2.7-.005-.676-.103-.69.248-1.099.218-.254.365-.49.579-.844l7.487-12.35c.414-.581 1.17-.85 1.814-.266 2.137 1.933.758 4.564.064 6.246-.281.682-.533 1.303-.803 1.959-.222.539-.678 1.495-.822 2.032-.557 2.079 2.553 1.54 3.995 1.54l14.06.016c.89.124 1.066.838 1.064 1.762-.006 2.53-.484 2.177-3.49 2.177h-5.608c-.975 0-1.82-.111-2.157.688-.365.862.235 1.578.987 1.648 2.078.195 7.07-.144 8.359.025.895.117 1.078.83 1.076 1.74-.006 2.555-.528 2.199-3.41 2.199-1.896 0-3.801-.019-5.696-.002-.844.007-1.495.405-1.403 1.307.098.965.889 1.044 1.826 1.04 1.897-.007 3.795.006 5.692-.001.897-.003 1.6.159 1.745.996.127.739.125 2.06-.285 2.537-.521.605-1.533.422-2.465.422l-5.56.023c-.665.11-1.262.916-.822 1.712.402.726 1.19.61 2.113.61h2.846c.894 0 1.91-.15 2.38.425.378.465.383 1.798.266 2.525-.145.905-.883 1.009-1.808 1.005-4.098-.013-10.133.267-13.685-.444-3.13-.626-6.054-2.105-8.58-2.72Zm-.753-20.827c-.985-.567-.764-.622-2.26-.625-1.242-.003-4.654-.222-5.59.294-1.589.878-1.19 2.852-1.19 4.67v17.58c-.003 3.748 2.022 3.224 5.608 3.224 1.394 0 3.663.315 4.095-1.848 1.031.236 2.42.79 3.438 1.136 4.993 1.701 6.166 1.904 11.801 1.904 1.687 0 7.745.195 8.898-.204 2.386-.825 2.956-3.635 2.04-6.472.482-.432.662-.352 1.16-1.045.848-1.18.767-2.19.723-3.646-.028-.922-.222-1.068-.428-1.755.686-.667 1.466-1.13 1.622-2.7.056-.559.054-1.56.01-2.124-.07-.871-.334-1.103-.543-1.725.581-.411 1.11-1.077 1.313-2.09.148-.741.118-2.523-.082-3.232-.642-2.271-2.567-2.55-4.418-2.55H42.142c.33-2.014 2.8-4.72 2.015-8.088-.72-3.08-3.44-5.04-5.973-3.483-1.035.637-1.54 1.742-2.26 2.935-.446.74-5.74 9.6-5.99 9.844Z" clip-rule="evenodd"/><path fill="#02345D" fill-rule="evenodd" stroke="#02345D" stroke-width=".7" d="M10.346 41.597c-1.172.36-.848 1.585-.7 2.745.739 5.779 3.076 11.088 6.664 15.523 8.258 10.208 22.315 14.175 34.951 9.46 3.892-1.452 6.769-3.403 9.35-5.553.184-.154.286-.29.475-.443.8-.644 2.497-2.476 3.158-3.285 3.63-4.45 5.896-9.443 6.797-15.559.163-1.11.473-2.411-.523-2.843a1.19 1.19 0 0 0-1.356.298c-.312.366-.3.924-.356 1.475-.759 7.483-4.692 14.522-10.461 19.181-1.38 1.115-2.731 1.999-4.477 2.974-7.157 3.994-16.654 4.483-24.302 1.293-3.892-1.624-6.581-3.59-9.031-5.868-4.543-4.225-7.913-10.807-8.608-17.348-.057-.536-.054-2.52-1.581-2.05ZM38.377 9.44c-4.82.352-7.87 1.362-11.734 3.114-1.808.82-5.3 3.104-6.626 4.423-.362.36-.677.522-.972.87a8 8 0 0 1-.953.973c-.912.795-2.593 2.982-3.313 4.052a33 33 0 0 0-2.68 4.768c-1.173 2.531-2.088 5.797-2.457 8.677-.14 1.094-.42 2.519.74 2.772 1.554.338 1.48-1.486 1.54-2.081.472-4.743 2.475-9.655 5.19-13.394a28.7 28.7 0 0 1 3.473-3.976c8.931-8.463 22.321-10.464 33.276-4.535a30 30 0 0 1 7.759 6.053c.187.204.252.334.456.55 2.246 2.364 4.279 6.354 5.382 9.435.663 1.854 1.112 4.05 1.345 6.131.063.568.03 1.032.38 1.436.301.348.744.525 1.315.303 1.042-.403.693-1.735.521-2.896-.783-5.296-2.823-10.4-5.933-14.405-1.244-1.602-2.966-3.573-4.523-4.851-6.127-5.032-13.633-8.046-22.186-7.42Z" clip-rule="evenodd"/></svg>