<svg width="150" height="150" viewBox="0 0 150 150" fill="none" xmlns="http://www.w3.org/2000/svg">
<path fill-rule="evenodd" clip-rule="evenodd" d="M102.186 44.0091L102.114 44.2034L102.111 44.3484L102.013 44.5658L102.023 44.7602L101.903 44.9282L101.906 45.1028L101.824 45.2643V45.4257L101.704 45.5904L101.727 45.7156L101.61 45.8803L101.616 45.9858L101.525 46.1143L101.512 46.2559L101.43 46.4206V46.4799L101.336 46.6084L101.046 47.3563L100.952 47.4815V47.5539L100.857 47.6758L100.58 48.2425L100.473 48.3578V48.4303L100.366 48.5324L100.294 48.7301L100.183 48.8454L100.098 49.0233L99.9877 49.1353L99.9031 49.3165L99.7923 49.4219L99.7012 49.5932L99.6035 49.702L99.5025 49.8041L99.3234 50.094L99.2159 50.1896L99.1117 50.2851C98.9131 50.7068 97.047 52.4595 96.6139 52.9009C96.6139 53.0525 96.653 53.0162 96.4999 53.0162L95.5522 53.9749L95.4578 54.0902L95.3438 54.1858L94.3961 55.1445L94.3017 55.2598L94.1877 55.3553L93.3377 56.2152L93.2433 56.3305L93.1456 56.426L93.0316 56.5216L92.2761 57.2859L92.1816 57.4012L92.0872 57.5001L91.9895 57.5989L91.8918 57.6944L91.7778 57.79L91.12 58.4555L91.0255 58.5708L90.9278 58.6696L90.8301 58.7684L90.7324 58.864L90.6185 58.9595L90.0551 59.5295L89.9606 59.6448L89.8662 59.7436L89.7685 59.8425L89.6708 59.938L89.5731 60.0368L89.4591 60.1324L89.3777 60.2147C89.3777 60.3663 89.4168 60.33 89.2637 60.33L88.9901 60.6068L88.8957 60.7221L88.8013 60.8209L88.7036 60.9198L88.6059 61.0186L88.5082 61.1174L88.4105 61.213L88.2965 61.3085L87.8308 61.7796L87.7364 61.8949L87.6419 61.9938L87.5442 62.0926L87.4465 62.1914L87.3488 62.2903L87.2511 62.3858L87.1534 62.4813L87.0557 62.5802L86.9417 62.6757L86.7659 62.8536L86.6714 62.9689L86.577 63.0678L86.4793 63.1666L86.3816 63.2654L86.2839 63.3643L86.1862 63.4598L86.0885 63.5587L85.9908 63.6575L85.8931 63.7563L85.7954 63.8552L85.6814 63.9507L85.6 64.0331L85.5056 64.1484L85.4079 64.2472L85.3102 64.346L85.2125 64.4449L85.1148 64.5437L85.0171 64.6425L84.9194 64.7381L84.8217 64.8369L84.724 64.9358L84.61 65.0313L84.5286 65.1137L84.4341 65.229L84.3397 65.3278L84.242 65.4266L84.1443 65.5255L84.0466 65.6243L83.9489 65.7231L83.8512 65.822L83.7535 65.9208L83.6558 66.0196L83.5581 66.1152L83.4604 66.214L83.3627 66.3129L83.2683 66.4117L83.1706 66.5105L83.0729 66.6094L82.9752 66.7082L82.8775 66.807L82.7798 66.9059L82.6821 67.0047L82.5844 67.1035L82.4867 67.2024L82.389 67.3012L82.2913 67.4L82.1936 67.4989L82.0959 67.5977L81.9982 67.6966L81.9005 67.7954L81.8028 67.8942L81.7051 67.9931L81.6074 68.0919L81.5097 68.1907L81.412 68.2896L81.3143 68.3884L81.2166 68.4872L81.1189 68.5861L81.0212 68.6849L80.9235 68.7837L80.8258 68.8826L80.7281 68.9814L80.6304 69.0802L80.5327 69.1791L80.435 69.2779L80.3373 69.3768L80.2396 69.4756L80.1419 69.5744L80.0442 69.6733L79.9465 69.7721L79.8488 69.8709L79.7511 69.9698L79.6534 70.0686L79.5557 70.1674L79.458 70.2663L79.3603 70.3651L79.2626 70.4639L79.1649 70.5628L79.0672 70.6616L78.9695 70.7604L78.8718 70.8593L78.7741 70.9581L78.6764 71.0569L78.5787 71.1558L78.481 71.2546L78.3834 71.3535L78.2856 71.4523L78.188 71.5511L78.0903 71.65L77.9926 71.7488L77.8949 71.8476L77.7972 71.9465L77.6995 72.0453L77.6018 72.1441L77.5041 72.243L77.4064 72.3418L77.3087 72.4406L77.211 72.5395L77.1133 72.6383L77.0156 72.7371L76.9179 72.836L76.8202 72.9348L76.7225 73.0336L76.6248 73.1325L76.5271 73.2313L76.4294 73.3302L76.3317 73.429L76.234 73.5278L76.1363 73.6267L76.0386 73.7255L75.9409 73.8243L75.8432 73.9232L75.7455 74.022L75.6478 74.1208L75.5501 74.2197L75.4524 74.3185L75.3547 74.4173L75.257 74.5162L75.1593 74.615L75.0616 74.7138L74.9639 74.8127L74.8662 74.9115L74.7555 75.0071H74.5926L74.4819 74.9115L74.3842 74.8127L74.2865 74.7138L74.1888 74.615L74.0911 74.5162L73.9934 74.4173L73.8957 74.3185L73.798 74.2197L73.7003 74.1208L73.6026 74.022L73.5049 73.9232L73.4072 73.8243L73.3095 73.7255L73.2118 73.6267L73.1141 73.5278L73.0164 73.429L72.9187 73.3302L72.821 73.2313L72.7233 73.1325L72.6257 73.0336L72.528 72.9348L72.4303 72.836L72.3326 72.7371L72.2349 72.6383L72.1372 72.5395L72.0395 72.4406L71.9418 72.3418L71.8441 72.243L71.7464 72.1441L71.6487 72.0453L71.551 71.9465L71.4533 71.8476L71.3556 71.7488L71.2579 71.65L71.1602 71.5511L71.0625 71.4523L70.9648 71.3535L70.8671 71.2546L70.7694 71.1558L70.6717 71.0569L70.574 70.9581L70.4763 70.8593L70.3786 70.7604L70.2809 70.6616L70.1832 70.5628L70.0855 70.4639L69.9878 70.3651L69.8901 70.2663L69.7924 70.1674L69.6947 70.0686L69.597 69.9698L69.4993 69.8709L69.4016 69.7721L69.3039 69.6733L69.2062 69.5744L69.1085 69.4756L69.0108 69.3768L68.9131 69.2779L68.8154 69.1791L68.7177 69.0802L68.62 68.9814L68.5223 68.8826L68.4246 68.7837L68.3269 68.6849L68.2292 68.5861L68.1315 68.4872L68.0338 68.3884L67.9361 68.2896L67.8384 68.1907L67.7407 68.0919L67.643 67.9931L67.5453 67.8942L67.4476 67.7954L67.3499 67.6966L67.2522 67.5977L67.1545 67.4989L67.0568 67.4L66.9591 67.3012L66.8614 67.2024L66.7637 67.1035L66.666 67.0047L66.5683 66.9059L66.4706 66.807L66.373 66.7082L66.2753 66.6094L66.1776 66.5105L66.0799 66.4117L65.9854 66.3129L65.891 66.214L65.7933 66.1152L65.6956 66.0196L65.5979 65.9208L65.5002 65.822L65.4025 65.7231L65.3048 65.6243L65.2071 65.5255L65.1094 65.4266L65.0117 65.3278L64.9172 65.229L64.8228 65.1137L64.7414 65.0313L64.6274 64.9358L64.5297 64.8369L64.432 64.7381L64.3343 64.6425L64.2366 64.5437L64.1389 64.4449L64.0412 64.346L63.9435 64.2472L63.8458 64.1484L63.7514 64.0331L63.6732 63.9507L63.5592 63.8552L63.4615 63.7563L63.3638 63.6575L63.2661 63.5587L63.1684 63.4598L63.0707 63.3643L62.973 63.2654L62.8753 63.1666L62.7776 63.0678L62.6832 62.9689L62.5888 62.8536L62.4129 62.6757L62.2989 62.5802L62.2012 62.4813L62.1035 62.3858L62.0058 62.2903L61.9081 62.1914L61.8104 62.0926L61.7127 61.9938L61.6183 61.8949L61.5238 61.7796L61.0582 61.3085L60.9442 61.213L60.8465 61.1174L60.7488 61.0186L60.6511 60.9198L60.5534 60.8209L60.4589 60.7221L60.3645 60.6068L60.0909 60.33C59.9411 60.33 59.9802 60.3663 59.9802 60.2147L59.8988 60.1324L59.7848 60.0368L59.6871 59.938L59.5894 59.8425L59.4917 59.7436L59.3973 59.6448L59.3028 59.5295L58.7394 58.9595L58.6255 58.864L58.5278 58.7684L58.4301 58.6696L58.3324 58.5708L58.2379 58.4555L57.5801 57.79L57.4661 57.6944L57.3684 57.5989L57.2707 57.5001L57.1763 57.4012L57.0818 57.2859L56.3263 56.5216L56.2123 56.426L56.1179 56.3305L56.0234 56.2152L55.1734 55.3553L55.0595 55.2598L54.965 55.1445L54.0174 54.1858L53.9034 54.0902L53.8089 53.9749L52.8613 53.0162C52.7114 53.0162 52.7505 53.0525 52.7505 52.9009C52.3174 52.4628 50.4481 50.7068 50.2527 50.2851L50.1485 50.1896L50.041 50.094L49.8619 49.8041L49.761 49.702L49.6633 49.5932L49.5851 49.412L49.4613 49.3165L49.3767 49.1353L49.2659 49.0233L49.1813 48.8454L49.0706 48.7301L48.9989 48.5324L48.8914 48.4303V48.3578L48.797 48.2359L48.1457 46.8489L48.0122 46.7007L48.0252 46.6117L47.9405 46.4602L47.833 46.1241L47.7516 45.9627L47.7581 45.8803L47.6311 45.7222L47.6539 45.597L47.5334 45.4323L47.5562 45.2214L47.4357 45.0567L47.452 44.9381L47.3511 44.724L47.3445 44.5823L47.2729 44.3912L46.9765 42.487C46.9016 42.3717 46.9277 42.5035 46.8854 42.2959C46.8723 42.23 46.8626 41.9928 46.8561 41.9138L46.8495 39.9568C46.8528 39.9338 46.8691 39.6702 46.8691 39.6669L46.97 39.377L47.1426 37.9933L47.2664 37.7231L47.2501 37.5387L47.3511 37.3245L47.3445 37.1499L47.4422 36.9358L47.4292 36.8237L47.5334 36.6195L47.5237 36.4416L47.6442 36.2736L47.6246 36.1517L47.7419 35.9869L47.7321 35.8848L47.82 35.7464L47.8363 35.6015C47.8265 35.4466 47.7874 35.4796 47.9307 35.4796V35.4137L48.0122 35.2556L48.0317 35.1172C48.0219 34.9591 47.9796 34.992 48.1261 34.992V34.9195C48.1164 34.7647 48.0773 34.7976 48.2206 34.7976V34.7251L48.2987 34.5571V34.5011L48.3932 34.3792V34.3034L48.5039 34.2046V34.1354C48.4941 33.9773 48.4551 34.0135 48.5983 34.0135V33.9411C48.5886 33.7829 48.5462 33.8159 48.6928 33.8159V33.7434C48.683 33.5918 48.6439 33.6215 48.7807 33.6182L48.8686 33.493V33.4238L48.9794 33.325L49.051 33.1273L49.1585 33.0054L49.2464 32.8341L49.3539 32.7188L49.4385 32.5409L49.546 32.4289L49.6339 32.251L49.7577 32.1521L49.9205 31.8589L50.0443 31.7634C50.2104 31.5427 50.2039 31.4866 50.4025 31.2725L50.5263 31.1737C50.8161 30.8574 51.0734 30.6103 51.3827 30.2973C51.5456 30.1293 51.6205 30.0437 51.8126 29.8559C52.0471 29.6285 52.1253 29.6318 52.3402 29.4309L52.4444 29.309L52.731 29.141L52.8319 29.0191L53.1185 28.8477C53.1185 28.7028 53.0827 28.739 53.2227 28.7324L53.4084 28.6501C53.4084 28.5051 53.3725 28.5414 53.5126 28.5348L53.6982 28.4524C53.6982 28.3074 53.6624 28.3404 53.8057 28.347H53.8903L53.9848 28.2383L54.3691 28.0604C54.3691 27.922 54.3365 27.9582 54.4798 27.9582L54.5547 27.9549C54.5547 27.8166 54.5254 27.8561 54.6719 27.8594H54.7468C54.7468 27.721 54.7175 27.7606 54.8673 27.7639H54.9422C54.9422 27.6255 54.9097 27.665 55.0595 27.6683H55.1344C55.1344 27.5299 55.1018 27.5695 55.2516 27.5728H55.3298C55.3298 27.4344 55.2972 27.4739 55.4405 27.4739H55.5187C55.5187 27.3224 55.4893 27.3751 55.6685 27.3916L55.9974 27.2763C55.9974 27.1247 55.9681 27.1807 56.1504 27.1972L56.2644 27.1708L56.4272 27.0885L56.5543 27.072L56.7203 26.9896L56.8441 26.9732L57.0102 26.8908L57.1339 26.8743L57.2968 26.7953L58.6027 26.5021C58.6939 26.4197 58.5245 26.4032 58.9218 26.4065L59.2084 26.4131C59.3647 26.2846 59.1563 26.3176 59.5699 26.2945L59.9998 26.2846C60.0258 26.2747 60.0551 26.2583 60.0779 26.255L60.726 26.1957L62.0612 26.2056C62.1687 26.2056 62.3771 26.1924 62.4683 26.2023L62.7158 26.2583C62.7288 26.2352 62.7614 26.2813 62.7874 26.2912L63.2205 26.3011C63.3769 26.3011 63.582 26.2286 63.582 26.4197L63.8686 26.4131C64.0445 26.3999 64.1845 26.3242 64.1845 26.5054L65.5002 26.7986L65.6695 26.8743L65.7965 26.8908L65.9561 26.9699L66.0831 26.9864L66.2459 27.0687L66.373 27.0852L66.5293 27.1708L66.8582 27.2829L67.0178 27.3619H67.0829L67.1969 27.4608L68.4311 28.0373L68.5516 28.1394H68.6265L68.7307 28.2481L69.1053 28.4392C69.2485 28.4392 69.216 28.403 69.216 28.5414L69.4016 28.6204L69.5058 28.7324L69.6882 28.8115L69.7826 28.9334L70.0725 29.108L70.1669 29.2299L70.4567 29.4045L70.5512 29.5099L70.6456 29.622C70.8964 29.7669 70.9192 29.8328 71.1309 29.9909L71.2253 30.0964L71.323 30.1952L71.4207 30.294L71.5184 30.3929L71.6161 30.4917L71.7138 30.5905L71.8115 30.6894L71.9092 30.7882L72.0069 30.887L72.1046 30.9859L72.2023 31.0847L72.3 31.1836L72.3977 31.2824L72.4954 31.3812L72.5931 31.4801L72.6908 31.5789L72.7885 31.6777L72.8862 31.7766L72.9839 31.8754L73.0816 31.9742L73.1793 32.0731L73.277 32.1719L73.3747 32.2707L73.4724 32.3696L73.5798 32.4684L74.039 32.6595L74.254 32.7616H74.8076L75.0225 32.6595L75.4817 32.4684L75.5892 32.3696L75.6869 32.2707L75.7846 32.1719L75.8823 32.0731L75.98 31.9742L76.0777 31.8754L76.1754 31.7766L76.2731 31.6777L76.3708 31.5789L76.4685 31.4801L76.5662 31.3812L76.6639 31.2824L76.7616 31.1836L76.8592 31.0847L76.957 30.9859L77.0546 30.887L77.1523 30.7882L77.25 30.6894L77.3477 30.5905L77.4454 30.4917L77.5431 30.3929L77.6408 30.294L77.7385 30.1952L77.8362 30.0964L77.9307 29.9909C78.1424 29.8328 78.1652 29.7702 78.4127 29.622L78.5071 29.5099L78.6015 29.4045L78.8914 29.2299L78.9858 29.108L79.2757 28.9334L79.3701 28.8115L79.5525 28.7324L79.6567 28.6204L79.8423 28.5414C79.8423 28.403 79.8097 28.4392 79.953 28.4392L80.3275 28.2481L80.4318 28.1394H80.5067L80.6272 28.0373L81.8614 27.4608L81.9754 27.3619H82.0405L82.2001 27.2829L82.529 27.1708L82.6853 27.0852L82.8123 27.0687L82.9752 26.9864L83.1054 26.9699L83.265 26.8908L83.392 26.8743L83.5614 26.7986L84.877 26.5054C84.9585 26.3736 84.877 26.3769 85.1929 26.4131L85.4795 26.4197C85.5674 26.2286 85.5674 26.2879 85.841 26.3011L86.2741 26.2912C86.5575 26.1528 86.6356 26.2088 87.0004 26.2056L88.3356 26.1957C88.7133 26.2154 88.7654 26.1627 89.0618 26.2846L89.4917 26.2945C89.902 26.3176 89.6936 26.2846 89.8531 26.4131L90.1397 26.4065C90.537 26.4032 90.3644 26.4197 90.4589 26.5021L91.7648 26.7953L91.9309 26.8743L92.0514 26.8908L92.2175 26.9732L92.3412 26.9896L92.5073 27.072L92.6343 27.0885L92.7971 27.1708L92.9111 27.1972C93.0902 27.1807 93.0642 27.128 93.0642 27.2763L93.3931 27.3916C93.5722 27.3751 93.5429 27.3224 93.5429 27.4739H93.6178C93.7611 27.4739 93.7285 27.4344 93.7285 27.5728H93.8067C93.9532 27.5695 93.9239 27.5299 93.9239 27.6683H93.9988C94.1486 27.665 94.1161 27.6222 94.1161 27.7639H94.191C94.3408 27.7606 94.3115 27.721 94.3115 27.8594H94.3864C94.5329 27.8594 94.5036 27.8166 94.5036 27.9549L94.5785 27.9582C94.7218 27.9582 94.6892 27.9187 94.6892 28.0604L95.0735 28.2383L95.1679 28.347H95.2526C95.3959 28.3437 95.3601 28.3074 95.3601 28.4524L95.5457 28.5348C95.6857 28.5414 95.6499 28.5051 95.6499 28.6501L95.8356 28.7324C95.9756 28.7357 95.9398 28.7028 95.9398 28.8477L96.2263 29.0191L96.3273 29.141L96.6139 29.309L96.7181 29.4309C96.92 29.6187 96.9819 29.6055 97.1968 29.8064C97.3824 29.9778 97.4769 30.0931 97.63 30.2446C97.9556 30.5741 98.2292 30.8376 98.532 31.1704L98.6558 31.2692C98.8544 31.4834 98.8447 31.5394 99.014 31.7601L99.1378 31.8556C99.2485 32.0072 99.4146 32.2444 99.5123 32.4256L99.6067 32.5376L99.7109 32.643L99.7891 32.8308L99.8998 32.9329V33.0021L100.007 33.124L100.092 33.2953L100.19 33.4172L100.271 33.6116C100.414 33.6116 100.375 33.5787 100.366 33.7335V33.806C100.509 33.806 100.47 33.773 100.463 33.9279V33.9938L100.574 34.0959V34.1717L100.668 34.2936V34.3693L100.763 34.4912V34.5637L100.861 34.6856V34.7383L100.939 34.9063V34.9788C101.082 34.9788 101.043 34.9459 101.036 35.0974L101.027 35.1996L101.163 35.3445L101.15 35.4203L101.229 35.5883L101.219 35.6838L101.339 35.8486L101.32 35.9705L101.44 36.1352L101.421 36.2571L101.538 36.4251L101.515 36.5536L101.636 36.7183L101.613 36.9292L101.733 37.0972C101.864 38.214 102.183 39.1266 102.186 40.4312C102.189 41.9006 102.056 42.6649 101.896 43.9926L102.186 44.0091ZM59.9021 23.1087L57.5215 23.4909L57.3033 23.593L57.1274 23.5864L56.9125 23.6853L56.7594 23.6886L56.5608 23.794L56.4045 23.8006L56.2514 23.8829L56.1146 23.8994L55.9616 23.9818L55.8248 23.9982L55.6717 24.0806L55.32 24.186L55.193 24.2783L54.8413 24.3837L54.7078 24.4726H54.6296C54.6296 24.6176 54.6589 24.5715 54.4928 24.5616C53.9815 24.7296 53.5191 25.0393 53.086 25.2534L52.972 25.3457L52.8873 25.349L52.7929 25.461L52.4118 25.6389L52.3109 25.7542L52.1285 25.8366C52.1285 25.9782 52.1611 25.9354 52.0145 25.9387L51.8289 26.0244L51.7345 26.143L51.5488 26.2253L51.4446 26.3406L51.1548 26.5119L51.0603 26.6338L50.7738 26.8019L50.6728 26.9238C50.4058 27.1577 50.3471 27.128 50.0475 27.4443C49.8228 27.6815 49.7251 27.833 49.4223 27.9747L49.3278 28.0801L49.2138 28.1757C48.8914 28.4985 48.7579 28.7555 48.4095 29.0981C48.1717 29.332 47.7549 29.8493 47.6083 30.126L47.4878 30.2248L47.3217 30.5148L47.198 30.6103L47.1166 30.808L47.0059 30.9035L46.9244 31.0979L46.8137 31.1934L46.729 31.3845L46.6281 31.5064L46.4392 31.8688L46.3415 31.9973V32.0632C46.3383 32.2081 46.3741 32.1719 46.2308 32.1719L45.5567 33.5951L45.4785 33.7599V33.8225L45.3841 33.9509L45.2733 34.2738L45.1919 34.4385L44.9835 35.0513L44.9053 35.2226L44.8956 35.3742L44.7946 35.585L44.8142 35.7069L44.6937 35.8716L44.6969 36.0495L44.6188 36.2143L44.6285 36.3955L44.4885 36.6162L44.4983 36.804C44.5211 37.2356 44.5276 36.9819 44.4201 37.0675L44.4266 37.2454C44.3875 37.654 44.4103 37.4266 44.3094 37.5156L44.3159 37.8088C44.3094 38.1745 44.3029 38.0262 44.2182 38.1218C44.1563 39.0344 44 39.9601 44 40.9485C44 41.9335 44.1465 42.8494 44.2214 43.762C44.3191 43.8839 44.3094 43.7686 44.3191 44.0782L44.4234 44.8096L44.5015 45.0765L44.5048 45.2511L44.6057 45.4586L44.5992 45.6464L44.7165 45.8144L44.6937 46.022L44.8109 46.1867L44.7914 46.3119L44.9086 46.4832L44.8891 46.5985L45.0096 46.7699L44.9835 46.8885L45.1072 47.0565L45.0942 47.1421L45.1724 47.3102L45.1952 47.4353L45.2864 47.577V47.6264L45.3645 47.7944L45.3548 47.8933L45.4883 48.0415L45.4752 48.1338L45.5567 48.282C45.7358 48.7531 46.0419 49.2869 46.2438 49.6954L46.3383 49.8239V49.893L46.4262 50.0149C46.563 50.0182 46.5206 49.9853 46.5141 50.1368V50.2093L46.6248 50.3049V50.3773L46.7128 50.5025L46.8105 50.6112V50.6738L46.9049 50.7924L46.9993 50.911V50.9769L47.097 51.089L47.1882 51.2076L47.2762 51.3789L47.3999 51.4744L47.5693 51.7709L47.693 51.8665L47.8656 52.1564L47.9861 52.2552C48.1457 52.4529 48.1685 52.5418 48.3443 52.7428L48.4681 52.8383L56.4468 60.9099L56.5575 61.0219L57.4107 61.885L57.5052 62.0004L57.6029 62.0992L57.7006 62.198L57.8146 62.2936L58.5701 63.0579L58.6645 63.1732L58.7622 63.272L58.8762 63.3676L59.6318 64.1319L59.7262 64.2472L59.8239 64.346L59.9216 64.4449L60.0356 64.5404L60.7911 65.3047L60.8856 65.42L60.9833 65.5189L61.081 65.6177L61.1786 65.7166L61.2926 65.8121L61.856 66.382L61.9505 66.4974L62.0482 66.5962L62.1459 66.695L62.2436 66.7939L62.3413 66.8927L62.4552 66.9882L63.0186 67.5582L63.1131 67.6735L63.2108 67.7723L63.3085 67.8712L63.4062 67.97L63.5039 68.0688L63.6179 68.1644L64.0835 68.6355L64.178 68.7508L64.2757 68.8496L64.3734 68.9485L64.4711 69.0473L64.5688 69.1461L64.6665 69.245L64.7805 69.3405L65.2462 69.8116L65.3406 69.9269L65.4383 70.0258L65.536 70.1246L65.6337 70.2234L65.7314 70.3223L65.8291 70.4211L65.9268 70.5199L66.0245 70.6188L66.1222 70.7176L66.2199 70.8164L66.3176 70.9153L66.4153 71.0141L66.513 71.113L66.6107 71.2118L66.7084 71.3106L66.8061 71.4095L66.9038 71.5083L67.0015 71.6071L67.0992 71.706L67.1969 71.8048L67.2946 71.9036L67.3923 72.0025L67.49 72.1013L67.5877 72.2001L67.6854 72.299L67.7831 72.3978L67.8808 72.4966L67.9785 72.5955L68.0762 72.6943L68.1739 72.7932L68.2716 72.892L68.3693 72.9908L68.467 73.0897L68.5647 73.1885L68.6624 73.2873L68.76 73.3862L68.8577 73.485L68.9554 73.5838L69.0531 73.6827L69.1508 73.7815L69.2485 73.8803L69.3462 73.9792L69.4439 74.078L69.5416 74.1768L69.6393 74.2757L69.737 74.3745L69.8347 74.4734L69.9324 74.5722L70.0301 74.671L70.1278 74.7699L70.2255 74.8687L70.3232 74.9675L70.4209 75.0664L70.5186 75.1652L70.6163 75.264L70.714 75.3629L70.8117 75.4617L70.9094 75.5605L71.0071 75.6594L71.1048 75.7582L71.2025 75.857L71.3002 75.9559L71.3979 76.0547L71.4956 76.1535L71.5933 76.2524L71.691 76.3512L71.7887 76.4501L71.8864 76.5489L71.9841 76.6477L72.0818 76.7466L72.1795 76.8454L72.2772 76.9442L72.3749 77.0431L72.4726 77.1419L72.5703 77.2407L72.668 77.3396L72.7657 77.4384L72.8634 77.5372L72.9611 77.6361L73.0588 77.7349L73.1565 77.8337L73.2542 77.9326L73.3519 78.0314L73.4496 78.1302L73.5473 78.2291L73.645 78.3279L73.7427 78.4268L73.8404 78.5256L73.9381 78.6244L74.0358 78.72L74.1432 78.8221L74.4135 78.9176L74.5666 79H75.4361L75.5892 78.9176L75.8595 78.8221L75.9669 78.72L76.0646 78.6244L76.1623 78.5256L76.26 78.4268L76.3577 78.3279L76.4554 78.2291L76.5531 78.1302L76.6508 78.0314L76.7485 77.9326L76.8462 77.8337L76.9439 77.7349L77.0416 77.6361L77.1393 77.5372L77.237 77.4384L77.3347 77.3396L77.4324 77.2407L77.5301 77.1419L77.6278 77.0431L77.7255 76.9442L77.8232 76.8454L77.9209 76.7466L78.0186 76.6477L78.1163 76.5489L78.214 76.4501L78.3117 76.3512L78.4094 76.2524L78.5071 76.1535L78.6048 76.0547L78.7025 75.9559L78.8002 75.857L78.8979 75.7582L78.9956 75.6594L79.0933 75.5605L79.191 75.4617L79.2887 75.3629L79.3864 75.264L79.4841 75.1652L79.5818 75.0664L79.6795 74.9675L79.7772 74.8687L79.8749 74.7699L79.9726 74.671L80.0703 74.5722L80.168 74.4734L80.2657 74.3745L80.3634 74.2757L80.4611 74.1768L80.5588 74.078L80.6565 73.9792L80.7542 73.8803L80.8519 73.7815L80.9496 73.6827L81.0473 73.5838L81.145 73.485L81.2427 73.3862L81.3404 73.2873L81.4381 73.1885L81.5358 73.0897L81.6334 72.9908L81.7312 72.892L81.8288 72.7932L81.9265 72.6943L82.0242 72.5955L82.1219 72.4966L82.2196 72.3978L82.3173 72.299L82.415 72.2001L82.5127 72.1013L82.6104 72.0025L82.7081 71.9036L82.8058 71.8048L82.9035 71.706L83.0012 71.6071L83.0989 71.5083L83.1966 71.4095L83.2943 71.3106L83.392 71.2118L83.4897 71.113L83.5874 71.0141L83.6851 70.9153L83.7828 70.8164L83.8805 70.7176L83.9782 70.6188L84.0759 70.5199L84.1736 70.4211L84.2713 70.3223L84.369 70.2234L84.4667 70.1246L84.5644 70.0258L84.6621 69.9269L84.7565 69.8116L85.2222 69.3405L85.3362 69.245L85.4339 69.1461L85.5316 69.0473L85.6293 68.9485L85.727 68.8496L85.8247 68.7508L85.9192 68.6355L86.3848 68.1644L86.4988 68.0688L86.5965 67.97L86.6942 67.8712L86.7919 67.7723L86.8896 67.6735L86.9841 67.5582L87.5475 66.9882L87.6614 66.8927L87.7591 66.7939L87.8568 66.695L87.9545 66.5962L88.0522 66.4974L88.1467 66.382L88.7101 65.8121L88.8241 65.7166L88.9218 65.6177L89.0195 65.5189L89.1172 65.42L89.2116 65.3047L89.9671 64.5404L90.0811 64.4449L90.1788 64.346L90.2765 64.2472L90.371 64.1319L91.1265 63.3676L91.2405 63.272L91.3382 63.1732L91.4326 63.0579L92.1881 62.2936L92.3021 62.198L92.3998 62.0992L92.4975 62.0004L92.592 61.885L93.4452 61.0219L93.5559 60.9099L101.535 52.8383L101.658 52.7428C101.811 52.5649 101.851 52.4759 101.987 52.3046C102.16 52.0872 102.173 52.1366 102.31 51.8632L102.42 51.7676C102.42 51.626 102.385 51.6556 102.521 51.6556L102.619 51.4942C102.616 51.3393 102.577 51.3789 102.727 51.3789L102.811 51.2076L102.902 51.089L103.003 50.9901L103.085 50.7957L103.196 50.7002V50.6244C103.186 50.4762 103.147 50.5058 103.283 50.5025L103.375 50.3806V50.3147L103.482 50.2126L103.563 50.0215L103.661 49.8963V49.8272L103.775 49.725L104.133 48.9278L104.264 48.7762L104.54 48.1008L104.622 47.9427L104.638 47.801C104.628 47.6462 104.589 47.6791 104.733 47.6791V47.6067L104.811 47.4386L104.834 47.3299C104.817 47.1586 104.772 47.1916 104.925 47.1916V47.1388L105.003 46.9675L105.019 46.8456L105.097 46.6776L105.114 46.5458L105.192 46.3811L105.205 46.2361L105.303 46.0187L105.28 45.8902L105.42 45.6695L105.397 45.5443L105.491 45.3302L105.485 45.1457C105.521 44.7602 105.508 44.9612 105.602 44.8788L105.576 44.6515L105.693 44.3813C105.778 43.304 105.986 42.3289 105.999 41.1494C106.012 39.9436 105.791 38.9421 105.758 37.8912L105.687 37.7001L105.674 37.4826L105.596 37.2191L105.599 37.028C105.501 36.9489 105.514 37.1137 105.482 36.7611L105.488 36.5734L105.394 36.3559L105.403 36.1615L105.283 35.9968L105.286 35.8156L105.208 35.6509L105.192 35.5191L105.114 35.3511L105.097 35.2259L105.019 35.0546L104.902 34.656L104.814 34.5077L104.742 34.198L104.609 34.0465L104.622 33.9575L104.537 33.8093L104.335 33.269L104.241 33.1471V33.0713L104.146 32.9527V32.8769L104.052 32.755V32.6826L103.948 32.5639L103.664 32.0072L103.567 31.8787V31.8128L103.459 31.6942L103.378 31.5163L103.277 31.3944L103.192 31.2033L103.082 31.1078L103 30.9134L102.889 30.8179L102.808 30.6202L102.684 30.5247L102.518 30.2347L102.398 30.1359C102.264 29.8789 101.841 29.3518 101.645 29.1574C101.473 28.9828 101.359 28.8972 101.215 28.7127C101.023 28.4689 101.03 28.4261 100.789 28.1856L100.675 28.09L100.58 27.9846C100.278 27.8429 100.18 27.6881 99.9552 27.4542C99.6556 27.1379 99.5937 27.1675 99.3299 26.9336L99.2289 26.8117L98.9424 26.6437L98.8479 26.5218L98.5581 26.3505L98.4539 26.2352L98.2682 26.1528L98.1738 26.0342L97.9882 25.9486C97.8416 25.9453 97.8709 25.9881 97.8709 25.8465L97.6886 25.7641L97.5876 25.6488L97.2066 25.4709L97.1121 25.3589L97.0275 25.3556L96.9135 25.2633C96.4771 25.0525 96.0147 24.7395 95.5066 24.5715C95.3405 24.5814 95.3699 24.6275 95.3699 24.4825H95.2917L95.1582 24.3936L94.8065 24.2882L94.6795 24.1959L94.3277 24.0905L94.1747 24.0081L94.0379 23.9916L93.8848 23.9093L93.7481 23.8928L93.595 23.8104L93.4387 23.8039L93.24 23.6984L93.087 23.6951L92.872 23.5963L92.6962 23.6029L92.478 23.5008L90.0974 23.1186C89.8238 23.1186 89.635 23.1977 89.5307 23L87.0459 23.0395C87.0199 23.0494 86.9906 23.0659 86.971 23.0692L86.4207 23.1252L85.9908 23.1417L85.6 23.2108L84.3332 23.4217L84.1638 23.5008L84.0173 23.5041L83.8154 23.6161L83.6363 23.6062L83.4213 23.7083L82.1122 24.107L81.9526 24.1893L81.8191 24.2058L81.6986 24.298L81.3469 24.4035L81.2101 24.4924H81.1352L81.0179 24.5912H80.9626L80.7998 24.6703L79.7804 25.1645L79.673 25.2699H79.5948L79.4808 25.3655L79.0998 25.5499L78.9956 25.6587L78.5136 25.9321C78.5136 26.0771 78.5494 26.0375 78.4094 26.0441L78.227 26.1265C78.227 26.2714 78.2629 26.2352 78.1228 26.2385L77.9404 26.3209L77.846 26.4395L77.5562 26.6141L77.4617 26.736L77.1817 26.9205L77.0774 27.0193L76.9797 27.1181L76.8853 27.217L76.4978 27.497L76.4033 27.6024L76.3056 27.7013L76.2079 27.8001L76.1102 27.8989L76.0125 27.9978L75.9148 28.0966L75.8171 28.1954L75.7194 28.2943L75.6217 28.3931L75.524 28.4919L75.4263 28.5908L75.3286 28.6896L75.2309 28.7884C75.2114 28.8115 75.0453 29.1047 75.0421 28.7884L74.9444 28.6896L74.8467 28.5908L74.749 28.4919L74.6513 28.3931L74.5536 28.2943L74.4559 28.1954L74.3582 28.0966L74.2605 27.9978L74.1628 27.8989L74.0651 27.8001L73.9674 27.7013L73.8697 27.6024L73.7752 27.497L73.3877 27.217L73.2933 27.1181L73.1956 27.0193L73.0913 26.9205L72.8113 26.736L72.7168 26.6141L72.427 26.4395L72.3326 26.3209L72.1502 26.2385C72.0069 26.2352 72.046 26.2714 72.046 26.1265L71.8636 26.0441C71.7236 26.0375 71.7594 26.0738 71.7594 25.9321L71.2774 25.6587L71.1732 25.5499L70.7922 25.3655L70.6782 25.2699H70.6L70.4926 25.1645L69.4732 24.6703L69.3104 24.5912H69.2551L69.1378 24.4924H69.0629L68.9261 24.4035L68.5744 24.298L68.4539 24.2058L68.3204 24.1893L68.1608 24.107L66.8517 23.7083L66.6367 23.6062L66.4576 23.6161L66.2557 23.5041L66.1092 23.5008L65.9398 23.4217L64.673 23.2108L64.2822 23.1417L63.8523 23.1252C63.7481 23.1219 63.5592 23.1219 63.468 23.112C63.2238 23.0791 63.2759 23.0593 63.2271 23.0395L60.7423 23C60.5599 23.1977 60.5176 23.1186 60.1756 23.1186L59.9021 23.1087Z" fill="#02345D" stroke="#02345D"/>
<path fill-rule="evenodd" clip-rule="evenodd" d="M37.9228 68.9647C37.9361 69.5768 38.0389 73.9864 37.8134 74.1081L37.8532 79.2186L37.8565 83.8585L37.8399 84.0428L37.9361 84.1679V84.2403L38.0256 84.3653L38.1217 84.4805L38.2146 84.6582L38.3173 84.7569L38.4268 84.8523L38.5992 85.1452L38.7119 85.2407L38.8113 85.3525L38.9075 85.5204C39.0467 85.5204 39.0069 85.4875 39.0069 85.6322L39.1197 85.7277L39.2887 86.0238L39.3982 86.1193L39.5009 86.2147L39.68 86.5076L39.8059 86.6063C39.9452 86.8729 39.912 86.7906 40.0811 87.0012C40.217 87.1723 40.2436 87.2283 40.3662 87.3862L40.4922 87.4816C40.6746 87.7975 40.8204 87.8798 40.9763 88.1431L41.0691 88.2615L41.1785 88.357L41.3575 88.6498L41.4603 88.7453L41.5631 88.8506L41.7388 89.1336L41.8648 89.229L42.0504 89.5054L42.1466 89.6206L42.246 89.7259L42.4317 90.0089L42.5378 90.1043L42.6439 90.2031L42.7334 90.3841C42.8726 90.3841 42.8328 90.3512 42.8362 90.4927L42.9323 90.5914L43.0251 90.7131L43.1246 90.8744L43.2274 90.9797L43.3368 91.0751L43.5092 91.3713L43.6186 91.4667L43.718 91.5687C43.8175 91.7596 44.0562 92.0492 44.1955 92.2433L44.3214 92.3387C44.4408 92.5132 44.454 92.5658 44.5867 92.7303L44.7126 92.8258C44.895 93.168 45.021 93.1812 45.1768 93.5103L45.2895 93.6057L45.3923 93.7143L45.5713 93.9973L45.6807 94.096L45.7835 94.198L45.883 94.3593L45.9725 94.4843L46.0786 94.5797L46.2609 94.866L46.3637 94.968L46.4598 95.0832L46.6455 95.3564L46.7582 95.4518L46.8577 95.5571L47.04 95.8401L47.1461 95.9355L47.2456 96.0342L47.345 96.133L47.4445 96.2317L47.5439 96.3304L47.6434 96.4291L47.7429 96.5279L47.8423 96.6266L47.9418 96.722L48.0512 96.8207L48.3363 97.0017L48.4325 97.1235L48.7275 97.2979L48.8237 97.4065L49.2083 97.594L49.3177 97.6961H49.4005C49.5464 97.6928 49.5133 97.6533 49.5133 97.7915H49.5961C49.7453 97.7849 49.7122 97.7487 49.7122 97.8869H49.7884C49.9409 97.8803 49.9111 97.8409 49.9111 97.9824L49.984 97.9856C50.1399 97.9823 50.1067 97.9396 50.1067 98.0811L50.4548 98.1864C50.6239 98.1765 50.5941 98.1271 50.5941 98.2785H50.6537L50.8261 98.3575L50.9521 98.374L51.1179 98.4562L51.7113 98.578C52.1722 98.5484 51.8937 98.5418 51.9898 98.6537L52.2749 98.6471C52.3843 98.657 52.4208 98.6602 52.5236 98.6899C52.5369 98.6931 52.5733 98.7458 52.5866 98.7261C52.5965 98.7063 52.6231 98.7524 52.6429 98.7655L53.4884 98.7721L53.7271 98.7458H54.5758C54.6554 98.7096 54.599 98.7162 54.8112 98.6635C54.8344 98.6569 55.0068 98.6537 55.0101 98.6537L55.2488 98.6833C55.3615 98.5154 55.1924 98.5911 55.5074 98.5615L55.6964 98.5681L55.9086 98.4661L56.071 98.4628L56.2268 98.3838L56.3661 98.3674L56.5219 98.2884L56.6479 98.2654L56.8103 98.1798H56.87C56.87 98.0317 56.8402 98.0778 57.0093 98.0909L57.1485 98.0745L57.2678 97.9758L57.858 97.7026C57.858 97.5546 57.8215 97.5908 57.9707 97.5973H58.0536L58.1497 97.4887H58.2326L58.3487 97.3966L58.4448 97.2946C58.7531 97.1235 58.5575 97.3143 58.7365 97.0116L58.8493 96.9129C59.0581 96.3863 59.1145 96.2712 59.025 95.5966L58.9454 95.4287V95.3498C58.8029 95.3498 58.8393 95.3827 58.8493 95.2313V95.1523L58.7399 95.0503L58.5675 94.764L58.4415 94.6686L58.2558 94.3856L58.1564 94.277L58.0569 94.1651L57.9574 94.0072L57.8613 93.892L57.7486 93.7965L57.5795 93.5004L57.4535 93.4049L57.2811 93.1154L57.175 93.0134L57.0689 92.9179L56.8965 92.6218L56.7838 92.5263L56.6877 92.4144L56.5982 92.2367L56.4755 92.138C56.2368 91.73 55.8157 91.3614 55.6268 90.9665L55.5008 90.8711C55.3914 90.7197 55.4212 90.7592 55.3317 90.5782L55.2157 90.4828L55.1096 90.3808L55.02 90.1998L54.9206 90.0945L54.8178 89.9826L54.6355 89.7029L54.5095 89.6074L54.3238 89.3376L54.231 89.2191L54.1249 89.1237L54.0354 88.946L53.9359 88.8308L53.8398 88.7321L53.747 88.6104L53.6475 88.4491L53.5447 88.3438L53.4486 88.2286L53.2629 87.9522L53.1369 87.8568L52.9645 87.5606L52.8386 87.4652L52.6695 87.1723L52.5435 87.0769L52.2783 86.6886L52.1523 86.5898L51.9832 86.297L51.8572 86.2015C51.7279 86.0238 51.4892 85.7211 51.3931 85.5171L51.2837 85.4216L51.1809 85.3163L51.0814 85.1551L50.9919 85.0333L50.8958 84.9313L50.793 84.826L50.7035 84.6417L50.6007 84.543L50.5012 84.4311L50.3222 84.1547L50.1962 84.0593L50.0238 83.7664L49.9144 83.671L49.815 83.5657L49.7221 83.3978L49.6227 83.2827L49.5199 83.1839L49.3375 82.8944L49.2315 82.7989C49.0922 82.7956 49.132 82.8285 49.1419 82.6772L49.0425 82.5126L48.9364 82.4106L48.827 82.3152C48.6811 82.0026 48.4225 81.7854 48.2501 81.4497L48.154 81.3313L48.1407 81.1898L48.0578 81.0285L48.0611 80.2058L48.144 80.0413L48.1606 79.8998C48.1573 79.7451 48.1142 79.7748 48.2567 79.7748V79.7024C48.2534 79.551 48.217 79.5905 48.3695 79.5905C48.5816 79.2581 48.4126 79.3568 48.7474 79.1989L48.8436 79.0903L49.0259 79.0047L49.1453 78.906C49.8547 78.7382 49.8813 78.7448 50.5874 78.9093L50.7002 79.008C51.0217 79.1462 51.1146 79.2515 51.2903 79.472L51.3897 79.5872L51.4892 79.6859L51.592 79.7879L51.781 80.061C51.9202 80.061 51.8804 80.0281 51.8837 80.1696L51.9799 80.2684L52.086 80.3638L52.3578 80.7554L52.4705 80.8508L52.5833 80.9462C52.6827 81.1404 53.0938 81.634 53.2463 81.8249L53.3723 81.9203L54.8112 83.6743L54.9372 83.7697L55.1195 84.0626L55.2223 84.1613L55.3217 84.26L55.4245 84.3653L55.6002 84.6483L55.713 84.7438L55.8257 84.8392L56.0942 85.2308L56.2003 85.3262L56.2998 85.4249L56.3992 85.5368L56.5882 85.8099L56.691 85.912L56.7904 86.0107L56.8866 86.1259L57.0855 86.3792L57.1817 86.4944L57.2811 86.5931L57.3839 86.6952L57.5729 86.9749L57.6756 87.0835L57.7751 87.1822C57.9143 87.1855 57.8712 87.1526 57.8646 87.3039L58.0635 87.5606C58.2028 87.5606 58.1663 87.5277 58.1663 87.6692L58.2658 87.7679L58.3652 87.8765L58.5542 88.1529L58.6603 88.255L58.7564 88.3537L58.8592 88.4524L59.0382 88.7453L59.1642 88.8407C59.3565 89.0382 59.3399 89.0776 59.4991 89.2718C59.6416 89.4429 59.7378 89.5285 59.8638 89.6897C60.0594 89.9398 60.318 90.2788 60.5036 90.4992L60.6296 90.5947C60.8053 90.7954 60.7755 90.7197 60.8982 90.9863L61.0109 91.0817L61.1203 91.1771L61.3888 91.5687L61.4982 91.6642L61.6143 91.7596L61.8828 92.1512L61.9889 92.2466L62.0884 92.3453L62.1878 92.4572L62.3801 92.7271L62.4829 92.8324L62.5923 92.9278L62.8642 93.3194L62.9736 93.4148L63.0896 93.5103C63.2023 93.7011 63.2421 93.7373 63.3581 93.9018L63.4642 93.9973L63.5604 94.096L63.6532 94.2178L63.8521 94.4711C63.9914 94.4711 63.9516 94.4382 63.9549 94.583L64.0544 94.6818L64.1538 94.7871L64.3395 95.0668L64.4456 95.1688L64.5417 95.2675L64.6445 95.3629C64.7837 95.6525 64.7605 95.5538 64.9793 95.8072C65.1053 95.952 65.1915 96.077 65.3241 96.2449C65.5297 96.5081 65.7452 96.7878 65.9176 97.1004L66.027 97.2156L66.0999 97.4131L66.2126 97.5151V97.5809L66.3088 97.7092V97.7783L66.3983 97.9001C66.5375 97.9034 66.4978 97.8705 66.4878 98.0218V98.0942C66.637 98.0942 66.5939 98.0613 66.584 98.2193L66.7 98.5615L66.7961 98.68L67.0813 99.5422L67.184 99.7528L67.2868 99.9634L67.2636 100.075L67.3863 100.25L67.3763 100.427L67.4758 100.641L67.4658 100.835L67.5852 101.105L67.5653 101.322C67.6681 101.418 67.6681 101.247 67.6614 101.635L67.6714 101.981C67.7377 102.076 67.7211 102.01 67.7576 102.194C67.7742 102.273 67.7642 102.425 67.7609 102.504L67.7775 107.16C67.7079 108.654 67.7974 110.411 67.7709 111.925L67.6681 112.409L67.6614 117.631C67.678 118.237 67.7709 122.768 67.552 122.873L67.562 123.663C67.4095 123.801 67.7941 123.778 67.2802 123.788L58.1895 123.811L48.1606 123.798C48.0413 123.66 48.0479 124.022 48.0512 123.489C48.0578 123.393 48.0578 123.202 48.0744 123.12C48.1076 122.952 48.1175 122.992 48.1639 122.913L48.1507 122.321C48.1573 122.225 48.1573 122.034 48.1739 121.952C48.207 121.774 48.2103 121.837 48.2634 121.751L48.2501 121.159C48.2534 121.06 48.2534 120.873 48.27 120.787C48.3065 120.603 48.2998 120.685 48.3628 120.59L48.3496 119.997C48.3529 119.899 48.3496 119.711 48.3695 119.622C48.4059 119.428 48.396 119.53 48.4623 119.428L48.449 118.836C48.459 118.546 48.3927 118.388 48.5618 118.263L48.5485 117.671C48.5551 117.381 48.4888 117.217 48.6612 117.098L48.648 116.509C48.6579 116.22 48.5883 116.052 48.764 115.933L48.8701 113.65L48.7342 113.501L48.7474 113.413L48.6513 113.288L48.5684 113.097L48.4623 113.001L48.3695 112.883L48.2766 112.708L48.1705 112.613C48.0313 112.61 48.0711 112.643 48.0777 112.491L47.9783 112.327C47.839 112.327 47.8755 112.36 47.8755 112.221L47.7827 112.103L47.6865 111.938C47.5473 111.938 47.5837 111.971 47.5837 111.83L47.4876 111.721L47.3981 111.54L47.2754 111.441L47.1096 111.149L46.9837 111.053L46.8146 110.76L46.6886 110.662C46.5527 110.461 46.3305 110.198 46.2278 109.98L46.1018 109.885L45.9327 109.592L45.8067 109.497L45.6343 109.204L45.5083 109.108L45.3359 108.815L45.2099 108.72L45.0375 108.427L44.9315 108.332L44.8386 108.213L44.7425 108.042L44.6364 107.943L44.5303 107.848L44.3579 107.555L44.2319 107.46L44.0595 107.163L43.9369 107.068C43.7976 106.775 43.3832 106.288 43.181 105.995L43.055 105.9L42.8859 105.607L42.7599 105.512L42.6737 105.321L42.5742 105.219L42.4715 105.113L42.3786 104.939L42.2792 104.83L42.1764 104.718L42.0769 104.557L41.9841 104.439L41.8813 104.337L41.7852 104.169L41.6924 104.047L41.5863 103.952L41.4968 103.771L41.3973 103.659L41.2912 103.563L41.1188 103.271L40.9928 103.175L40.8204 102.879L40.711 102.784L40.6116 102.678L40.5221 102.497L40.416 102.395L40.3165 102.296L40.2336 102.102L40.1076 102.007L39.9386 101.714L39.8126 101.619C39.6136 101.329 39.1959 100.839 39.0567 100.546L38.9307 100.45L38.7583 100.158L38.6323 100.062L38.4599 99.7692L38.3538 99.6705L38.2544 99.5619L38.1648 99.3776L38.0588 99.2822L37.9626 99.1637L37.8665 98.9926L37.7637 98.8906L37.6709 98.7721L37.5714 98.6109L37.4686 98.499L37.3692 98.3904L37.2763 98.2193C37.1371 98.2193 37.1769 98.2522 37.1736 98.1107L37.0741 98.0087L36.9846 97.8244L36.8619 97.7257C36.7227 97.5578 36.716 97.5118 36.5967 97.3341L36.4707 97.2386L36.3016 96.9458L36.1756 96.8471L36.0066 96.5542L35.8839 96.4587L35.7148 96.1659L35.5921 96.0671L35.5026 95.8895L35.4065 95.7776L35.3037 95.669L35.2076 95.5077L35.1147 95.3893L35.0086 95.2905L34.9125 95.1227L34.8197 95.001L34.7136 94.9055L34.6241 94.7278L34.5279 94.6126L34.4218 94.5172L34.2494 94.2243L34.1234 94.1289L33.951 93.836L33.8251 93.7406L33.656 93.4444L33.5333 93.349L33.3642 93.0528L33.2382 92.9574C33.152 92.7863 33.1719 92.8093 33.0692 92.6645L32.9432 92.5658L32.7774 92.2729L32.6547 92.1775L32.4724 91.7925L32.363 91.6872L32.0016 90.7954L31.8624 90.644L31.7066 90.0056L31.5806 89.8378L31.5872 89.6601L31.4844 89.4495L31.5043 89.2323C31.4082 89.15 31.4214 89.3508 31.385 88.9658L31.4115 88.6334C31.2291 88.4656 31.2988 88.4228 31.2756 88.1102L31.3054 87.1624L31.3452 86.4648C31.3485 86.4253 31.3684 86.4154 31.3783 86.3924L31.4015 85.6915C31.3916 85.4611 31.3021 85.0202 31.5109 84.9247L31.4712 84.1843C31.4911 83.9211 31.4314 83.5492 31.6038 83.4538L31.564 82.7232C31.5971 82.4402 31.5375 82.0881 31.6999 81.9861L32.0679 76.0167C32.0878 75.4705 32.0049 75.5231 32.1806 75.2401L32.1674 74.5524C32.1939 74.0193 32.1177 74.0456 32.2768 73.7758L32.2635 73.0814C32.3 72.5845 32.2171 72.5944 32.3729 72.3081L32.3796 71.5611C32.3796 71.153 32.3332 71.1103 32.4691 70.8371L32.4757 70.0901C32.4823 69.6821 32.4326 69.659 32.5652 69.3662V68.6225C32.5752 68.4053 32.4989 67.9808 32.6945 67.8985L32.6581 67.1614C32.668 67.0265 32.6614 66.7895 32.6746 66.6776L32.7741 66.3848L32.7476 65.7003C32.7641 65.5456 32.7608 65.3515 32.7774 65.2199L32.8702 64.9204C32.9332 64.0484 32.91 63.4856 33.1587 62.6992L33.2548 62.5774V62.505L33.3675 62.403L33.4405 62.2056L33.5631 62.1101L33.8416 61.8238C33.8416 61.6856 33.8052 61.7185 33.9444 61.7185L34.0505 61.6231L34.4914 61.4158L34.6539 61.3368L34.8064 61.3335L35.002 61.2249L35.9668 61.2381L36.169 61.3434L36.2751 61.3335C36.4276 61.3302 36.3978 61.2874 36.3978 61.4256L36.6829 61.5112L36.789 61.6264L36.9746 61.7087L37.0708 61.8172L37.1702 61.916L37.2697 62.0147L37.3692 62.1134L37.4786 62.2088L37.5648 62.3865L37.6775 62.5017L37.7637 62.7781C37.9096 62.7781 37.8598 62.7485 37.8532 62.9163L37.9726 63.614C38.0024 63.6732 38.019 63.6864 38.019 63.8213C38.0157 63.9562 38.0886 63.9332 37.946 63.9332L37.9527 68.9976L37.9228 68.9647ZM34.1931 58.0888L34.014 58.079L33.7985 58.1843L32.9399 58.4706C32.9399 58.6088 32.9697 58.5693 32.8172 58.566H32.7409L32.6348 58.6713L31.9552 59.0563L31.8557 59.1518L31.7596 59.2603L31.08 59.9284L30.9739 60.0271L30.8744 60.1258L30.7849 60.2476L30.6887 60.4121L30.5694 60.5141L30.387 60.8991L30.2909 61.0209V61.0966L30.1948 61.2183V61.294L30.0986 61.4125L30.0025 61.7876L29.8831 61.9555L29.8897 62.1496C29.8997 62.5017 29.9229 62.2944 29.7936 62.3635L29.8201 62.5774L29.6941 62.9525L29.3129 68.787C29.3096 69.0799 29.3759 69.4221 29.1968 69.5636L29.2167 70.2547C29.2002 70.8371 29.2665 70.7779 29.1073 71.0313L29.1206 71.7223C29.114 71.8573 29.1239 72.0909 29.1106 72.2028L29.0112 72.4957L29.0045 73.2427L28.9515 73.9041C28.9482 73.8909 28.9283 73.9469 28.915 73.9666L28.9084 74.7103C28.9084 75.1282 28.9581 75.1644 28.8189 75.4343L28.8156 76.1813C28.8089 76.5992 28.8554 76.6255 28.7227 76.9052V77.6456C28.7161 77.774 28.7261 78.034 28.7128 78.1393C28.6763 78.4552 28.7029 78.284 28.61 78.4223L28.2254 84.3423C28.2254 84.6352 28.2984 84.9938 28.1028 85.1288L28.1293 85.8165C28.1293 86.1061 28.1956 86.4549 28.0133 86.5931L28 88.5774C28.1923 88.8078 28.116 88.7387 28.1392 89.1105L28.1326 89.4001L28.2288 89.7193L28.2056 89.9201L28.3315 90.1932L28.3183 90.3808L28.4277 90.5914L28.4973 91.0159L28.62 91.1903L28.6001 91.3055L28.7227 91.4733L28.8123 91.855C28.9515 91.855 28.9117 91.8254 28.9084 91.9768L29.114 92.5263L29.2002 92.6678L29.2035 92.7369C29.3493 92.7369 29.3062 92.704 29.2996 92.862V92.9311L29.4123 93.0298L29.5847 93.4214C29.7339 93.4214 29.6975 93.3852 29.6941 93.5333V93.6057L29.8069 93.711L29.8798 93.9084L30.0025 94.0039L30.0754 94.2013L30.1981 94.2967L30.3672 94.5896L30.4898 94.6916L30.5827 94.8627L30.6755 94.9779L30.7816 95.0832L30.881 95.2445L30.9705 95.3695L31.0766 95.4649L31.2457 95.7578L31.3717 95.8533L31.5441 96.1461L31.6701 96.2416L31.8425 96.5344L31.9685 96.6299L32.1409 96.9227L32.2668 97.0182L32.4359 97.3143L32.542 97.4098C32.6813 97.4131 32.6415 97.3801 32.6315 97.5348L32.731 97.6993L32.8371 97.7981L32.9432 97.8935C33.0692 98.1568 33.3675 98.5023 33.5499 98.7425C33.7488 99.0091 34.0704 99.3776 34.1997 99.6475L34.3058 99.7429L34.4119 99.8416L34.4948 100.036L34.5975 100.131L34.7003 100.236L34.7898 100.417L34.8926 100.52L34.9921 100.635L35.0882 100.799L35.1877 100.908L35.2871 101.02L35.3866 101.181L35.4827 101.296L35.5855 101.398L35.6783 101.573L35.7778 101.688L35.8806 101.786L35.9668 101.977L36.0729 102.079L36.179 102.175L36.3513 102.471L36.4773 102.566L36.653 102.856L36.7757 102.955L36.9448 103.248L37.0675 103.343L37.2365 103.636L37.3625 103.735L37.5283 104.027L37.6543 104.126C37.7571 104.271 37.7372 104.245 37.8234 104.416L37.9493 104.511L38.1184 104.804L38.2444 104.899L38.4168 105.192L38.5428 105.288L38.7152 105.581L38.8412 105.676L39.0136 105.969L39.1197 106.064L39.2125 106.183L39.3053 106.357L39.4114 106.453C39.5507 106.456 39.5109 106.423 39.5009 106.578L39.6004 106.742L39.7065 106.844L39.7993 106.963L39.8955 107.127C40.0347 107.127 39.9982 107.094 40.0015 107.236L40.0977 107.344L40.1872 107.525L40.3132 107.624C40.5419 108.009 40.8967 108.404 41.1652 108.796L41.2912 108.891L41.3741 109.085L41.4769 109.184L41.583 109.286L41.6725 109.47L41.7719 109.576L41.8714 109.687L41.9675 109.852L42.067 109.964L42.1665 110.072L42.2659 110.234L42.3621 110.352L42.4648 110.454L42.5577 110.629L42.6538 110.744L42.7599 110.839L42.8461 111.027L42.9489 111.132L43.055 111.228L43.2274 111.524L43.3534 111.619L43.5258 111.915L43.6484 112.011C43.7777 112.287 44.212 112.81 44.4043 113.084L44.5303 113.179C44.6662 113.376 44.8884 113.65 44.9911 113.863L45.1171 113.959L45.2862 114.252L45.4122 114.347C45.7072 114.805 45.442 115.89 45.4056 116.588C45.3989 116.878 45.4652 117.023 45.2796 117.164L45.3028 117.743C45.3028 117.855 45.3061 118.036 45.2928 118.141C45.2431 118.487 45.2663 118.253 45.2133 118.365L45.2033 118.908C45.2033 119.023 45.2099 119.201 45.1934 119.31C45.1403 119.688 45.1867 119.385 45.1105 119.533L45.1005 120.076C45.1005 120.191 45.1105 120.369 45.0939 120.481C45.0375 120.886 45.1039 120.521 45.011 120.702L45.0011 121.241C45.0011 121.36 45.0143 121.534 44.9978 121.649C44.9746 121.811 44.948 121.801 44.9116 121.866L44.8983 122.406C44.8983 122.528 44.9116 122.699 44.895 122.817C44.8685 123.008 44.9049 122.933 44.8088 123.031L44.7988 123.574C44.8022 123.699 44.8154 123.861 44.7988 123.986C44.7723 124.183 44.8121 124.098 44.7093 124.196L44.6961 124.736L44.706 125.848L44.885 126.325C45.0309 126.325 44.9944 126.289 45.0044 126.431L45.2928 126.701L45.3956 126.809H45.4785L45.5978 126.905L45.6708 126.901L45.8863 127L69.3589 126.98L69.6507 126.911L70.0982 126.724L70.1944 126.612L70.2938 126.513L70.3933 126.414L70.5027 126.319L70.5889 126.141C70.5889 125.983 70.5425 126.013 70.6884 126.013L70.6817 125.934L70.7878 125.72L70.7845 125.457C70.7878 124.894 70.6552 120.781 70.8773 120.359L70.884 115.144C70.884 114.466 70.7381 110.069 71 109.888L70.9602 104.676L70.9635 102.793L70.9801 101.994C70.9039 101.865 70.9735 102.102 70.8906 101.79C70.8873 101.773 70.8707 101.559 70.8674 101.523L70.8906 101.204C70.7315 101.039 70.7944 101.191 70.7878 100.885L70.4132 99.0387L70.2872 98.8741L70.3137 98.7491L70.1911 98.5813L70.2109 98.4595L70.0883 98.295L70.0982 98.1962C69.9524 98.1962 69.9988 98.2259 70.0087 98.0679L69.9921 97.9198L69.896 97.7981L69.7932 97.4328L69.6971 97.3078V97.2354L69.6009 97.1103V97.0412L69.5048 96.9162L69.4219 96.6332L69.3092 96.5279V96.462L69.213 96.3337V96.2679L69.1136 96.1428V96.0737L69.0042 95.9553L68.9312 95.7578L68.8185 95.6624V95.5867L68.7091 95.4682L68.6362 95.2708L68.5234 95.1754L68.4439 94.9812L68.3179 94.8825C68.1786 94.5995 67.6581 93.9183 67.4692 93.7143C67.32 93.7143 67.3598 93.7538 67.3465 93.609L67.1509 93.3457L67.0581 93.2272L66.9586 93.1285L66.8525 93.0331C66.7033 92.8455 66.7033 92.8784 66.584 92.6415L66.4679 92.5461L66.3585 92.4506L66.0867 92.059L65.9773 91.9636L65.8645 91.8682L65.6789 91.5983L65.586 91.4799L65.4866 91.3812L65.3805 91.2857L65.112 90.8941L64.9992 90.7987L64.8898 90.7033L64.618 90.3117L64.5086 90.2162L64.3958 90.1208C64.2765 89.897 64.2665 89.9102 64.1273 89.7292L64.0212 89.6338L63.9217 89.5351C63.7825 89.5318 63.8256 89.5647 63.8289 89.4166L63.6333 89.1566C63.4941 89.1566 63.5305 89.1895 63.5272 89.048L63.4311 88.9493L63.3316 88.844C63.199 88.5873 63.1758 88.6301 62.9935 88.4096C62.8443 88.2319 62.831 88.1628 62.6586 87.9785L62.5326 87.8798C62.3635 87.6791 62.347 87.5902 62.1679 87.3895L62.0453 87.2941L61.6806 86.807C61.5314 86.807 61.5712 86.8465 61.5579 86.7017L61.3623 86.4451L61.2728 86.3233L61.1733 86.2246L61.0639 86.1291L60.8816 85.8396L60.7788 85.7408L60.6793 85.6421L60.5799 85.5302L60.3843 85.2703L60.2881 85.1551L60.1887 85.0564L60.0859 84.9544L59.8903 84.6911L59.7975 84.5726L59.698 84.4739L59.5919 84.3785L59.32 83.9869L59.2073 83.8915L59.0979 83.796L58.8261 83.4044L58.7167 83.309L58.6006 83.2136L58.4282 82.924L58.3221 82.822L58.226 82.7232L58.1199 82.6278L57.848 82.2362L57.7353 82.1408L57.6226 82.0454C57.4734 81.7196 57.4833 81.8315 57.2413 81.5583C57.0557 81.351 57.049 81.2753 56.8634 81.0713L56.7374 80.9726L56.3727 80.4823L56.25 80.3868C56.0942 80.1729 56.1075 80.1499 55.9218 79.9459C55.6964 79.6991 55.7196 79.7945 55.5837 79.5082L55.4776 79.4128L55.3781 79.3141L55.272 79.2153L55.0864 78.9323L54.9869 78.8303L54.8874 78.7316L54.7847 78.6197L54.5891 78.363L54.4962 78.2446L54.3968 78.1458L54.2907 78.0471L54.0984 77.7773L54.0022 77.6588L53.9061 77.5601L53.8 77.4647L53.0242 76.688L52.9248 76.586L52.8187 76.484L52.6297 76.4018L52.5302 76.2899L51.887 75.9871C51.7014 76.0036 51.7312 76.0562 51.7312 75.9049H51.6649L51.5091 75.8193L51.3599 75.8094L51.1444 75.7074L50.9488 75.7206L50.6239 75.6186L48.9729 75.5922C48.89 75.6942 49.0889 75.6778 48.701 75.7107L48.512 75.7008L48.2998 75.7995L48.1573 75.8127L47.9948 75.895L47.8921 75.8785L47.7561 76.0167L47.6467 76.0036L47.5307 76.1023H47.4511L47.3351 76.2076L47.1362 76.2833L47.04 76.3919L46.8477 76.4741L46.745 76.5795L46.6488 76.6848C46.2012 76.8888 46.062 77.1882 45.7835 77.5535L45.6608 77.6588L45.5813 77.8464L45.4685 77.9517V78.0175C45.4719 78.1689 45.5116 78.1327 45.3591 78.1327L45.1735 78.5967L45.0873 78.7382L44.9812 79.0903L44.885 79.3075L44.895 79.4983L44.7756 79.7616L44.8022 80.1894L44.7955 81.0548L44.7723 81.4826L44.8884 81.7459L44.8817 81.9368L44.9812 82.1507L44.9944 82.2955L45.0873 82.4205V82.4929L45.1702 82.641L45.1867 82.7825L45.2829 82.9042V82.9799L45.389 83.0984L45.4619 83.2925L45.5779 83.3913C45.7305 83.7532 46.0819 84.0297 46.2543 84.3554L46.3537 84.464L46.4565 84.5726L46.6355 84.8556L46.7615 84.9511L46.9339 85.2439L47.04 85.3394L47.1461 85.4348L47.2389 85.6125L47.3351 85.731L47.4412 85.8264L47.6268 86.1094L47.7263 86.218L47.8224 86.3332L47.9219 86.4944L48.0214 86.6096L48.1341 86.705L48.3032 86.9979L48.4291 87.0933L48.5982 87.3862L48.7242 87.4849C48.9066 87.7449 49.1221 87.9917 49.2812 88.2648L49.4072 88.3603C49.553 88.6202 49.7818 88.8934 49.9641 89.1402L50.0901 89.2422L50.1863 89.4067L50.2758 89.5285L50.3852 89.6239L50.5675 89.9168L50.6703 90.0155L50.7731 90.1241L50.8659 90.2985L50.9654 90.4038L51.0748 90.4992L51.2472 90.7921L51.3732 90.8875L51.5555 91.1607L51.6517 91.2791L51.7544 91.3779L51.8439 91.5621L51.9467 91.6707L52.0462 91.7695C52.1854 91.7727 52.1456 91.7398 52.1357 91.8912L52.2352 92.0525L52.3379 92.1578L52.4341 92.2729L52.6197 92.5494L52.7457 92.6448C52.8982 92.9739 53.0275 92.9804 53.2099 93.3293L53.3359 93.4247C53.4718 93.5925 53.4817 93.6386 53.6011 93.8163L53.7271 93.9117C53.9061 94.2605 54.0288 94.2605 54.1912 94.5962L54.3172 94.6916L54.5029 94.968L54.599 95.0799L54.7018 95.1885C54.8675 95.4057 54.725 95.1392 54.8178 95.4748L54.5426 95.4814C54.5194 95.4946 54.4929 95.5143 54.473 95.5209C54.4498 95.5275 54.41 95.5406 54.3868 95.5472C54.3039 95.567 54.2642 95.5604 54.1481 95.5538L53.0342 95.5735C52.6264 95.5505 52.8419 95.6032 52.6695 95.4518L52.4341 95.4814L52.2219 95.3794L52.076 95.3695L51.9136 95.2905L51.7776 95.2741L51.6185 95.1951L51.5091 95.1688C51.3168 95.1852 51.3466 95.2412 51.3466 95.0898H51.2803L51.161 94.9944H51.0748L50.9753 94.8858L50.7764 94.8134L50.6736 94.6982L50.4813 94.6159L50.3852 94.5041L50.1034 94.3132L49.994 94.2145L49.8945 94.1157L49.7951 94.017L49.6956 93.9183L49.5961 93.8196L49.4967 93.7077L49.3972 93.5432L49.3011 93.428L49.2016 93.3326L49.1055 93.2141L49.006 93.0528L48.9066 92.9442L48.7938 92.8488L48.6214 92.5559L48.512 92.4605L48.4093 92.3585L48.3197 92.1742L48.2136 92.0689L48.0976 91.9735C48.0114 91.8024 48.0313 91.8254 47.9285 91.6806L47.8191 91.5819L47.713 91.4865L47.5373 91.1969L47.4146 91.0981C47.2655 90.8382 47.04 90.565 46.8577 90.3182L46.735 90.2195L46.4665 89.8312L46.3405 89.7358C46.2311 89.5844 46.2576 89.6206 46.1714 89.4429L46.0454 89.3475L45.8631 89.0645L45.7636 88.9592L45.6641 88.8473L45.4818 88.5709L45.3558 88.4754L45.1735 88.2056L45.0773 88.0871L44.9779 87.9884L44.8817 87.8732L44.7889 87.6955L44.6828 87.6001L44.5767 87.5047L44.4043 87.2118L44.2916 87.1164L44.1955 87.0045L44.1026 86.8367C43.9634 86.8367 43.9998 86.8696 43.9998 86.7281L43.8871 86.6326L43.7147 86.3398L43.5921 86.241L43.3268 85.8527L43.2008 85.754C43.0616 85.4743 43.1014 85.573 42.929 85.3558C42.7931 85.1847 42.7699 85.1321 42.6439 84.9708L42.5179 84.8754L42.3521 84.5825L42.2228 84.4871L42.0338 84.2205L41.941 84.0988L41.8349 84L41.6526 83.7105L41.5465 83.615L41.4437 83.5064L41.268 83.2234L41.142 83.128C40.8768 82.6739 41.0326 79.9557 41.0326 79.2351L41.1586 66.6217L41.1354 63.1171L41.0625 62.3109L40.9365 62.1364L40.8668 61.7185C40.7177 61.7185 40.7641 61.7514 40.774 61.5869L40.7541 61.4553L40.658 61.3302V61.2611L40.5618 61.1361V61.067L40.4657 60.9419V60.8728L40.3795 60.7445L40.29 60.626L40.2867 60.5536L40.1839 60.4549L40.0877 60.3364L40.0015 60.162L39.8888 60.0666L39.7794 59.9711L39.2025 59.3953L39.1064 59.29L39.0103 59.1781L38.7152 59.0168L38.619 58.8984H38.5362C38.387 58.9049 38.4234 58.9411 38.4234 58.7931L37.8333 58.5199L37.714 58.4212L37.578 58.4048C37.4089 58.4146 37.4388 58.464 37.4388 58.3126H37.3758L37.21 58.2336L36.9912 58.2106L36.8254 58.1316L36.7028 58.1185C36.537 58.1218 36.3679 58.1876 36.3679 58.0197L36.0298 58.0527L34.8329 58.0132L34.4682 58C34.3489 58.1645 34.5113 58.0954 34.1931 58.125V58.0888Z" fill="#02345D" stroke="#02345D"/>
<path fill-rule="evenodd" clip-rule="evenodd" d="M110.082 63.673L110.198 62.9626C110.192 62.7949 110.142 62.8245 110.288 62.8245L110.374 62.5483L110.487 62.4332L110.573 62.2556L110.682 62.1602L110.782 62.0615L110.881 61.9629L110.981 61.8642L111.077 61.7557L111.263 61.6735L111.369 61.5584L111.654 61.4729C111.654 61.3347 111.624 61.3775 111.777 61.3808L111.883 61.3906L112.085 61.2854L113.05 61.2722L113.246 61.3808L113.398 61.3841L113.561 61.463L114.002 61.6702L114.108 61.7655C114.247 61.7655 114.211 61.7327 114.211 61.8708L114.489 62.1569L114.615 62.2523L114.688 62.4496L114.801 62.5515V62.6239L114.897 62.7456C115.146 63.5316 115.122 64.0939 115.185 64.9654C115.272 65.1233 115.199 64.8142 115.265 65.1759C115.272 65.2088 115.282 65.3568 115.282 65.3601C115.291 65.4752 115.291 65.6133 115.308 65.7449L115.282 66.4289C115.335 66.5144 115.335 66.4585 115.368 66.6361C115.374 66.669 115.384 66.817 115.384 66.817C115.394 66.9189 115.388 67.0899 115.398 67.2083L115.361 67.945C115.55 68.1029 115.48 68.3627 115.49 68.6685V69.4118L115.58 69.734C115.59 69.8163 115.58 70.0366 115.583 70.132L115.59 70.8785C115.729 71.158 115.676 71.214 115.679 71.602L115.686 72.3486C115.772 72.5097 115.699 72.194 115.769 72.5656C115.769 72.5656 115.782 72.7399 115.782 72.7498C115.789 72.8583 115.786 72.9997 115.795 73.1247L115.782 73.8186C115.829 73.8975 115.839 73.8614 115.872 74.0258C115.875 74.0488 115.885 74.1771 115.888 74.2067C115.895 74.3086 115.888 74.473 115.895 74.5914L115.882 75.2788C115.931 75.3577 115.938 75.3215 115.971 75.4827C115.981 75.5254 115.984 75.6142 115.988 75.6636C115.994 75.7622 115.988 75.9365 115.991 76.0549L116.359 82.0206C116.525 82.2015 116.459 82.4218 116.495 82.7573L116.455 83.4873C116.634 83.6616 116.565 83.8951 116.588 84.2174L116.548 84.9574C116.747 85.1317 116.668 85.4145 116.658 85.7237L116.681 86.4241L116.77 86.753C116.78 86.8681 116.76 87.0786 116.754 87.197L116.784 88.1441C116.767 88.3908 116.827 88.5749 116.648 88.667L116.674 88.9992C116.638 89.3873 116.654 89.1834 116.555 89.2656L116.571 89.4826L116.469 89.6931L116.475 89.8707L116.349 90.0384L116.193 90.6764L116.054 90.8277L115.693 91.7189L115.583 91.8242L115.401 92.209L115.278 92.3043L115.112 92.597L114.986 92.6957C114.884 92.8404 114.904 92.8174 114.817 92.9884L114.691 93.0837L114.522 93.3797L114.396 93.4751L114.227 93.7711L114.101 93.8665L113.929 94.1591L113.803 94.2545L113.63 94.5472L113.524 94.6426L113.428 94.7577L113.335 94.9353L113.229 95.0306L113.136 95.1523L113.04 95.3201L112.934 95.4187L112.841 95.5371L112.745 95.6982L112.642 95.8068L112.546 95.9186L112.456 96.0962L112.334 96.1948L112.165 96.4875L112.042 96.5829L111.873 96.8756L111.747 96.9743L111.578 97.267L111.452 97.3623C111.346 97.5136 111.369 97.4774 111.283 97.6583L111.157 97.7537L110.971 98.0431L110.871 98.145C110.871 98.2864 110.908 98.2536 110.769 98.2536L110.676 98.4246L110.576 98.5331L110.474 98.6449L110.374 98.8061L110.281 98.9245L110.178 99.0264L110.082 99.1974L109.986 99.3158L109.88 99.4112L109.79 99.5954L109.691 99.7039L109.585 99.8025L109.412 100.095L109.286 100.191L109.114 100.483L108.991 100.579C108.852 100.868 108.434 101.361 108.235 101.651L108.109 101.746L107.94 102.039L107.814 102.134L107.731 102.328L107.632 102.427L107.526 102.529L107.436 102.71L107.337 102.815C107.337 102.96 107.373 102.927 107.234 102.927L107.052 103.206L106.926 103.302L106.753 103.594L106.647 103.69L106.548 103.802L106.458 103.982L106.352 104.078L106.259 104.2L106.163 104.367L106.06 104.469L105.967 104.588L105.868 104.749L105.765 104.861L105.666 104.969L105.573 105.143L105.47 105.249L105.37 105.351L105.284 105.541L105.158 105.637L104.989 105.929L104.863 106.025C104.661 106.321 104.246 106.804 104.107 107.097L103.984 107.192L103.812 107.488L103.686 107.584L103.514 107.876L103.391 107.972L103.205 108.241L103.112 108.36L103.006 108.455L102.834 108.748L102.708 108.843L102.535 109.136L102.409 109.231L102.237 109.524L102.111 109.619L101.942 109.912L101.816 110.007C101.71 110.224 101.491 110.487 101.355 110.688L101.229 110.787L101.06 111.079L100.934 111.175L100.765 111.468L100.642 111.566L100.553 111.747L100.456 111.856C100.456 111.997 100.493 111.964 100.354 111.964L100.257 112.129L100.165 112.247C100.165 112.385 100.201 112.352 100.062 112.352L99.9623 112.517C99.9689 112.668 100.009 112.638 99.8728 112.638L99.7667 112.734L99.6738 112.908L99.581 113.026L99.4749 113.122L99.392 113.312L99.2958 113.437L99.3091 113.526L99.1731 113.674L99.2792 115.957C99.4516 116.075 99.3853 116.243 99.3953 116.532L99.382 117.121C99.5544 117.242 99.4848 117.404 99.4948 117.693L99.4815 118.285C99.6506 118.41 99.5843 118.568 99.5942 118.857L99.581 119.449C99.6506 119.551 99.6373 119.449 99.6738 119.643C99.6904 119.732 99.6904 119.919 99.6937 120.018L99.6804 120.61C99.7434 120.705 99.7368 120.623 99.7733 120.807C99.7899 120.893 99.7899 121.084 99.7932 121.179L99.7799 121.771C99.8363 121.86 99.8363 121.797 99.8728 121.972C99.8893 122.057 99.8893 122.245 99.896 122.34L99.8827 122.932C99.9291 123.011 99.9391 122.971 99.9722 123.139C99.9888 123.221 99.9888 123.412 99.9954 123.507C99.9988 124.04 100.005 123.675 99.886 123.817L89.8556 123.83L80.7635 123.807C80.2495 123.797 80.6342 123.82 80.4816 123.682L80.4717 122.846C80.4186 122.758 80.412 122.823 80.3822 122.639C80.3722 122.577 80.3722 122.425 80.3689 122.36C80.3457 120.86 80.4352 119.051 80.359 117.598L80.3954 112.388C80.1733 112.283 80.2628 107.745 80.2827 107.143L80.2794 102.539C80.2794 102.46 80.2661 102.309 80.2827 102.23C80.3192 102.049 80.3059 102.111 80.3689 102.016L80.3789 101.671C80.3722 101.286 80.3755 101.453 80.475 101.358L80.4584 101.141L80.5778 100.871L80.5679 100.677L80.6673 100.464L80.6574 100.286L80.7801 100.112L80.7569 99.9999L80.8597 99.7894L80.9624 99.5789L81.0387 99.1843L81.1813 99.0428L81.2509 98.7206L81.3471 98.6022L81.4631 98.2601C81.4532 98.1023 81.4101 98.1352 81.5593 98.1352V98.0628C81.5494 97.9115 81.5096 97.9411 81.6488 97.9411L81.7417 97.8195V97.7504L81.8378 97.6221V97.5564L81.9506 97.4544L82.0235 97.2571L82.1329 97.142C82.3054 96.8296 82.5209 96.55 82.7265 96.2869C82.8591 96.1192 82.9453 95.9975 83.0713 95.8495C83.2902 95.5963 83.267 95.6982 83.4062 95.4056L83.509 95.3102L83.6052 95.2115L83.7113 95.1096L83.897 94.83L83.9964 94.7248L84.0959 94.6261C84.0959 94.4847 84.0595 94.5143 84.1987 94.5143L84.3977 94.2611L84.4905 94.1394L84.5867 94.0408L84.6928 93.9454C84.8088 93.7809 84.8519 93.7448 84.9614 93.554L85.0774 93.4587L85.1868 93.3633L85.4587 92.9719L85.5682 92.8766L85.671 92.7713L85.8633 92.5016L85.9628 92.3898L86.0622 92.2912L86.1683 92.1958L86.4369 91.8044L86.553 91.7091L86.6624 91.6137L86.931 91.2223L87.0404 91.127L87.1531 91.0316C87.2758 90.7685 87.246 90.8409 87.4217 90.6402L87.5477 90.5449C87.7367 90.3278 87.9921 89.9891 88.1877 89.7359C88.3137 89.5747 88.4099 89.4892 88.5524 89.3182C88.7116 89.1275 88.695 89.0847 88.8873 88.8874L89.0133 88.792L89.1924 88.4993L89.2952 88.4006L89.3913 88.302L89.4975 88.2L89.6865 87.9238L89.7859 87.8153L89.8854 87.7166C89.8854 87.5752 89.8489 87.6081 89.9882 87.6081L90.1871 87.3516C90.1805 87.2003 90.1407 87.2299 90.2767 87.2299L90.3762 87.1312L90.4789 87.0227L90.668 86.7432L90.7707 86.6412L90.8702 86.5425L90.9664 86.4274L91.1653 86.1742L91.2615 86.0591L91.361 85.9604L91.4638 85.8585L91.6528 85.5855L91.7522 85.4737L91.8517 85.3751L91.9578 85.2797L92.2264 84.8883L92.3391 84.793L92.4519 84.6976C92.5646 84.4838 92.5845 84.4838 92.7205 84.3062L92.8299 84.2109L92.9327 84.1122L93.115 83.8195L93.2411 83.7241L94.6801 81.9713L94.8061 81.8759C94.9553 81.6884 95.3698 81.1918 95.4693 80.9978L95.582 80.9024L95.6948 80.8071L95.9667 80.4157L96.0728 80.3203L96.169 80.2217C96.169 80.0803 96.1325 80.1131 96.2717 80.1131L96.4607 79.8402L96.5635 79.7382L96.663 79.6396L96.7625 79.5245C96.9382 79.3041 97.0311 79.1989 97.3527 79.0608L97.4655 78.9621C98.1717 78.7944 98.1983 78.7878 98.9078 78.9588L99.0272 79.0575L99.2096 79.143L99.3057 79.2515C99.6373 79.4094 99.4715 79.3074 99.6838 79.6429C99.8363 79.6429 99.7998 79.6034 99.7965 79.7547V79.827C99.9391 79.827 99.896 79.7941 99.8927 79.952L99.9059 80.0934L99.9888 80.2579L99.9921 81.08L99.9092 81.2412L99.896 81.3826L99.7998 81.501C99.6241 81.8364 99.3687 82.0535 99.2229 82.3659L99.1134 82.4613L99.0073 82.5632L98.9078 82.7277C98.9178 82.8789 98.9576 82.8493 98.8183 82.8493L98.7122 82.9447L98.5298 83.2341L98.427 83.3328L98.3276 83.4479L98.2347 83.6156L98.1353 83.7208L98.0258 83.8162L97.8534 84.1089L97.7274 84.2043L97.5483 84.4805L97.4489 84.5923L97.3461 84.691L97.2566 84.8752L97.1538 84.9804L97.0576 85.0824L96.9681 85.204L96.8686 85.3652L96.7625 85.4704L96.6531 85.5658C96.5536 85.7664 96.3182 86.0723 96.1888 86.2498L96.0628 86.3452L95.8937 86.6379L95.771 86.7366L95.5058 87.1246L95.3798 87.22L95.2107 87.5127L95.0847 87.6081L94.9122 87.9041L94.7896 87.9994L94.6039 88.2757L94.5077 88.3908L94.4049 88.496L94.3054 88.6572L94.2126 88.7789L94.1164 88.8775L94.017 88.9926L93.9274 89.1702L93.8213 89.2656L93.7285 89.384L93.5428 89.6536L93.4168 89.749L93.2344 90.0285L93.1316 90.1404L93.0322 90.2456L92.9426 90.4265L92.8365 90.5284L92.7205 90.6238C92.6309 90.8047 92.6608 90.7652 92.5514 90.9165L92.4253 91.0119C92.2363 91.4065 91.8152 91.7716 91.5765 92.1826L91.4538 92.2813L91.3643 92.4589L91.2681 92.5707L91.1554 92.6661L90.983 92.9621L90.8768 93.0574L90.7707 93.1594L90.5983 93.4488L90.4723 93.5442L90.3032 93.8401L90.1905 93.9355L90.0943 94.0506L89.9948 94.2085L89.8954 94.3203L89.7959 94.4288L89.6135 94.7116L89.4875 94.807L89.3184 95.0997L89.2057 95.1951V95.2707C89.2123 95.422 89.2521 95.3891 89.1095 95.3891V95.468L89.0299 95.6358C88.9404 96.3132 88.9968 96.425 89.2057 96.9512L89.3184 97.0499C89.4975 97.3558 89.3018 97.1617 89.6102 97.3327L89.7064 97.4347L89.8224 97.5268H89.9053L90.0015 97.6353H90.0844C90.2336 97.6287 90.1971 97.5925 90.1971 97.7405L90.7873 98.0135L90.9067 98.1121L91.046 98.1286C91.2151 98.1154 91.1852 98.0694 91.1852 98.2174H91.2449L91.4074 98.3029L91.5334 98.3259L91.6892 98.4048L91.8285 98.4213L91.9843 98.5002L92.1468 98.5035L92.359 98.6054L92.548 98.5989C92.8664 98.6285 92.6939 98.5528 92.8067 98.7206L93.0454 98.691C93.1383 98.6942 93.2377 98.7041 93.3306 98.7206C93.3505 98.7238 93.3936 98.7732 93.4068 98.7502C93.4201 98.7271 93.4533 98.7732 93.4765 98.7863L94.2756 98.8126L94.5442 98.8061L95.4096 98.8094C95.4295 98.7962 95.4527 98.7502 95.466 98.7699C95.4759 98.7896 95.5124 98.7403 95.529 98.7337C95.6318 98.7041 95.6683 98.6975 95.7777 98.691L96.0628 98.6975C96.1557 98.5824 95.8805 98.5923 96.3381 98.6219L96.9316 98.5002L97.0974 98.418L97.2234 98.4016L97.3958 98.3226H97.4555C97.4555 98.1713 97.4223 98.2207 97.5948 98.2305L97.7175 98.2141L97.8667 98.1286H97.9429C97.9429 97.9872 97.9131 98.0299 98.0656 98.0332L98.1386 98.0299C98.1386 97.8885 98.1054 97.928 98.2613 97.9346H98.3375C98.3375 97.7931 98.3044 97.8326 98.4536 97.8392H98.5365C98.5365 97.7011 98.5033 97.7372 98.6492 97.7438H98.7321L98.8415 97.6419L99.2262 97.4544L99.3223 97.3459L99.6174 97.1716L99.7136 97.0499L99.9988 96.869L100.108 96.7704L100.208 96.675L100.307 96.5763L100.407 96.4777L100.506 96.379L100.606 96.2803L100.705 96.1817L100.805 96.083L100.904 95.9844L101.01 95.889L101.192 95.6062L101.292 95.5009L101.401 95.4056L101.587 95.1326L101.683 95.0175L101.786 94.9155L101.968 94.6294L102.074 94.5341L102.164 94.4091L102.263 94.2479L102.366 94.146L102.476 94.0473L102.655 93.7645L102.758 93.656L102.87 93.5606C103.026 93.2317 103.152 93.2219 103.335 92.8766L103.461 92.7812C103.593 92.6167 103.606 92.5641 103.726 92.3898L103.852 92.2945C103.988 92.0971 104.23 91.811 104.329 91.6203L104.429 91.5183L104.538 91.423L104.711 91.127L104.82 91.0316L104.923 90.9264L105.022 90.7652L105.115 90.6435L105.211 90.5449C105.211 90.4035 105.175 90.4363 105.314 90.4363L105.404 90.2555L105.506 90.1568L105.613 90.0614L105.798 89.7786L105.898 89.6734L105.994 89.5583L106.18 89.282L106.306 89.1866L106.481 88.9038L106.584 88.7986L106.687 88.7032L106.866 88.4105L106.975 88.3151L107.068 88.1968C107.224 87.9337 107.37 87.8514 107.552 87.5357L107.675 87.4403C107.798 87.2792 107.824 87.2233 107.96 87.0556C108.126 86.8451 108.093 86.9273 108.235 86.6609L108.361 86.5623L108.54 86.2696L108.643 86.1742L108.753 86.0788L108.922 85.7829L109.034 85.6875C109.034 85.5428 108.998 85.5757 109.134 85.5757L109.23 85.4079L109.33 85.2961L109.442 85.2008L109.615 84.9081L109.724 84.8127L109.827 84.714L109.92 84.5364L110.016 84.4213L110.105 84.2964V84.224L110.202 84.099L110.185 83.9149L110.188 79.2778L110.228 74.1705C109.92 73.8745 110.105 69.7735 110.119 69.0303L110.109 63.9164C110.102 63.9098 109.767 63.6598 110.102 63.6598L110.082 63.673ZM111.322 58.1644L111.2 58.1776L111.034 58.2565L110.815 58.2795L110.649 58.3585H110.586C110.586 58.5065 110.616 58.4604 110.447 58.4506L110.311 58.467L110.192 58.5657L109.601 58.8386C109.601 58.9866 109.638 58.9504 109.489 58.9439H109.406L109.31 59.0622L109.015 59.2234L108.918 59.3352L108.822 59.4404L108.245 60.016L108.136 60.1113L108.023 60.2067L107.937 60.381L107.841 60.4994L107.738 60.5981L107.735 60.6704L107.645 60.7888L107.559 60.9171V60.9861L107.463 61.1111V61.1802L107.367 61.3051V61.3742L107.27 61.4992L107.251 61.6307C107.26 61.7951 107.307 61.7623 107.158 61.7623L107.088 62.1799L106.962 62.3542L106.889 63.16L106.863 66.6624L106.989 79.1726C106.989 79.8928 107.131 82.7277 106.879 83.1618L106.753 83.2571L106.577 83.54L106.478 83.6485L106.372 83.7439L106.189 84.0333L106.083 84.1319L105.991 84.2536L105.802 84.52L105.672 84.6154L105.506 84.9081L105.38 85.0034C105.254 85.1613 105.231 85.2172 105.095 85.3882C104.923 85.6053 104.963 85.5033 104.823 85.7861L104.697 85.8848L104.432 86.2729L104.309 86.3715L104.137 86.6642L104.024 86.7596C104.024 86.901 104.061 86.8681 103.921 86.8681L103.829 87.0358L103.732 87.1477L103.62 87.243L103.447 87.5357L103.341 87.6311L103.235 87.7265L103.142 87.9041L103.046 88.0192L102.947 88.1178L102.85 88.2362L102.668 88.5059L102.542 88.6013L102.36 88.8775L102.26 88.9893L102.161 89.0946L101.978 89.3774L101.852 89.4728C101.763 89.6536 101.793 89.6142 101.683 89.7655L101.557 89.8608L101.289 90.2489L101.166 90.3475C100.984 90.5942 100.755 90.8672 100.609 91.127L100.486 91.2256L100.31 91.515L100.201 91.6104L100.092 91.7091C99.9888 91.8538 100.009 91.8275 99.9225 92.0018L99.8064 92.0971L99.7003 92.2024L99.6108 92.3865L99.508 92.4885L99.3986 92.5839L99.2262 92.8766L99.1134 92.9719L99.014 93.0805L98.9145 93.2416L98.8183 93.36L98.7188 93.4554L98.6227 93.5705L98.5232 93.7349L98.4237 93.8467L98.3243 93.9454L98.2248 94.044L98.1253 94.1427L98.0258 94.2414L97.9164 94.34L97.6346 94.5308L97.5384 94.6426L97.3461 94.7248L97.2433 94.8399L97.0443 94.9123L96.9449 95.0208H96.8587L96.7393 95.1161H96.673C96.673 95.2707 96.7028 95.2115 96.5105 95.1951L96.4011 95.2214L96.2452 95.3036L96.1623 95.3003L95.9534 95.399L95.8009 95.4056L95.5887 95.5075L95.3532 95.4779C95.1808 95.6325 95.3964 95.5799 94.9885 95.5996L93.8744 95.5799C93.629 95.593 93.7981 95.593 93.6356 95.5733C93.6091 95.57 93.5693 95.5799 93.5494 95.547C93.5328 95.5174 93.503 95.5207 93.4798 95.5075L93.2046 95.4976C93.2941 95.1721 93.1814 95.422 93.3206 95.2115L93.4234 95.103L93.5196 94.9912L93.7053 94.7149L93.8313 94.6196C93.9937 94.2874 94.1164 94.2874 94.2955 93.9355L94.4215 93.8401C94.5409 93.6626 94.5508 93.6165 94.6868 93.4488L94.8128 93.3534C94.9951 93.0081 95.1245 93.0015 95.277 92.6694L95.403 92.574L95.5887 92.2977L95.6848 92.1826L95.7876 92.0774L95.8871 91.9163C95.8805 91.765 95.8407 91.7946 95.9766 91.7946L96.0728 91.6959L96.1756 91.5874L96.2651 91.4032L96.3679 91.3046L96.4641 91.1862L96.6464 90.9132L96.7724 90.8178L96.9449 90.5251L97.0543 90.4298L97.1538 90.3245L97.2466 90.1502L97.3494 90.0417L97.4522 89.943L97.6346 89.6504L97.744 89.555L97.8335 89.4333L97.9297 89.2689L98.0557 89.1669C98.238 88.9203 98.4668 88.6473 98.6127 88.3875L98.7387 88.2921C98.9012 88.0192 99.1134 87.7725 99.2991 87.5127L99.4218 87.414L99.5909 87.1213L99.7169 87.026L99.886 86.7333L99.9988 86.6379L100.098 86.5228L100.198 86.3617L100.294 86.2466L100.393 86.138L100.576 85.8552L100.682 85.7598L100.778 85.6414L100.871 85.4639L100.977 85.3685L101.083 85.2731L101.255 84.9804L101.381 84.885L101.561 84.6022L101.663 84.4937L101.763 84.3852L101.852 84.201L101.978 84.1056C102.104 83.9478 102.363 83.6156 102.443 83.4216L102.559 83.3229V83.2538C102.549 83.096 102.509 83.1289 102.658 83.1289L102.738 82.9348L102.834 82.8132L102.85 82.6718L102.933 82.5238V82.4514L103.026 82.3264L103.039 82.1817L103.139 81.968L103.132 81.7772L103.248 81.5141L103.225 81.0866L103.218 80.2217L103.245 79.7941L103.126 79.531L103.136 79.3403L103.039 79.1233L102.933 78.7714L102.847 78.63L102.661 78.1662C102.509 78.1662 102.549 78.2024 102.552 78.0511V77.9854L102.439 77.8801L102.36 77.6927L102.237 77.5874C101.958 77.2224 101.819 76.9231 101.372 76.7192L101.275 76.614L101.173 76.5087L100.98 76.4265L100.884 76.318L100.685 76.2424L100.569 76.1371H100.49L100.373 76.0385L100.264 76.0516L100.128 75.9135L100.025 75.9299L99.8628 75.8477L99.7202 75.8346L99.508 75.7359L99.3157 75.7458C98.9244 75.7129 99.1234 75.726 99.0438 75.6241L97.3925 75.6504L97.0675 75.7523L96.8719 75.7392L96.6564 75.8411L96.5072 75.851L96.3513 75.9365H96.285C96.285 76.0878 96.3148 76.0352 96.1292 76.0187L95.4859 76.3213L95.3864 76.4331L95.1974 76.5153L95.0913 76.6173L94.9918 76.7192L94.2159 77.4954L94.1098 77.5907L94.0103 77.6894L93.9142 77.8078L93.7218 78.0774L93.6157 78.1761L93.5163 78.2748L93.4234 78.3932L93.2278 78.6497L93.125 78.7615L93.0255 78.8602L92.926 78.9621L92.7404 79.2449L92.6342 79.3436L92.5348 79.4423L92.4287 79.5376C92.2927 79.8237 92.3159 79.7284 92.0905 79.975C91.9048 80.1789 91.918 80.2019 91.7622 80.4157L91.6395 80.5111L91.2748 81.0011L91.1487 81.0998C90.9597 81.3037 90.9531 81.376 90.7707 81.5865C90.5287 81.8594 90.5386 81.7476 90.3894 82.0732L90.2767 82.1686L90.1639 82.264L89.892 82.6553L89.7859 82.7507L89.6898 82.8493L89.5837 82.9513L89.4112 83.2407L89.2952 83.3361L89.1858 83.4314L88.9139 83.8228L88.8011 83.9182L88.6884 84.0135L88.4165 84.4049L88.3104 84.5003L88.2109 84.5989L88.1181 84.7173L87.9224 84.9804L87.8196 85.0824L87.7202 85.181L87.624 85.2961L87.4284 85.5559L87.3289 85.6677L87.2294 85.7664L87.1266 85.8651L86.9442 86.1545L86.8348 86.2498L86.7353 86.3485L86.6458 86.4702L86.4502 86.7267C86.4369 86.8681 86.4767 86.8319 86.3275 86.8319L85.9628 87.3187L85.8367 87.414C85.6577 87.6147 85.6411 87.7034 85.472 87.9041L85.3493 88.0027C85.1769 88.1869 85.1636 88.2559 85.0144 88.4335C84.832 88.6539 84.8088 88.6111 84.6762 88.8676L84.5767 88.9729L84.4773 89.0715C84.4773 89.213 84.5137 89.1801 84.3745 89.1801L84.1788 89.4399C84.1855 89.5879 84.2252 89.5583 84.086 89.5583L83.9865 89.6569L83.8804 89.7523C83.7411 89.9332 83.7279 89.92 83.6118 90.1437L83.4958 90.239L83.3863 90.3344L83.1144 90.7258L83.005 90.8211L82.8923 90.9165L82.6237 91.3079L82.5176 91.4032L82.4181 91.5019L82.3219 91.6203L82.1396 91.8899L82.0268 91.9853L81.9174 92.0807L81.6455 92.472L81.5361 92.5674L81.42 92.6628C81.3007 92.8996 81.3007 92.8667 81.1514 93.0541L81.0453 93.1495L80.9459 93.2482L80.853 93.3666L80.6574 93.6297C80.6441 93.7711 80.6839 93.7349 80.5347 93.7349C80.3457 93.9421 79.8251 94.6228 79.6858 94.9024L79.5598 95.001L79.4803 95.1951L79.3675 95.2905L79.2946 95.4878L79.1851 95.6062V95.6818L79.0724 95.7772L78.9995 95.9745L78.89 96.0929V96.162L78.7906 96.2869V96.3527L78.6944 96.481V96.5467L78.5817 96.652L78.4988 96.9348L78.4026 97.0598V97.1288L78.3064 97.2538V97.3262L78.2103 97.4511L78.1075 97.8162L78.0113 97.9378L77.9948 98.0858C78.0047 98.247 78.0478 98.2141 77.9052 98.2141L77.9152 98.3128L77.7925 98.4772L77.8124 98.5989L77.6897 98.7666L77.7162 98.8916L77.5902 99.056L77.2122 100.901C77.2056 101.207 77.2686 101.056 77.1094 101.22L77.1326 101.539C77.1293 101.575 77.1127 101.786 77.1094 101.805C77.0232 102.121 77.0962 101.881 77.0199 102.009L77.0365 102.808L77.0398 104.69L77 109.899C77.262 110.076 77.1161 114.473 77.1161 115.151L77.1227 120.363C77.3448 120.784 77.2122 124.895 77.2155 125.458L77.3117 126.013C77.4543 126.013 77.4112 125.984 77.4112 126.142L77.4974 126.319L77.6068 126.415L77.7063 126.513L77.8058 126.612L77.9019 126.724L78.3496 126.911L78.6413 126.98L102.118 127L102.333 126.901L102.406 126.905L102.525 126.809H102.608L102.711 126.701L103 126.431C103.01 126.29 102.973 126.326 103.119 126.326L103.298 125.849L103.308 124.737L103.295 124.198C103.192 124.096 103.235 124.185 103.205 123.988C103.189 123.866 103.202 123.701 103.205 123.576L103.195 123.034C103.099 122.935 103.136 123.014 103.109 122.82C103.092 122.702 103.106 122.531 103.106 122.409L103.092 121.87C103.056 121.804 103.029 121.814 103.006 121.653C102.99 121.537 103.003 121.366 103.003 121.245L102.993 120.705C102.9 120.525 102.966 120.89 102.91 120.485C102.894 120.373 102.903 120.199 102.903 120.081L102.894 119.538C102.821 119.39 102.864 119.693 102.811 119.314C102.794 119.206 102.804 119.028 102.801 118.913L102.791 118.37C102.734 118.255 102.758 118.492 102.711 118.147C102.698 118.045 102.701 117.861 102.701 117.749C102.668 117.15 102.618 116.572 102.562 115.957C102.506 115.335 102.343 114.74 102.592 114.352L102.718 114.256L102.887 113.964L103.013 113.868C103.116 113.654 103.341 113.382 103.474 113.184L103.6 113.089C103.792 112.691 104.163 112.428 104.356 112.017L104.478 111.921L104.651 111.625L104.777 111.53L104.949 111.234L105.055 111.139L105.158 111.033L105.244 110.846L105.351 110.751L105.447 110.635L105.54 110.461L105.642 110.359L105.739 110.241L105.838 110.08L105.937 109.971L106.037 109.859L106.133 109.695L106.233 109.583L106.332 109.478L106.422 109.294L106.528 109.192L106.63 109.093L106.713 108.899L106.839 108.804C107.098 108.425 107.41 107.991 107.688 107.633L107.814 107.534L107.904 107.353L108 107.245C108 107.103 107.963 107.136 108.106 107.136L108.202 106.972L108.295 106.853L108.401 106.752L108.501 106.587C108.494 106.436 108.451 106.465 108.59 106.462L108.696 106.367L108.789 106.192L108.882 106.074L108.988 105.979L109.16 105.686L109.286 105.591L109.459 105.298L109.585 105.203L109.757 104.91L109.883 104.815L110.052 104.522L110.178 104.426C110.265 104.252 110.245 104.282 110.348 104.137L110.474 104.038L110.639 103.746L110.765 103.647L110.934 103.354L111.057 103.259L111.226 102.966L111.349 102.868L111.442 102.693L111.538 102.581L111.654 102.486L111.826 102.19L111.933 102.095L112.039 101.993L112.125 101.802L112.228 101.703L112.327 101.588L112.42 101.414L112.523 101.312L112.619 101.197L112.718 101.036L112.818 100.924L112.917 100.815L113.013 100.651L113.113 100.536L113.216 100.434L113.305 100.253L113.408 100.148L113.511 100.052L113.594 99.8584L113.7 99.7598L113.806 99.6644C113.932 99.4013 114.23 99.056 114.413 98.8159C114.612 98.5528 114.93 98.1845 115.063 97.9115L115.169 97.8162L115.275 97.7175L115.358 97.5235L115.464 97.4281L115.57 97.3327L115.739 97.0368L115.865 96.9414L116.038 96.6487L116.164 96.5533L116.336 96.2606L116.462 96.1652L116.634 95.8726L116.76 95.7772L116.93 95.4845L117.036 95.3891L117.125 95.2641L117.225 95.103L117.331 94.9978L117.424 94.8827L117.516 94.7116L117.639 94.6097L117.808 94.317L117.931 94.2216L118.004 94.0243L118.127 93.9289L118.199 93.7316L118.312 93.6264V93.554C118.309 93.406 118.272 93.4422 118.422 93.4422L118.594 93.0509L118.707 92.9522V92.8831C118.7 92.7253 118.657 92.7582 118.803 92.7582L118.806 92.6891L118.892 92.5477L119.098 91.9985C119.095 91.8472 119.052 91.8768 119.194 91.8768L119.284 91.4953L119.406 91.3276L119.387 91.2125L119.509 91.0382L119.579 90.6139L119.688 90.4035L119.675 90.216L119.801 89.943L119.778 89.7424L119.874 89.4234L119.881 89.0748C119.877 88.815 119.814 88.7197 120 88.6013L119.993 86.6215C119.811 86.411 119.881 86.1939 119.877 85.8453L119.904 85.158C119.708 84.9475 119.781 84.7239 119.781 84.372L119.397 78.4557C119.324 78.3471 119.347 78.4589 119.307 78.2583C119.3 78.2254 119.29 78.0807 119.29 78.0774C119.284 77.9788 119.29 77.788 119.284 77.6762V76.9363L119.194 76.2128L119.191 75.4662C119.178 75.4432 119.161 75.4169 119.158 75.3972L119.105 74.7394L119.098 73.9929C119.058 73.9205 119.045 73.9403 119.015 73.7791C119.009 73.7462 119.002 73.6015 119.002 73.595C118.995 73.4897 118.999 73.3384 118.992 73.2168L119.005 72.5229C118.956 72.4373 118.952 72.49 118.916 72.3157C118.912 72.3025 118.902 72.1578 118.899 72.1348C118.893 72.0328 118.899 71.8651 118.896 71.75L118.909 71.0594C118.856 70.9772 118.853 71.0265 118.816 70.8588C118.81 70.8193 118.803 70.7239 118.8 70.6779C118.793 70.5792 118.803 70.3984 118.8 70.2833L118.82 69.5926C118.64 69.3756 118.71 69.1684 118.703 68.8165L118.322 62.9857L118.199 62.6107L118.226 62.397C118.097 62.3279 118.12 62.5351 118.13 62.1832L118.136 61.9892L118.017 61.8215L117.921 61.4465L117.825 61.3282V61.2525L117.729 61.1308V61.0552L117.632 60.9335L117.45 60.5487L117.331 60.4468L117.235 60.2824L117.145 60.1607L117.046 60.062L116.939 59.9633L116.26 59.2957L116.164 59.1872L116.064 59.0918L115.384 58.7071L115.278 58.6018H115.202C115.049 58.6051 115.079 58.6479 115.079 58.5065H115.003L114.85 58.421L114.22 58.2203L114.005 58.1151L113.826 58.125C113.508 58.0954 113.67 58.1611 113.551 58L113.186 58.0132L111.989 58.0526L111.651 58.0197C111.548 58.1611 111.608 58.1381 111.316 58.1184L111.322 58.1644Z" fill="#02345D" stroke="#02345D"/>
<rect x="2" y="2" width="146" height="146" rx="23" stroke="#02345D" stroke-width="4"/>
</svg>
