<svg width="150" height="150" viewBox="0 0 150 150" fill="none" xmlns="http://www.w3.org/2000/svg">
<path fill-rule="evenodd" clip-rule="evenodd" d="M69.961 90.394C68.3155 90.008 67.4028 89.3826 65.4024 89.9875C63.7677 90.4818 62.6872 91.2888 62.0317 92.3376C60.6156 91.6581 58.6272 90.0573 55.5402 91.3863C52.4327 92.7237 52.4352 94.8729 51.6782 96.0804C48.9945 95.4333 47.4178 94.9354 45.0443 96.7695C43.196 98.1983 42.5935 99.9242 42.6008 103.163C42.608 106.021 42.5875 108.881 42.602 111.738C42.6117 113.797 42.3847 118.421 44.623 118.559C47.4467 118.733 46.0029 114.573 45.9787 112.188C45.9485 109.256 45.9847 106.315 45.9751 103.382C45.9703 101.982 45.928 100.576 46.6862 99.727C47.297 99.0438 48.6359 98.5688 49.8673 99.0234C52.9833 100.174 50.5772 104.075 52.3338 105.376C53.3261 106.112 54.6239 105.549 54.9523 104.636C55.8747 102.066 53.2887 94.4195 57.8558 94.2848C61.0007 94.1922 60.8498 97.2362 60.8413 99.8641C60.8365 101.31 60.5769 103.008 61.6478 103.576C62.8466 104.211 64.0285 103.508 64.1939 102.251C64.4849 100.031 63.5758 95.8807 64.8096 94.2619C66.3102 92.2919 69.4528 92.9125 69.8922 95.5392C70.2326 97.5705 69.5856 102.677 70.0854 104.172C70.456 105.281 71.8842 105.618 72.7631 104.829C73.5973 104.081 73.3365 102.231 73.3365 100.965C73.3329 95.1748 73.3365 89.385 73.3365 83.5952C73.3365 80.7159 72.7667 77.8186 75.4553 77.1668C76.8231 76.8348 77.9108 77.4795 78.4915 78.2083C79.2944 79.2162 79.0831 80.6654 79.0807 82.0545C79.0698 87.8443 79.0843 93.6341 79.0807 99.4239L79.1036 112.583C79.2763 113.779 80.4195 114.544 81.6377 113.894C82.9657 113.185 82.4574 107.927 82.4574 106.019C82.4574 98.9524 82.8232 85.2297 82.4308 79.6239C82.0711 74.4932 76.6227 71.8785 72.2295 75.0452C70.3884 76.3718 69.9562 78.5246 69.961 81.6143C69.9658 84.5405 69.9646 87.4679 69.9598 90.3928L69.961 90.394Z" fill="#02345D" stroke="#02345D"/>
<path fill-rule="evenodd" clip-rule="evenodd" d="M44.5582 121.83C44.6633 123.018 46.1434 125.439 46.747 126.322C51.739 133.612 56.4329 134.936 65.3606 134.936C75.8239 134.936 81.5065 136.017 86.9501 129.287C92.5373 122.38 91.4375 114.032 92.5747 107.833C92.9538 105.766 94.0174 104.532 94.1406 102.511C94.2697 100.401 93.4126 98.5664 92.2898 97.4407C88.7694 93.9108 83.1593 95.0678 83.5227 97.6656C83.8462 99.9687 86.6181 98.303 88.3022 98.7805C89.8813 99.2267 91.2166 100.928 90.6479 103.072C90.2338 104.633 89.5759 104.755 89.0688 108.326C88.7682 110.441 88.8721 112.458 88.6511 114.566C87.8241 122.447 84.9315 129.518 78.2831 131.206C75.3736 131.945 68.2942 131.579 64.9187 131.579C59.7444 131.579 57.5846 131.583 53.8831 129.108C51.43 127.468 49.4102 124.729 47.9398 121.397C46.8025 118.821 44.4001 120.025 44.5582 121.83Z" fill="#02345D" stroke="#02345D"/>
<path fill-rule="evenodd" clip-rule="evenodd" d="M32.6924 26.5549C38.7081 25.4929 43.3646 29.8142 44.1819 34.7669C45.1417 40.5819 40.9669 45.2448 36.1101 46.0915C30.0484 47.1474 25.3136 42.8731 24.5131 37.9059C23.5449 31.896 27.7341 27.4292 32.6911 26.5549H32.6924ZM21 34.6947V38.049C21.8849 39.8651 21.8898 43.2399 25.4995 46.3452C27.611 48.1613 31.1483 49.8259 35.1322 49.5985C42.0269 49.2041 47.7602 43.4588 47.7023 36.322C47.6443 29.1443 42.1163 23.4314 35.1322 23.0454C31.2774 22.8325 27.448 24.4874 25.5103 26.3095L24.0001 27.8742C23.5002 28.5225 23.1465 29.0805 22.6781 29.8551C21.3598 32.0307 21.4165 33.7482 21.0012 34.6935L21 34.6947Z" fill="#02345D" stroke="#02345D"/>
<path fill-rule="evenodd" clip-rule="evenodd" d="M87.2282 38.5206C86.1586 43.2147 81.4068 47.3435 75.2703 46.0013C70.5233 44.9634 66.3969 40.1021 67.7575 34.0742C68.8368 29.2971 73.6707 25.3486 79.7251 26.6487C84.3706 27.647 88.5949 32.5239 87.2282 38.5206ZM74.9504 23.3088C67.3108 24.9854 62.8995 31.943 64.4146 38.9944C65.7752 45.323 72.03 51.0455 80.2056 49.334C86.6065 47.9942 92.1599 41.7426 90.5555 33.628C89.3361 27.4593 82.8374 21.5781 74.9492 23.3088H74.9504Z" fill="#02345D" stroke="#02345D"/>
<path fill-rule="evenodd" clip-rule="evenodd" d="M134 37.8843V35.1517C133.054 32.679 133.8 31.3728 130.579 27.4148C129.204 25.725 126.416 23.9558 123.251 23.2871C116.254 21.8078 110.412 26.3035 108.433 30.8533C105.535 37.5162 108.654 44.1118 112.669 47.0187C116.315 49.6575 121.627 50.5571 126.104 48.4644C127.568 47.7788 128.395 45.8136 126.631 45.1654C125.297 44.6759 121.645 47.317 117.141 45.6441C107.572 42.0913 108.94 28.075 119.083 26.5091C125.658 25.4941 131.199 30.9242 130.572 37.3226C130.422 38.8536 129.899 40.2848 129.186 41.413C128.46 42.5615 127.506 44.5532 129.63 44.9056C132.468 45.3771 133.508 38.9883 134 37.883V37.8843Z" fill="#02345D" stroke="#02345D"/>
<path fill-rule="evenodd" clip-rule="evenodd" d="M75.8651 63.3384C67.3804 64.6445 62.8822 72.0976 64.4383 79.2272C64.8077 80.9218 66.1635 85.5245 68.4621 84.0657C70.3612 82.8606 67.803 80.0703 67.5712 77.4364C66.5245 65.5742 83.3115 62.4291 86.9345 73.3123C87.7771 75.844 87.549 78.8953 86.4359 81.0661C85.9506 82.0115 85.021 83.1324 84.4535 83.7049C84.1264 84.0344 83.594 84.4289 83.4612 84.9593C83.2716 85.7146 83.565 86.4554 84.0322 86.7753C85.7924 87.9853 88.3156 84.4722 89.0279 83.2021C94.5837 73.3027 86.3139 61.728 75.8663 63.336L75.8651 63.3384Z" fill="#02345D" stroke="#02345D"/>
<path fill-rule="evenodd" clip-rule="evenodd" d="M44.8337 48.7435L57.9796 61.2684C58.9153 62.1308 59.6686 63.0616 60.609 63.9204C61.2163 64.4736 62.6469 65.971 63.2735 66.339C64.6824 67.164 66.2892 65.9349 65.7085 64.3666L50.0165 48.972C49.3103 48.325 48.045 46.996 47.346 46.5582C45.6305 45.4818 44.6345 46.8421 44.8325 48.7447L44.8337 48.7435Z" fill="#02345D" stroke="#02345D"/>
<path fill-rule="evenodd" clip-rule="evenodd" d="M106.984 46.6989C105.795 47.2389 106.467 46.8721 105.547 47.7669L101.328 51.4881C99.5133 53.3366 97.7894 54.6367 95.9386 56.4444C94.601 57.7517 88.2061 63.0869 87.7896 63.9625C87.0858 65.4418 88.6118 66.8694 90.0086 66.1682L94.1567 62.5854C94.6952 62.1356 94.968 61.7471 95.4871 61.2829L109.07 48.853C109.724 47.3833 108.416 46.0483 106.984 46.6989Z" fill="#02345D" stroke="#02345D"/>
<path fill-rule="evenodd" clip-rule="evenodd" d="M75.8127 54.1315V58.9688C75.8127 62.3351 79.1858 62.3327 79.1858 58.9688C79.1858 55.5892 79.8583 51.7514 77.4993 51.7466C76.0735 51.7442 75.8115 52.8326 75.8115 54.1315H75.8127Z" fill="#02345D" stroke="#02345D"/>
<rect x="2" y="2" width="146" height="146" rx="23" stroke="#02345D" stroke-width="4"/>
</svg>
