<svg width="150" height="150" viewBox="0 0 150 150" fill="none" xmlns="http://www.w3.org/2000/svg">
<path fill-rule="evenodd" clip-rule="evenodd" d="M33.4135 60.7306C33.6589 60.2733 34.7729 59.2742 35.2051 58.8365C35.8786 58.1554 36.3345 57.8698 37.7288 57.8121C41.8461 57.6376 47.5097 60.0678 50.6747 62.5896L52.5138 64.2993C52.9753 64.7764 53.6585 65.7586 54.067 66.3918C56.415 70.021 58.7169 73.5925 60.7178 77.5102C61.0858 78.2293 61.5697 79.234 62.0995 79.6801C62.8148 80.2824 63.9999 80.2725 64.7263 79.7153C65.3022 79.2748 78.4098 65.9415 78.9257 65.4237C88.3581 55.9433 97.782 46.2448 107.239 36.8461C110.893 33.2141 115.562 37.2443 114.12 40.9734C113.631 42.2413 111.662 43.9539 110.834 44.7912L94.8875 60.8868C94.3298 61.4483 93.6131 62.0858 93.1363 62.6852C91.5301 64.7046 94.168 67.8384 96.5913 65.5123C99.1303 63.075 103.822 65.2449 103.27 69.1697C102.917 71.6717 100.053 73.0817 99.4831 74.3468C99.2837 74.7872 99.2237 75.3304 99.3729 75.8595C99.6099 76.6968 100.296 77.3751 101.279 77.4764C102.531 77.6059 102.955 76.8403 103.623 76.3675C104.335 75.8637 105.353 75.5696 106.424 75.6977C108.218 75.9116 109.739 77.4511 109.928 79.3086C110.299 82.9561 106.201 83.9482 105.947 86.1603C105.742 87.9587 107.856 89.7501 109.898 87.8616C112.121 85.8071 115.714 87.0342 116.452 89.8697C117.105 92.3801 115.489 93.7803 114.511 94.771L93.2562 116.208C91.1522 118.339 88.9785 120.927 84.917 122.058C80.716 123.229 76.5568 122.272 73.5061 120.258C71.9947 119.261 70.8891 118.041 69.7667 116.901L55.6384 102.63C54.6791 101.668 54.4267 101.626 54.0963 100.621L46.1182 76.4815C45.8142 75.557 45.5479 74.7141 45.2342 73.8064C44.8076 72.5709 44.8243 72.2261 44.0198 71.4676L40.4853 67.9018C39.2722 66.6789 38.1749 65.5545 36.9605 64.326L33.4121 60.7334L33.4135 60.7306ZM115.146 46.7979C116.479 45.4512 118.102 43.9834 118.628 41.2C119.643 35.8146 115.772 31.4734 111.065 31.0343C109.674 30.9049 108.352 31.1511 107.168 31.6141C106.231 31.98 104.89 32.8398 104.443 33.3675C103.709 34.2371 103.004 34.8647 102.237 35.6443L82.0127 56.0573C81.8746 56.1966 64.4823 73.9331 63.9553 74.1835L61.546 69.9197C59.0474 65.7234 56.9448 61.786 53.0464 58.7901C50.6914 56.9804 47.6491 55.4029 44.314 54.3729C41.0862 53.3752 36.3429 52.566 33.4748 54.4657C32.8502 54.8795 32.2297 55.6126 31.7473 56.0995C31.1826 56.6666 30.6862 57.1732 30.1202 57.7417C29.0326 58.8337 27.2187 60.1382 28.3675 61.9268C28.7677 62.5487 37.2171 70.9456 38.1345 71.8729L40.6024 74.3566C40.9036 74.6789 40.9301 74.9139 41.1057 75.443L49.2707 100.142C49.5439 100.953 49.8172 101.789 50.0849 102.605C50.5172 103.923 50.6092 103.822 51.3719 104.592C55.7499 109.012 60.0666 113.352 64.4363 117.777C65.7204 119.078 68.0154 121.508 69.3902 122.725C75.256 127.923 84.6283 128.464 91.3851 123.89C93.3691 122.546 94.755 120.934 96.4854 119.185C96.6778 118.989 97.7751 117.99 97.8099 117.763L97.8043 117.607C98.4206 117.382 98.5851 117.065 98.9504 116.698L114.154 101.354C115.643 99.8496 119.106 96.6862 120.043 94.9103C122.104 91.0081 120.742 85.8324 116.863 83.6343C115.441 82.8294 114.519 82.9054 113.858 82.6C114.104 80.9395 114.512 80.3288 114.204 78.339C113.85 76.0636 112.489 73.8092 110.607 72.6835C109.519 72.0333 108.639 71.7505 107.231 71.4789C107.217 71.1693 107.528 70.1589 107.596 69.6594C107.687 68.9938 107.691 68.2803 107.622 67.595C107.492 66.3299 107.117 65.2787 106.567 64.2796C105.787 62.8583 104.56 61.7297 103.129 61.0838C102.857 60.9614 102.633 60.8545 102.339 60.7531C102.118 60.6786 101.806 60.6096 101.621 60.4506L115.151 46.7993L115.146 46.7979Z" fill="#02345D"/>
<path fill-rule="evenodd" clip-rule="evenodd" d="M66.7728 22.1184C64.8251 22.6743 65.0043 24.1656 65.0043 26.0942L65.0028 37.2936C65.0028 38.9358 66.1613 40.4539 68.2646 39.874C70.151 39.3548 69.997 37.7902 69.997 35.8799L69.9985 24.682C70.0033 22.6263 68.436 21.6416 66.7712 22.1184H66.7728Z" fill="#02345D"/>
<path fill-rule="evenodd" clip-rule="evenodd" d="M46.8698 29.0454C45.2281 29.3693 44.1175 31.2532 45.9406 32.941C47.1375 34.0503 48.2583 35.0943 49.4538 36.2078C50.6316 37.3049 51.7422 38.3325 52.9186 39.4296C54.2852 40.7036 55.5085 42.3071 57.1911 41.9491C58.6572 41.6388 59.9639 39.8529 58.0208 38.0412L51.0428 31.5513C49.6337 30.2473 48.51 28.7201 46.8683 29.044L46.8698 29.0454Z" fill="#02345D"/>
<path fill-rule="evenodd" clip-rule="evenodd" d="M87.3457 29.069C86.4081 29.3193 86.0296 29.9438 85.5167 30.458L78.2318 37.7621C78.0256 37.9688 77.5819 38.347 77.4137 38.5742C76.2522 40.1414 77.7054 42.4201 79.6782 41.9331C80.4801 41.7358 81.0256 40.9903 81.4652 40.5509L87.9346 34.0644C88.4203 33.5801 89.115 32.9802 89.5614 32.4306C90.7867 30.9151 89.2507 28.5629 87.3444 29.0704L87.3457 29.069Z" fill="#02345D"/>
<rect x="2" y="2" width="146" height="146" rx="23" stroke="#02345D" stroke-width="4"/>
</svg>
