<svg width="150" height="150" viewBox="0 0 150 150" fill="none" xmlns="http://www.w3.org/2000/svg">
<path fill-rule="evenodd" clip-rule="evenodd" d="M33.9228 74.9647C33.9361 75.5768 34.0389 79.9864 33.8134 80.1081L33.8532 85.2186L33.8565 89.8585L33.8399 90.0428L33.9361 90.1679V90.2403L34.0256 90.3653L34.1217 90.4805L34.2146 90.6582L34.3173 90.7569L34.4268 90.8523L34.5992 91.1452L34.7119 91.2407L34.8113 91.3525L34.9075 91.5204C35.0467 91.5204 35.0069 91.4875 35.0069 91.6322L35.1197 91.7277L35.2887 92.0238L35.3982 92.1193L35.5009 92.2147L35.68 92.5076L35.8059 92.6063C35.9452 92.8729 35.912 92.7906 36.0811 93.0012C36.217 93.1723 36.2436 93.2283 36.3662 93.3862L36.4922 93.4816C36.6746 93.7975 36.8204 93.8798 36.9763 94.1431L37.0691 94.2615L37.1785 94.357L37.3575 94.6498L37.4603 94.7453L37.5631 94.8506L37.7388 95.1336L37.8648 95.229L38.0504 95.5054L38.1466 95.6206L38.246 95.7259L38.4317 96.0089L38.5378 96.1043L38.6439 96.2031L38.7334 96.3841C38.8726 96.3841 38.8328 96.3512 38.8362 96.4927L38.9323 96.5914L39.0251 96.7131L39.1246 96.8744L39.2274 96.9797L39.3368 97.0751L39.5092 97.3713L39.6186 97.4667L39.718 97.5687C39.8175 97.7596 40.0562 98.0492 40.1955 98.2433L40.3214 98.3387C40.4408 98.5132 40.454 98.5658 40.5867 98.7303L40.7126 98.8258C40.895 99.168 41.021 99.1812 41.1768 99.5103L41.2895 99.6057L41.3923 99.7143L41.5713 99.9973L41.6807 100.096L41.7835 100.198L41.883 100.359L41.9725 100.484L42.0786 100.58L42.2609 100.866L42.3637 100.968L42.4598 101.083L42.6455 101.356L42.7582 101.452L42.8577 101.557L43.04 101.84L43.1461 101.936L43.2456 102.034L43.345 102.133L43.4445 102.232L43.5439 102.33L43.6434 102.429L43.7429 102.528L43.8423 102.627L43.9418 102.722L44.0512 102.821L44.3363 103.002L44.4325 103.123L44.7275 103.298L44.8237 103.406L45.2083 103.594L45.3177 103.696H45.4005C45.5464 103.693 45.5133 103.653 45.5133 103.791H45.5961C45.7453 103.785 45.7122 103.749 45.7122 103.887H45.7884C45.9409 103.88 45.9111 103.841 45.9111 103.982L45.984 103.986C46.1399 103.982 46.1067 103.94 46.1067 104.081L46.4548 104.186C46.6239 104.177 46.5941 104.127 46.5941 104.279H46.6537L46.8261 104.357L46.9521 104.374L47.1179 104.456L47.7113 104.578C48.1722 104.548 47.8937 104.542 47.9898 104.654L48.2749 104.647C48.3843 104.657 48.4208 104.66 48.5236 104.69C48.5369 104.693 48.5733 104.746 48.5866 104.726C48.5965 104.706 48.6231 104.752 48.6429 104.766L49.4884 104.772L49.7271 104.746H50.5758C50.6554 104.71 50.599 104.716 50.8112 104.664C50.8344 104.657 51.0068 104.654 51.0101 104.654L51.2488 104.683C51.3615 104.515 51.1924 104.591 51.5074 104.562L51.6964 104.568L51.9086 104.466L52.071 104.463L52.2268 104.384L52.3661 104.367L52.5219 104.288L52.6479 104.265L52.8103 104.18H52.87C52.87 104.032 52.8402 104.078 53.0093 104.091L53.1485 104.074L53.2678 103.976L53.858 103.703C53.858 103.555 53.8215 103.591 53.9707 103.597H54.0536L54.1497 103.489H54.2326L54.3487 103.397L54.4448 103.295C54.7531 103.123 54.5575 103.314 54.7365 103.012L54.8493 102.913C55.0581 102.386 55.1145 102.271 55.025 101.597L54.9454 101.429V101.35C54.8029 101.35 54.8393 101.383 54.8493 101.231V101.152L54.7399 101.05L54.5675 100.764L54.4415 100.669L54.2558 100.386L54.1564 100.277L54.0569 100.165L53.9574 100.007L53.8613 99.892L53.7486 99.7965L53.5795 99.5004L53.4535 99.4049L53.2811 99.1154L53.175 99.0134L53.0689 98.9179L52.8965 98.6218L52.7838 98.5263L52.6877 98.4144L52.5982 98.2367L52.4755 98.138C52.2368 97.73 51.8157 97.3614 51.6268 96.9665L51.5008 96.8711C51.3914 96.7197 51.4212 96.7592 51.3317 96.5782L51.2157 96.4828L51.1096 96.3808L51.02 96.1998L50.9206 96.0945L50.8178 95.9826L50.6355 95.7029L50.5095 95.6074L50.3238 95.3376L50.231 95.2191L50.1249 95.1237L50.0354 94.946L49.9359 94.8308L49.8398 94.7321L49.747 94.6104L49.6475 94.4491L49.5447 94.3438L49.4486 94.2286L49.2629 93.9522L49.1369 93.8568L48.9645 93.5606L48.8386 93.4652L48.6695 93.1723L48.5435 93.0769L48.2783 92.6886L48.1523 92.5898L47.9832 92.297L47.8572 92.2015C47.7279 92.0238 47.4892 91.7211 47.3931 91.5171L47.2837 91.4216L47.1809 91.3163L47.0814 91.1551L46.9919 91.0333L46.8958 90.9313L46.793 90.826L46.7035 90.6417L46.6007 90.543L46.5012 90.4311L46.3222 90.1547L46.1962 90.0593L46.0238 89.7664L45.9144 89.671L45.815 89.5657L45.7221 89.3978L45.6227 89.2827L45.5199 89.1839L45.3375 88.8944L45.2315 88.7989C45.0922 88.7956 45.132 88.8285 45.1419 88.6772L45.0425 88.5126L44.9364 88.4106L44.827 88.3152C44.6811 88.0026 44.4225 87.7854 44.2501 87.4497L44.154 87.3313L44.1407 87.1898L44.0578 87.0285L44.0611 86.2058L44.144 86.0413L44.1606 85.8998C44.1573 85.7451 44.1142 85.7748 44.2567 85.7748V85.7024C44.2534 85.551 44.217 85.5905 44.3695 85.5905C44.5816 85.2581 44.4126 85.3568 44.7474 85.1989L44.8436 85.0903L45.0259 85.0047L45.1453 84.906C45.8547 84.7382 45.8813 84.7448 46.5874 84.9093L46.7002 85.008C47.0217 85.1462 47.1146 85.2515 47.2903 85.472L47.3897 85.5872L47.4892 85.6859L47.592 85.7879L47.781 86.061C47.9202 86.061 47.8804 86.0281 47.8837 86.1696L47.9799 86.2684L48.086 86.3638L48.3578 86.7554L48.4705 86.8508L48.5833 86.9462C48.6827 87.1404 49.0938 87.634 49.2463 87.8249L49.3723 87.9203L50.8112 89.6743L50.9372 89.7697L51.1195 90.0626L51.2223 90.1613L51.3217 90.26L51.4245 90.3653L51.6002 90.6483L51.713 90.7438L51.8257 90.8392L52.0942 91.2308L52.2003 91.3262L52.2998 91.4249L52.3992 91.5368L52.5882 91.8099L52.691 91.912L52.7904 92.0107L52.8866 92.1259L53.0855 92.3792L53.1817 92.4944L53.2811 92.5931L53.3839 92.6952L53.5729 92.9749L53.6756 93.0835L53.7751 93.1822C53.9143 93.1855 53.8712 93.1526 53.8646 93.3039L54.0635 93.5606C54.2028 93.5606 54.1663 93.5277 54.1663 93.6692L54.2658 93.7679L54.3652 93.8765L54.5542 94.1529L54.6603 94.255L54.7564 94.3537L54.8592 94.4524L55.0382 94.7453L55.1642 94.8407C55.3565 95.0382 55.3399 95.0776 55.4991 95.2718C55.6416 95.4429 55.7378 95.5285 55.8638 95.6897C56.0594 95.9398 56.318 96.2788 56.5036 96.4992L56.6296 96.5947C56.8053 96.7954 56.7755 96.7197 56.8982 96.9863L57.0109 97.0817L57.1203 97.1771L57.3888 97.5687L57.4982 97.6642L57.6143 97.7596L57.8828 98.1512L57.9889 98.2466L58.0884 98.3453L58.1878 98.4572L58.3801 98.7271L58.4829 98.8324L58.5923 98.9278L58.8642 99.3194L58.9736 99.4148L59.0896 99.5103C59.2023 99.7011 59.2421 99.7373 59.3581 99.9018L59.4642 99.9973L59.5604 100.096L59.6532 100.218L59.8521 100.471C59.9914 100.471 59.9516 100.438 59.9549 100.583L60.0544 100.682L60.1538 100.787L60.3395 101.067L60.4456 101.169L60.5417 101.268L60.6445 101.363C60.7837 101.653 60.7605 101.554 60.9793 101.807C61.1053 101.952 61.1915 102.077 61.3241 102.245C61.5297 102.508 61.7452 102.788 61.9176 103.1L62.027 103.216L62.0999 103.413L62.2126 103.515V103.581L62.3088 103.709V103.778L62.3983 103.9C62.5375 103.903 62.4978 103.87 62.4878 104.022V104.094C62.637 104.094 62.5939 104.061 62.584 104.219L62.7 104.562L62.7961 104.68L63.0813 105.542L63.184 105.753L63.2868 105.963L63.2636 106.075L63.3863 106.25L63.3763 106.427L63.4758 106.641L63.4658 106.835L63.5852 107.105L63.5653 107.322C63.6681 107.418 63.6681 107.247 63.6614 107.635L63.6714 107.981C63.7377 108.076 63.7211 108.01 63.7576 108.194C63.7742 108.273 63.7642 108.425 63.7609 108.504L63.7775 113.16C63.7079 114.654 63.7974 116.411 63.7709 117.925L63.6681 118.409L63.6614 123.631C63.678 124.237 63.7709 128.768 63.552 128.873L63.562 129.663C63.4095 129.801 63.7941 129.778 63.2802 129.788L54.1895 129.811L44.1606 129.798C44.0413 129.66 44.0479 130.022 44.0512 129.489C44.0578 129.393 44.0578 129.202 44.0744 129.12C44.1076 128.952 44.1175 128.992 44.1639 128.913L44.1507 128.321C44.1573 128.225 44.1573 128.034 44.1739 127.952C44.207 127.774 44.2103 127.837 44.2634 127.751L44.2501 127.159C44.2534 127.06 44.2534 126.873 44.27 126.787C44.3065 126.603 44.2998 126.685 44.3628 126.59L44.3496 125.997C44.3529 125.899 44.3496 125.711 44.3695 125.622C44.4059 125.428 44.396 125.53 44.4623 125.428L44.449 124.836C44.459 124.546 44.3927 124.388 44.5618 124.263L44.5485 123.671C44.5551 123.381 44.4888 123.217 44.6612 123.098L44.648 122.509C44.6579 122.22 44.5883 122.052 44.764 121.933L44.8701 119.65L44.7342 119.501L44.7474 119.413L44.6513 119.288L44.5684 119.097L44.4623 119.001L44.3695 118.883L44.2766 118.708L44.1705 118.613C44.0313 118.61 44.0711 118.643 44.0777 118.491L43.9783 118.327C43.839 118.327 43.8755 118.36 43.8755 118.221L43.7827 118.103L43.6865 117.938C43.5473 117.938 43.5837 117.971 43.5837 117.83L43.4876 117.721L43.3981 117.54L43.2754 117.441L43.1096 117.149L42.9837 117.053L42.8146 116.76L42.6886 116.662C42.5527 116.461 42.3305 116.198 42.2278 115.98L42.1018 115.885L41.9327 115.592L41.8067 115.497L41.6343 115.204L41.5083 115.108L41.3359 114.815L41.2099 114.72L41.0375 114.427L40.9315 114.332L40.8386 114.213L40.7425 114.042L40.6364 113.943L40.5303 113.848L40.3579 113.555L40.2319 113.46L40.0595 113.163L39.9369 113.068C39.7976 112.775 39.3832 112.288 39.181 111.995L39.055 111.9L38.8859 111.607L38.7599 111.512L38.6737 111.321L38.5742 111.219L38.4715 111.113L38.3786 110.939L38.2792 110.83L38.1764 110.718L38.0769 110.557L37.9841 110.439L37.8813 110.337L37.7852 110.169L37.6924 110.047L37.5863 109.952L37.4968 109.771L37.3973 109.659L37.2912 109.563L37.1188 109.271L36.9928 109.175L36.8204 108.879L36.711 108.784L36.6116 108.678L36.5221 108.497L36.416 108.395L36.3165 108.296L36.2336 108.102L36.1076 108.007L35.9386 107.714L35.8126 107.619C35.6136 107.329 35.1959 106.839 35.0567 106.546L34.9307 106.45L34.7583 106.158L34.6323 106.062L34.4599 105.769L34.3538 105.67L34.2544 105.562L34.1648 105.378L34.0588 105.282L33.9626 105.164L33.8665 104.993L33.7637 104.891L33.6709 104.772L33.5714 104.611L33.4686 104.499L33.3692 104.39L33.2763 104.219C33.1371 104.219 33.1769 104.252 33.1736 104.111L33.0741 104.009L32.9846 103.824L32.8619 103.726C32.7227 103.558 32.716 103.512 32.5967 103.334L32.4707 103.239L32.3016 102.946L32.1756 102.847L32.0066 102.554L31.8839 102.459L31.7148 102.166L31.5921 102.067L31.5026 101.889L31.4065 101.778L31.3037 101.669L31.2076 101.508L31.1147 101.389L31.0086 101.291L30.9125 101.123L30.8197 101.001L30.7136 100.906L30.6241 100.728L30.5279 100.613L30.4218 100.517L30.2494 100.224L30.1234 100.129L29.951 99.836L29.8251 99.7406L29.656 99.4444L29.5333 99.349L29.3642 99.0528L29.2382 98.9574C29.152 98.7863 29.1719 98.8093 29.0692 98.6645L28.9432 98.5658L28.7774 98.2729L28.6547 98.1775L28.4724 97.7925L28.363 97.6872L28.0016 96.7954L27.8624 96.644L27.7066 96.0056L27.5806 95.8378L27.5872 95.6601L27.4844 95.4495L27.5043 95.2323C27.4082 95.15 27.4214 95.3508 27.385 94.9658L27.4115 94.6334C27.2291 94.4656 27.2988 94.4228 27.2756 94.1102L27.3054 93.1624L27.3452 92.4648C27.3485 92.4253 27.3684 92.4154 27.3783 92.3924L27.4015 91.6915C27.3916 91.4611 27.3021 91.0202 27.5109 90.9247L27.4712 90.1843C27.4911 89.9211 27.4314 89.5492 27.6038 89.4538L27.564 88.7232C27.5971 88.4402 27.5375 88.0881 27.6999 87.9861L28.0679 82.0167C28.0878 81.4705 28.0049 81.5231 28.1806 81.2401L28.1674 80.5524C28.1939 80.0193 28.1177 80.0456 28.2768 79.7758L28.2635 79.0814C28.3 78.5845 28.2171 78.5944 28.3729 78.3081L28.3796 77.5611C28.3796 77.153 28.3332 77.1103 28.4691 76.8371L28.4757 76.0901C28.4823 75.6821 28.4326 75.659 28.5652 75.3662V74.6225C28.5752 74.4053 28.4989 73.9808 28.6945 73.8985L28.6581 73.1614C28.668 73.0265 28.6614 72.7895 28.6746 72.6776L28.7741 72.3848L28.7476 71.7003C28.7641 71.5456 28.7608 71.3515 28.7774 71.2199L28.8702 70.9204C28.9332 70.0484 28.91 69.4856 29.1587 68.6992L29.2548 68.5774V68.505L29.3675 68.403L29.4405 68.2056L29.5631 68.1101L29.8416 67.8238C29.8416 67.6856 29.8052 67.7185 29.9444 67.7185L30.0505 67.6231L30.4914 67.4158L30.6539 67.3368L30.8064 67.3335L31.002 67.2249L31.9668 67.2381L32.169 67.3434L32.2751 67.3335C32.4276 67.3302 32.3978 67.2874 32.3978 67.4256L32.6829 67.5112L32.789 67.6264L32.9746 67.7087L33.0708 67.8172L33.1702 67.916L33.2697 68.0147L33.3692 68.1134L33.4786 68.2088L33.5648 68.3865L33.6775 68.5017L33.7637 68.7781C33.9096 68.7781 33.8598 68.7485 33.8532 68.9163L33.9726 69.614C34.0024 69.6732 34.019 69.6864 34.019 69.8213C34.0157 69.9562 34.0886 69.9332 33.946 69.9332L33.9527 74.9976L33.9228 74.9647ZM30.1931 64.0888L30.014 64.079L29.7985 64.1843L28.9399 64.4706C28.9399 64.6088 28.9697 64.5693 28.8172 64.566H28.7409L28.6348 64.6713L27.9552 65.0563L27.8557 65.1518L27.7596 65.2603L27.08 65.9284L26.9739 66.0271L26.8744 66.1258L26.7849 66.2476L26.6887 66.4121L26.5694 66.5141L26.387 66.8991L26.2909 67.0209V67.0966L26.1948 67.2183V67.294L26.0986 67.4125L26.0025 67.7876L25.8831 67.9555L25.8897 68.1496C25.8997 68.5017 25.9229 68.2944 25.7936 68.3635L25.8201 68.5774L25.6941 68.9525L25.3129 74.787C25.3096 75.0799 25.3759 75.4221 25.1968 75.5636L25.2167 76.2547C25.2002 76.8371 25.2665 76.7779 25.1073 77.0313L25.1206 77.7223C25.114 77.8573 25.1239 78.0909 25.1106 78.2028L25.0112 78.4957L25.0045 79.2427L24.9515 79.9041C24.9482 79.8909 24.9283 79.9469 24.915 79.9666L24.9084 80.7103C24.9084 81.1282 24.9581 81.1644 24.8189 81.4343L24.8156 82.1813C24.8089 82.5992 24.8554 82.6255 24.7227 82.9052V83.6456C24.7161 83.774 24.7261 84.034 24.7128 84.1393C24.6763 84.4552 24.7029 84.284 24.61 84.4223L24.2254 90.3423C24.2254 90.6352 24.2984 90.9938 24.1028 91.1288L24.1293 91.8165C24.1293 92.1061 24.1956 92.4549 24.0133 92.5931L24 94.5774C24.1923 94.8078 24.116 94.7387 24.1392 95.1105L24.1326 95.4001L24.2288 95.7193L24.2056 95.9201L24.3315 96.1932L24.3183 96.3808L24.4277 96.5914L24.4973 97.0159L24.62 97.1903L24.6001 97.3055L24.7227 97.4733L24.8123 97.855C24.9515 97.855 24.9117 97.8254 24.9084 97.9768L25.114 98.5263L25.2002 98.6678L25.2035 98.7369C25.3493 98.7369 25.3062 98.704 25.2996 98.862V98.9311L25.4123 99.0298L25.5847 99.4214C25.7339 99.4214 25.6975 99.3852 25.6941 99.5333V99.6057L25.8069 99.711L25.8798 99.9084L26.0025 100.004L26.0754 100.201L26.1981 100.297L26.3672 100.59L26.4898 100.692L26.5827 100.863L26.6755 100.978L26.7816 101.083L26.881 101.244L26.9705 101.37L27.0766 101.465L27.2457 101.758L27.3717 101.853L27.5441 102.146L27.6701 102.242L27.8425 102.534L27.9685 102.63L28.1409 102.923L28.2668 103.018L28.4359 103.314L28.542 103.41C28.6813 103.413 28.6415 103.38 28.6315 103.535L28.731 103.699L28.8371 103.798L28.9432 103.894C29.0692 104.157 29.3675 104.502 29.5499 104.743C29.7488 105.009 30.0704 105.378 30.1997 105.647L30.3058 105.743L30.4119 105.842L30.4948 106.036L30.5975 106.131L30.7003 106.236L30.7898 106.417L30.8926 106.52L30.9921 106.635L31.0882 106.799L31.1877 106.908L31.2871 107.02L31.3866 107.181L31.4827 107.296L31.5855 107.398L31.6783 107.573L31.7778 107.688L31.8806 107.786L31.9668 107.977L32.0729 108.079L32.179 108.175L32.3513 108.471L32.4773 108.566L32.653 108.856L32.7757 108.955L32.9448 109.248L33.0675 109.343L33.2365 109.636L33.3625 109.735L33.5283 110.027L33.6543 110.126C33.7571 110.271 33.7372 110.245 33.8234 110.416L33.9493 110.511L34.1184 110.804L34.2444 110.899L34.4168 111.192L34.5428 111.288L34.7152 111.581L34.8412 111.676L35.0136 111.969L35.1197 112.064L35.2125 112.183L35.3053 112.357L35.4114 112.453C35.5507 112.456 35.5109 112.423 35.5009 112.578L35.6004 112.742L35.7065 112.844L35.7993 112.963L35.8955 113.127C36.0347 113.127 35.9982 113.094 36.0015 113.236L36.0977 113.344L36.1872 113.525L36.3132 113.624C36.5419 114.009 36.8967 114.404 37.1652 114.796L37.2912 114.891L37.3741 115.085L37.4769 115.184L37.583 115.286L37.6725 115.47L37.7719 115.576L37.8714 115.687L37.9675 115.852L38.067 115.964L38.1665 116.072L38.2659 116.234L38.3621 116.352L38.4648 116.454L38.5577 116.629L38.6538 116.744L38.7599 116.839L38.8461 117.027L38.9489 117.132L39.055 117.228L39.2274 117.524L39.3534 117.619L39.5258 117.915L39.6484 118.011C39.7777 118.287 40.212 118.81 40.4043 119.084L40.5303 119.179C40.6662 119.376 40.8884 119.65 40.9911 119.863L41.1171 119.959L41.2862 120.252L41.4122 120.347C41.7072 120.805 41.442 121.89 41.4056 122.588C41.3989 122.878 41.4652 123.023 41.2796 123.164L41.3028 123.743C41.3028 123.855 41.3061 124.036 41.2928 124.141C41.2431 124.487 41.2663 124.253 41.2133 124.365L41.2033 124.908C41.2033 125.023 41.2099 125.201 41.1934 125.31C41.1403 125.688 41.1867 125.385 41.1105 125.533L41.1005 126.076C41.1005 126.191 41.1105 126.369 41.0939 126.481C41.0375 126.886 41.1039 126.521 41.011 126.702L41.0011 127.241C41.0011 127.36 41.0143 127.534 40.9978 127.649C40.9746 127.811 40.948 127.801 40.9116 127.866L40.8983 128.406C40.8983 128.528 40.9116 128.699 40.895 128.817C40.8685 129.008 40.9049 128.933 40.8088 129.031L40.7988 129.574C40.8022 129.699 40.8154 129.861 40.7988 129.986C40.7723 130.183 40.8121 130.098 40.7093 130.196L40.6961 130.736L40.706 131.848L40.885 132.325C41.0309 132.325 40.9944 132.289 41.0044 132.431L41.2928 132.701L41.3956 132.809H41.4785L41.5978 132.905L41.6708 132.901L41.8863 133L65.3589 132.98L65.6507 132.911L66.0982 132.724L66.1944 132.612L66.2938 132.513L66.3933 132.414L66.5027 132.319L66.5889 132.141C66.5889 131.983 66.5425 132.013 66.6884 132.013L66.6817 131.934L66.7878 131.72L66.7845 131.457C66.7878 130.894 66.6552 126.781 66.8773 126.359L66.884 121.144C66.884 120.466 66.7381 116.069 67 115.888L66.9602 110.676L66.9635 108.793L66.9801 107.994C66.9039 107.865 66.9735 108.102 66.8906 107.79C66.8873 107.773 66.8707 107.559 66.8674 107.523L66.8906 107.204C66.7315 107.039 66.7944 107.191 66.7878 106.885L66.4132 105.039L66.2872 104.874L66.3137 104.749L66.1911 104.581L66.2109 104.46L66.0883 104.295L66.0982 104.196C65.9524 104.196 65.9988 104.226 66.0087 104.068L65.9921 103.92L65.896 103.798L65.7932 103.433L65.6971 103.308V103.235L65.6009 103.11V103.041L65.5048 102.916L65.4219 102.633L65.3092 102.528V102.462L65.213 102.334V102.268L65.1136 102.143V102.074L65.0042 101.955L64.9312 101.758L64.8185 101.662V101.587L64.7091 101.468L64.6362 101.271L64.5234 101.175L64.4439 100.981L64.3179 100.882C64.1786 100.599 63.6581 99.9183 63.4692 99.7143C63.32 99.7143 63.3598 99.7538 63.3465 99.609L63.1509 99.3457L63.0581 99.2272L62.9586 99.1285L62.8525 99.0331C62.7033 98.8455 62.7033 98.8784 62.584 98.6415L62.4679 98.5461L62.3585 98.4506L62.0867 98.059L61.9773 97.9636L61.8645 97.8682L61.6789 97.5983L61.586 97.4799L61.4866 97.3812L61.3805 97.2857L61.112 96.8941L60.9992 96.7987L60.8898 96.7033L60.618 96.3117L60.5086 96.2162L60.3958 96.1208C60.2765 95.897 60.2665 95.9102 60.1273 95.7292L60.0212 95.6338L59.9217 95.5351C59.7825 95.5318 59.8256 95.5647 59.8289 95.4166L59.6333 95.1566C59.4941 95.1566 59.5305 95.1895 59.5272 95.048L59.4311 94.9493L59.3316 94.844C59.199 94.5873 59.1758 94.6301 58.9935 94.4096C58.8443 94.2319 58.831 94.1628 58.6586 93.9785L58.5326 93.8798C58.3635 93.6791 58.347 93.5902 58.1679 93.3895L58.0453 93.2941L57.6806 92.807C57.5314 92.807 57.5712 92.8465 57.5579 92.7017L57.3623 92.4451L57.2728 92.3233L57.1733 92.2246L57.0639 92.1291L56.8816 91.8396L56.7788 91.7408L56.6793 91.6421L56.5799 91.5302L56.3843 91.2703L56.2881 91.1551L56.1887 91.0564L56.0859 90.9544L55.8903 90.6911L55.7975 90.5726L55.698 90.4739L55.5919 90.3785L55.32 89.9869L55.2073 89.8915L55.0979 89.796L54.8261 89.4044L54.7167 89.309L54.6006 89.2136L54.4282 88.924L54.3221 88.822L54.226 88.7232L54.1199 88.6278L53.848 88.2362L53.7353 88.1408L53.6226 88.0454C53.4734 87.7196 53.4833 87.8315 53.2413 87.5583C53.0557 87.351 53.049 87.2753 52.8634 87.0713L52.7374 86.9726L52.3727 86.4823L52.25 86.3868C52.0942 86.1729 52.1075 86.1499 51.9218 85.9459C51.6964 85.6991 51.7196 85.7945 51.5837 85.5082L51.4776 85.4128L51.3781 85.3141L51.272 85.2153L51.0864 84.9323L50.9869 84.8303L50.8874 84.7316L50.7847 84.6197L50.5891 84.363L50.4962 84.2446L50.3968 84.1458L50.2907 84.0471L50.0984 83.7773L50.0022 83.6588L49.9061 83.5601L49.8 83.4647L49.0242 82.688L48.9248 82.586L48.8187 82.484L48.6297 82.4018L48.5302 82.2899L47.887 81.9871C47.7014 82.0036 47.7312 82.0562 47.7312 81.9049H47.6649L47.5091 81.8193L47.3599 81.8094L47.1444 81.7074L46.9488 81.7206L46.6239 81.6186L44.9729 81.5922C44.89 81.6942 45.0889 81.6778 44.701 81.7107L44.512 81.7008L44.2998 81.7995L44.1573 81.8127L43.9948 81.895L43.8921 81.8785L43.7561 82.0167L43.6467 82.0036L43.5307 82.1023H43.4511L43.3351 82.2076L43.1362 82.2833L43.04 82.3919L42.8477 82.4741L42.745 82.5795L42.6488 82.6848C42.2012 82.8888 42.062 83.1882 41.7835 83.5535L41.6608 83.6588L41.5813 83.8464L41.4685 83.9517V84.0175C41.4719 84.1689 41.5116 84.1327 41.3591 84.1327L41.1735 84.5967L41.0873 84.7382L40.9812 85.0903L40.885 85.3075L40.895 85.4983L40.7756 85.7616L40.8022 86.1894L40.7955 87.0548L40.7723 87.4826L40.8884 87.7459L40.8817 87.9368L40.9812 88.1507L40.9944 88.2955L41.0873 88.4205V88.4929L41.1702 88.641L41.1867 88.7825L41.2829 88.9042V88.9799L41.389 89.0984L41.4619 89.2925L41.5779 89.3913C41.7305 89.7532 42.0819 90.0297 42.2543 90.3554L42.3537 90.464L42.4565 90.5726L42.6355 90.8556L42.7615 90.9511L42.9339 91.2439L43.04 91.3394L43.1461 91.4348L43.2389 91.6125L43.3351 91.731L43.4412 91.8264L43.6268 92.1094L43.7263 92.218L43.8224 92.3332L43.9219 92.4944L44.0214 92.6096L44.1341 92.705L44.3032 92.9979L44.4291 93.0933L44.5982 93.3862L44.7242 93.4849C44.9066 93.7449 45.1221 93.9917 45.2812 94.2648L45.4072 94.3603C45.553 94.6202 45.7818 94.8934 45.9641 95.1402L46.0901 95.2422L46.1863 95.4067L46.2758 95.5285L46.3852 95.6239L46.5675 95.9168L46.6703 96.0155L46.7731 96.1241L46.8659 96.2985L46.9654 96.4038L47.0748 96.4992L47.2472 96.7921L47.3732 96.8875L47.5555 97.1607L47.6517 97.2791L47.7544 97.3779L47.8439 97.5621L47.9467 97.6707L48.0462 97.7695C48.1854 97.7727 48.1456 97.7398 48.1357 97.8912L48.2352 98.0525L48.3379 98.1578L48.4341 98.2729L48.6197 98.5494L48.7457 98.6448C48.8982 98.9739 49.0275 98.9804 49.2099 99.3293L49.3359 99.4247C49.4718 99.5925 49.4817 99.6386 49.6011 99.8163L49.7271 99.9117C49.9061 100.261 50.0288 100.261 50.1912 100.596L50.3172 100.692L50.5029 100.968L50.599 101.08L50.7018 101.189C50.8675 101.406 50.725 101.139 50.8178 101.475L50.5426 101.481C50.5194 101.495 50.4929 101.514 50.473 101.521C50.4498 101.527 50.41 101.541 50.3868 101.547C50.3039 101.567 50.2642 101.56 50.1481 101.554L49.0342 101.574C48.6264 101.551 48.8419 101.603 48.6695 101.452L48.4341 101.481L48.2219 101.379L48.076 101.37L47.9136 101.291L47.7776 101.274L47.6185 101.195L47.5091 101.169C47.3168 101.185 47.3466 101.241 47.3466 101.09H47.2803L47.161 100.994H47.0748L46.9753 100.886L46.7764 100.813L46.6736 100.698L46.4813 100.616L46.3852 100.504L46.1034 100.313L45.994 100.214L45.8945 100.116L45.7951 100.017L45.6956 99.9183L45.5961 99.8196L45.4967 99.7077L45.3972 99.5432L45.3011 99.428L45.2016 99.3326L45.1055 99.2141L45.006 99.0528L44.9066 98.9442L44.7938 98.8488L44.6214 98.5559L44.512 98.4605L44.4093 98.3585L44.3197 98.1742L44.2136 98.0689L44.0976 97.9735C44.0114 97.8024 44.0313 97.8254 43.9285 97.6806L43.8191 97.5819L43.713 97.4865L43.5373 97.1969L43.4146 97.0981C43.2655 96.8382 43.04 96.565 42.8577 96.3182L42.735 96.2195L42.4665 95.8312L42.3405 95.7358C42.2311 95.5844 42.2576 95.6206 42.1714 95.4429L42.0454 95.3475L41.8631 95.0645L41.7636 94.9592L41.6641 94.8473L41.4818 94.5709L41.3558 94.4754L41.1735 94.2056L41.0773 94.0871L40.9779 93.9884L40.8817 93.8732L40.7889 93.6955L40.6828 93.6001L40.5767 93.5047L40.4043 93.2118L40.2916 93.1164L40.1955 93.0045L40.1026 92.8367C39.9634 92.8367 39.9998 92.8696 39.9998 92.7281L39.8871 92.6326L39.7147 92.3398L39.5921 92.241L39.3268 91.8527L39.2008 91.754C39.0616 91.4743 39.1014 91.573 38.929 91.3558C38.7931 91.1847 38.7699 91.1321 38.6439 90.9708L38.5179 90.8754L38.3521 90.5825L38.2228 90.4871L38.0338 90.2205L37.941 90.0988L37.8349 90L37.6526 89.7105L37.5465 89.615L37.4437 89.5064L37.268 89.2234L37.142 89.128C36.8768 88.6739 37.0326 85.9557 37.0326 85.2351L37.1586 72.6217L37.1354 69.1171L37.0625 68.3109L36.9365 68.1364L36.8668 67.7185C36.7177 67.7185 36.7641 67.7514 36.774 67.5869L36.7541 67.4553L36.658 67.3302V67.2611L36.5618 67.1361V67.067L36.4657 66.9419V66.8728L36.3795 66.7445L36.29 66.626L36.2867 66.5536L36.1839 66.4549L36.0877 66.3364L36.0015 66.162L35.8888 66.0666L35.7794 65.9711L35.2025 65.3953L35.1064 65.29L35.0103 65.1781L34.7152 65.0168L34.619 64.8984H34.5362C34.387 64.9049 34.4234 64.9411 34.4234 64.7931L33.8333 64.5199L33.714 64.4212L33.578 64.4048C33.4089 64.4146 33.4388 64.464 33.4388 64.3126H33.3758L33.21 64.2336L32.9912 64.2106L32.8254 64.1316L32.7028 64.1185C32.537 64.1218 32.3679 64.1876 32.3679 64.0197L32.0298 64.0527L30.8329 64.0132L30.4682 64C30.3489 64.1645 30.5113 64.0954 30.1931 64.125V64.0888Z" fill="#02345D" stroke="#02345D"/>
<path fill-rule="evenodd" clip-rule="evenodd" d="M109.544 69.673L109.654 68.9626C109.648 68.7949 109.6 68.8245 109.74 68.8245L109.822 68.5483L109.929 68.4332L110.011 68.2556L110.116 68.1602L110.211 68.0615L110.306 67.9629L110.4 67.8642L110.492 67.7557L110.669 67.6735L110.77 67.5584L111.042 67.4729C111.042 67.3347 111.014 67.3775 111.159 67.3808L111.26 67.3906L111.453 67.2854L112.373 67.2722L112.56 67.3808L112.705 67.3841L112.86 67.463L113.281 67.6702L113.382 67.7655C113.515 67.7655 113.48 67.7327 113.48 67.8708L113.745 68.1569L113.866 68.2523L113.935 68.4496L114.043 68.5515V68.6239L114.134 68.7456C114.371 69.5316 114.349 70.0939 114.409 70.9654C114.492 71.1233 114.422 70.8142 114.485 71.1759C114.492 71.2088 114.501 71.3568 114.501 71.3601C114.51 71.4752 114.51 71.6133 114.526 71.7449L114.501 72.4289C114.552 72.5144 114.552 72.4585 114.583 72.6361C114.59 72.669 114.599 72.817 114.599 72.817C114.608 72.9189 114.602 73.0899 114.612 73.2083L114.577 73.945C114.757 74.1029 114.691 74.3627 114.7 74.6685V75.4118L114.786 75.734C114.795 75.8163 114.786 76.0366 114.789 76.132L114.795 76.8785C114.928 77.158 114.877 77.214 114.88 77.602L114.887 78.3486C114.969 78.5097 114.899 78.194 114.966 78.5656C114.966 78.5656 114.978 78.7399 114.978 78.7498C114.985 78.8583 114.982 78.9997 114.991 79.1247L114.978 79.8186C115.023 79.8975 115.032 79.8614 115.064 80.0258C115.067 80.0488 115.076 80.1771 115.08 80.2067C115.086 80.3086 115.08 80.473 115.086 80.5914L115.073 81.2788C115.121 81.3577 115.127 81.3215 115.159 81.4827C115.168 81.5254 115.171 81.6142 115.174 81.6636C115.181 81.7622 115.174 81.9365 115.178 82.0549L115.529 88.0206C115.687 88.2015 115.623 88.4218 115.658 88.7573L115.62 89.4873C115.791 89.6616 115.725 89.8951 115.747 90.2174L115.709 90.9574C115.898 91.1317 115.823 91.4145 115.813 91.7237L115.835 92.4241L115.921 92.753C115.93 92.8681 115.911 93.0786 115.905 93.197L115.933 94.1441C115.917 94.3908 115.974 94.5749 115.804 94.667L115.829 94.9992C115.794 95.3873 115.81 95.1834 115.715 95.2656L115.731 95.4826L115.633 95.6931L115.639 95.8707L115.519 96.0384L115.37 96.6764L115.238 96.8277L114.893 97.7189L114.789 97.8242L114.615 98.209L114.498 98.3043L114.34 98.597L114.22 98.6957C114.122 98.8404 114.141 98.8174 114.058 98.9884L113.938 99.0837L113.777 99.3797L113.657 99.4751L113.496 99.7711L113.375 99.8665L113.211 100.159L113.091 100.255L112.927 100.547L112.825 100.643L112.734 100.758L112.645 100.935L112.544 101.031L112.455 101.152L112.364 101.32L112.263 101.419L112.174 101.537L112.082 101.698L111.984 101.807L111.893 101.919L111.807 102.096L111.69 102.195L111.529 102.488L111.412 102.583L111.251 102.876L111.131 102.974L110.969 103.267L110.849 103.362C110.748 103.514 110.77 103.477 110.688 103.658L110.568 103.754L110.391 104.043L110.296 104.145C110.296 104.286 110.331 104.254 110.198 104.254L110.109 104.425L110.015 104.533L109.917 104.645L109.822 104.806L109.733 104.924L109.635 105.026L109.544 105.197L109.452 105.316L109.351 105.411L109.265 105.595L109.17 105.704L109.069 105.803L108.905 106.095L108.785 106.191L108.62 106.483L108.503 106.579C108.371 106.868 107.972 107.361 107.783 107.651L107.662 107.746L107.501 108.039L107.381 108.134L107.302 108.328L107.207 108.427L107.106 108.529L107.021 108.71L106.926 108.815C106.926 108.96 106.961 108.927 106.828 108.927L106.654 109.206L106.534 109.302L106.369 109.594L106.268 109.69L106.173 109.802L106.088 109.982L105.987 110.078L105.898 110.2L105.807 110.367L105.709 110.469L105.62 110.588L105.525 110.749L105.427 110.861L105.332 110.969L105.244 111.143L105.146 111.249L105.051 111.351L104.969 111.541L104.849 111.637L104.687 111.929L104.567 112.025C104.374 112.321 103.979 112.804 103.846 113.097L103.729 113.192L103.565 113.488L103.445 113.584L103.28 113.876L103.163 113.972L102.986 114.241L102.898 114.36L102.797 114.455L102.632 114.748L102.512 114.843L102.348 115.136L102.228 115.231L102.063 115.524L101.943 115.619L101.782 115.912L101.662 116.007C101.56 116.224 101.352 116.487 101.222 116.688L101.102 116.787L100.941 117.079L100.821 117.175L100.659 117.468L100.542 117.566L100.457 117.747L100.365 117.856C100.365 117.997 100.4 117.964 100.267 117.964L100.176 118.129L100.087 118.247C100.087 118.385 100.122 118.352 99.9891 118.352L99.8943 118.517C99.9006 118.668 99.9385 118.638 99.8089 118.638L99.7077 118.734L99.6192 118.908L99.5307 119.026L99.4295 119.122L99.3505 119.312L99.2588 119.437L99.2714 119.526L99.1418 119.674L99.243 121.957C99.4074 122.075 99.3442 122.243 99.3536 122.532L99.341 123.121C99.5054 123.242 99.439 123.404 99.4485 123.693L99.4358 124.285C99.5971 124.41 99.5339 124.568 99.5433 124.857L99.5307 125.449C99.5971 125.551 99.5844 125.449 99.6192 125.643C99.635 125.732 99.635 125.919 99.6382 126.018L99.6255 126.61C99.6856 126.705 99.6793 126.623 99.7141 126.807C99.7299 126.893 99.7299 127.084 99.733 127.179L99.7204 127.771C99.7741 127.86 99.7741 127.797 99.8089 127.972C99.8247 128.057 99.8247 128.245 99.831 128.34L99.8184 128.932C99.8627 129.011 99.8721 128.971 99.9038 129.139C99.9196 129.221 99.9196 129.412 99.9259 129.507C99.9291 130.04 99.9354 129.675 99.8216 129.817L90.2576 129.83L81.5884 129.807C81.0984 129.797 81.4651 129.82 81.3197 129.682L81.3102 128.846C81.2596 128.758 81.2533 128.823 81.2249 128.639C81.2154 128.577 81.2154 128.425 81.2122 128.36C81.1901 126.86 81.2754 125.051 81.2027 123.598L81.2375 118.388C81.0257 118.283 81.111 113.745 81.13 113.143L81.1269 108.539C81.1269 108.46 81.1142 108.309 81.13 108.23C81.1648 108.049 81.1521 108.111 81.2122 108.016L81.2217 107.671C81.2154 107.286 81.2185 107.453 81.3134 107.358L81.2976 107.141L81.4114 106.871L81.4019 106.677L81.4968 106.464L81.4873 106.286L81.6043 106.112L81.5821 106L81.6801 105.789L81.7781 105.579L81.8509 105.184L81.9868 105.043L82.0532 104.721L82.1449 104.602L82.2555 104.26C82.2461 104.102 82.205 104.135 82.3472 104.135V104.063C82.3378 103.912 82.2998 103.941 82.4326 103.941L82.5211 103.819V103.75L82.6128 103.622V103.556L82.7203 103.454L82.7899 103.257L82.8942 103.142C83.0586 102.83 83.2641 102.55 83.4601 102.287C83.5866 102.119 83.6688 101.998 83.7889 101.85C83.9976 101.596 83.9755 101.698 84.1083 101.406L84.2063 101.31L84.298 101.212L84.3991 101.11L84.5762 100.83L84.671 100.725L84.7659 100.626C84.7659 100.485 84.7311 100.514 84.8639 100.514L85.0536 100.261L85.1421 100.139L85.2338 100.041L85.335 99.9454C85.4456 99.7809 85.4867 99.7448 85.5911 99.554L85.7017 99.4587L85.8061 99.3633L86.0653 98.9719L86.1696 98.8766L86.2677 98.7713L86.451 98.5016L86.5459 98.3898L86.6407 98.2912L86.7419 98.1958L86.998 97.8044L87.1087 97.7091L87.213 97.6137L87.4691 97.2223L87.5734 97.127L87.6809 97.0316C87.7979 96.7685 87.7694 96.8409 87.937 96.6402L88.0571 96.5449C88.2374 96.3278 88.4808 95.9891 88.6673 95.7359C88.7875 95.5747 88.8792 95.4892 89.0151 95.3182C89.1669 95.1275 89.1511 95.0847 89.3344 94.8874L89.4546 94.792L89.6253 94.4993L89.7233 94.4006L89.815 94.302L89.9162 94.2L90.0964 93.9238L90.1912 93.8153L90.2861 93.7166C90.2861 93.5752 90.2513 93.6081 90.3841 93.6081L90.5738 93.3516C90.5675 93.2003 90.5295 93.2299 90.6592 93.2299L90.754 93.1312L90.852 93.0227L91.0322 92.7432L91.1302 92.6412L91.2251 92.5425L91.3168 92.4274L91.5065 92.1742L91.5982 92.0591L91.693 91.9604L91.791 91.8585L91.9712 91.5855L92.0661 91.4737L92.1609 91.3751L92.2621 91.2797L92.5182 90.8883L92.6257 90.793L92.7332 90.6976C92.8407 90.4838 92.8597 90.4838 92.9893 90.3062L93.0936 90.2109L93.1916 90.1122L93.3655 89.8195L93.4857 89.7241L94.8578 87.9713L94.9779 87.8759C95.1202 87.6884 95.5154 87.1918 95.6103 86.9978L95.7178 86.9024L95.8253 86.8071L96.0845 86.4157L96.1857 86.3203L96.2774 86.2217C96.2774 86.0803 96.2426 86.1131 96.3754 86.1131L96.5556 85.8402L96.6536 85.7382L96.7485 85.6396L96.8433 85.5245C97.0109 85.3041 97.0994 85.1989 97.4061 85.0608L97.5136 84.9621C98.187 84.7944 98.2123 84.7878 98.8889 84.9588L99.0027 85.0575L99.1766 85.143L99.2683 85.2515C99.5844 85.4094 99.4264 85.3074 99.6287 85.6429C99.7741 85.6429 99.7394 85.6034 99.7362 85.7547V85.827C99.8721 85.827 99.831 85.7941 99.8279 85.952L99.8405 86.0934L99.9196 86.2579L99.9227 87.08L99.8437 87.2412L99.831 87.3826L99.7394 87.501C99.5718 87.8364 99.3283 88.0535 99.1892 88.3659L99.0849 88.4613L98.9837 88.5632L98.8889 88.7277C98.8984 88.8789 98.9363 88.8493 98.8035 88.8493L98.7023 88.9447L98.5285 89.2341L98.4304 89.3328L98.3356 89.4479L98.2471 89.6156L98.1522 89.7208L98.0479 89.8162L97.8835 90.1089L97.7633 90.2043L97.5926 90.4805L97.4978 90.5923L97.3998 90.691L97.3144 90.8752L97.2164 90.9804L97.1247 91.0824L97.0393 91.204L96.9445 91.3652L96.8433 91.4704L96.739 91.5658C96.6441 91.7664 96.4196 92.0723 96.2963 92.2498L96.1762 92.3452L96.015 92.6379L95.898 92.7366L95.645 93.1246L95.5249 93.22L95.3637 93.5127L95.2435 93.6081L95.0791 93.9041L94.9621 93.9994L94.7851 94.2757L94.6934 94.3908L94.5954 94.496L94.5005 94.6572L94.412 94.7789L94.3203 94.8775L94.2255 94.9926L94.1401 95.1702L94.0389 95.2656L93.9504 95.384L93.7734 95.6536L93.6532 95.749L93.4793 96.0285L93.3813 96.1404L93.2865 96.2456L93.2011 96.4265L93.0999 96.5284L92.9893 96.6238C92.9039 96.8047 92.9324 96.7652 92.828 96.9165L92.7079 97.0119C92.5277 97.4065 92.1262 97.7716 91.8985 98.1826L91.7815 98.2813L91.6962 98.4589L91.6045 98.5707L91.497 98.6661L91.3326 98.9621L91.2314 99.0574L91.1302 99.1594L90.9658 99.4488L90.8457 99.5442L90.6845 99.8401L90.577 99.9355L90.4853 100.051L90.3904 100.208L90.2956 100.32L90.2007 100.429L90.0268 100.712L89.9067 100.807L89.7454 101.1L89.638 101.195V101.271C89.6443 101.422 89.6822 101.389 89.5463 101.389V101.468L89.4704 101.636C89.385 102.313 89.4388 102.425 89.638 102.951L89.7454 103.05C89.9162 103.356 89.7296 103.162 90.0237 103.333L90.1154 103.435L90.226 103.527H90.3051L90.3967 103.635H90.4758C90.6181 103.629 90.5833 103.593 90.5833 103.741L91.1461 104.013L91.2599 104.112L91.3927 104.129C91.5539 104.115 91.5254 104.069 91.5254 104.217H91.5824L91.7373 104.303L91.8574 104.326L92.006 104.405L92.1388 104.421L92.2874 104.5L92.4423 104.504L92.6447 104.605L92.8249 104.599C93.1284 104.628 92.964 104.553 93.0715 104.721L93.2991 104.691C93.3876 104.694 93.4825 104.704 93.571 104.721C93.59 104.724 93.6311 104.773 93.6437 104.75C93.6564 104.727 93.688 104.773 93.7101 104.786L94.4721 104.813L94.7282 104.806L95.5534 104.809C95.5723 104.796 95.5945 104.75 95.6071 104.77C95.6166 104.79 95.6514 104.74 95.6672 104.734C95.7652 104.704 95.8 104.698 95.9043 104.691L96.1762 104.698C96.2647 104.582 96.0023 104.592 96.4386 104.622L97.0045 104.5L97.1626 104.418L97.2828 104.402L97.4472 104.323H97.5041C97.5041 104.171 97.4725 104.221 97.6369 104.231L97.7539 104.214L97.8961 104.129H97.9688C97.9688 103.987 97.9404 104.03 98.0858 104.033L98.1554 104.03C98.1554 103.889 98.1238 103.928 98.2724 103.935H98.3451C98.3451 103.793 98.3135 103.833 98.4557 103.839H98.5348C98.5348 103.701 98.5032 103.737 98.6423 103.744H98.7213L98.8256 103.642L99.1924 103.454L99.2841 103.346L99.5655 103.172L99.6572 103.05L99.9291 102.869L100.033 102.77L100.128 102.675L100.223 102.576L100.318 102.478L100.413 102.379L100.508 102.28L100.602 102.182L100.697 102.083L100.792 101.984L100.893 101.889L101.067 101.606L101.162 101.501L101.266 101.406L101.443 101.133L101.535 101.017L101.633 100.916L101.807 100.629L101.908 100.534L101.994 100.409L102.088 100.248L102.186 100.146L102.291 100.047L102.462 99.7645L102.56 99.656L102.667 99.5606C102.816 99.2317 102.936 99.2219 103.11 98.8766L103.23 98.7812C103.356 98.6167 103.369 98.5641 103.483 98.3898L103.603 98.2945C103.732 98.0971 103.963 97.811 104.058 97.6203L104.153 97.5183L104.257 97.423L104.422 97.127L104.526 97.0316L104.624 96.9264L104.719 96.7652L104.807 96.6435L104.899 96.5449C104.899 96.4035 104.864 96.4363 104.997 96.4363L105.083 96.2555L105.181 96.1568L105.282 96.0614L105.459 95.7786L105.554 95.6734L105.645 95.5583L105.822 95.282L105.942 95.1866L106.11 94.9038L106.208 94.7986L106.306 94.7032L106.477 94.4105L106.581 94.3151L106.67 94.1968C106.818 93.9337 106.957 93.8514 107.131 93.5357L107.248 93.4403C107.365 93.2792 107.39 93.2233 107.52 93.0556C107.678 92.8451 107.647 92.9273 107.783 92.6609L107.903 92.5623L108.073 92.2696L108.171 92.1742L108.276 92.0788L108.437 91.7829L108.544 91.6875C108.544 91.5428 108.51 91.5757 108.639 91.5757L108.731 91.4079L108.826 91.2961L108.933 91.2008L109.098 90.9081L109.202 90.8127L109.3 90.714L109.389 90.5364L109.48 90.4213L109.566 90.2964V90.224L109.657 90.099L109.642 89.9149L109.645 85.2778L109.683 80.1705C109.389 79.8745 109.566 75.7735 109.578 75.0303L109.569 69.9164C109.563 69.9098 109.243 69.6598 109.563 69.6598L109.544 69.673ZM110.726 64.1644L110.609 64.1776L110.451 64.2565L110.242 64.2795L110.084 64.3585H110.024C110.024 64.5065 110.053 64.4604 109.891 64.4506L109.762 64.467L109.648 64.5657L109.085 64.8386C109.085 64.9866 109.12 64.9504 108.978 64.9439H108.899L108.807 65.0622L108.526 65.2234L108.434 65.3352L108.342 65.4404L107.792 66.016L107.688 66.1113L107.58 66.2067L107.498 66.381L107.406 66.4994L107.308 66.5981L107.305 66.6704L107.22 66.7888L107.138 66.9171V66.9861L107.046 67.1111V67.1802L106.954 67.3051V67.3742L106.863 67.4992L106.844 67.6307C106.853 67.7951 106.897 67.7623 106.755 67.7623L106.689 68.1799L106.568 68.3542L106.499 69.16L106.474 72.6624L106.594 85.1726C106.594 85.8928 106.73 88.7277 106.489 89.1618L106.369 89.2571L106.202 89.54L106.107 89.6485L106.006 89.7439L105.832 90.0333L105.731 90.1319L105.642 90.2536L105.462 90.52L105.339 90.6154L105.181 90.9081L105.06 91.0034C104.94 91.1613 104.918 91.2172 104.788 91.3882C104.624 91.6053 104.662 91.5033 104.529 91.7861L104.409 91.8848L104.156 92.2729L104.039 92.3715L103.875 92.6642L103.767 92.7596C103.767 92.901 103.802 92.8681 103.669 92.8681L103.581 93.0358L103.489 93.1477L103.382 93.243L103.217 93.5357L103.116 93.6311L103.015 93.7265L102.926 93.9041L102.835 94.0192L102.74 94.1178L102.648 94.2362L102.474 94.5059L102.354 94.6013L102.18 94.8775L102.085 94.9893L101.99 95.0946L101.817 95.3774L101.696 95.4728C101.611 95.6536 101.639 95.6142 101.535 95.7655L101.415 95.8608L101.159 96.2489L101.042 96.3475C100.868 96.5942 100.65 96.8672 100.511 97.127L100.394 97.2256L100.226 97.515L100.122 97.6104L100.018 97.7091C99.9196 97.8538 99.9385 97.8275 99.8563 98.0018L99.7457 98.0971L99.6445 98.2024L99.5591 98.3865L99.4611 98.4885L99.3568 98.5839L99.1924 98.8766L99.0849 98.9719L98.9901 99.0805L98.8952 99.2416L98.8035 99.36L98.7087 99.4554L98.617 99.5705L98.5221 99.7349L98.4273 99.8467L98.3324 99.9454L98.2376 100.044L98.1427 100.143L98.0479 100.241L97.9436 100.34L97.6748 100.531L97.5831 100.643L97.3998 100.725L97.3017 100.84L97.112 100.912L97.0172 101.021H96.935L96.8212 101.116H96.7579C96.7579 101.271 96.7864 101.212 96.603 101.195L96.4987 101.221L96.3501 101.304L96.271 101.3L96.0719 101.399L95.9264 101.406L95.7241 101.508L95.4996 101.478C95.3352 101.632 95.5407 101.58 95.1518 101.6L94.0895 101.58C93.8556 101.593 94.0168 101.593 93.8619 101.573C93.8366 101.57 93.7987 101.58 93.7797 101.547C93.7639 101.517 93.7354 101.521 93.7133 101.508L93.4509 101.498C93.5362 101.172 93.4287 101.422 93.5615 101.212L93.6595 101.103L93.7512 100.991L93.9283 100.715L94.0484 100.62C94.2033 100.287 94.3203 100.287 94.4911 99.9355L94.6112 99.8401C94.725 99.6626 94.7345 99.6165 94.8641 99.4488L94.9843 99.3534C95.1582 99.0081 95.2815 99.0015 95.4269 98.6694L95.547 98.574L95.7241 98.2977L95.8158 98.1826L95.9138 98.0774L96.0086 97.9163C96.0023 97.765 95.9644 97.7946 96.094 97.7946L96.1857 97.6959L96.2837 97.5874L96.3691 97.4032L96.4671 97.3046L96.5588 97.1862L96.7326 96.9132L96.8528 96.8178L97.0172 96.5251L97.1215 96.4298L97.2164 96.3245L97.3049 96.1502L97.4029 96.0417L97.5009 95.943L97.6748 95.6504L97.7791 95.555L97.8645 95.4333L97.9562 95.2689L98.0763 95.1669C98.2502 94.9203 98.4684 94.6473 98.6075 94.3875L98.7276 94.2921C98.8826 94.0192 99.0849 93.7725 99.262 93.5127L99.3789 93.414L99.5402 93.1213L99.6603 93.026L99.8216 92.7333L99.9291 92.6379L100.024 92.5228L100.119 92.3617L100.21 92.2466L100.305 92.138L100.479 91.8552L100.58 91.7598L100.672 91.6414L100.761 91.4639L100.862 91.3685L100.963 91.2731L101.127 90.9804L101.247 90.885L101.418 90.6022L101.516 90.4937L101.611 90.3852L101.696 90.201L101.817 90.1056C101.937 89.9478 102.183 89.6156 102.259 89.4216L102.37 89.3229V89.2538C102.36 89.096 102.322 89.1289 102.465 89.1289L102.541 88.9348L102.632 88.8132L102.648 88.6718L102.727 88.5238V88.4514L102.816 88.3264L102.828 88.1817L102.923 87.968L102.917 87.7772L103.027 87.5141L103.005 87.0866L102.999 86.2217L103.024 85.7941L102.91 85.531L102.92 85.3403L102.828 85.1233L102.727 84.7714L102.645 84.63L102.468 84.1662C102.322 84.1662 102.36 84.2024 102.364 84.0511V83.9854L102.256 83.8801L102.18 83.6927L102.063 83.5874C101.798 83.2224 101.665 82.9231 101.238 82.7192L101.146 82.614L101.048 82.5087L100.865 82.4265L100.773 82.318L100.584 82.2424L100.473 82.1371H100.397L100.286 82.0385L100.182 82.0516L100.052 81.9135L99.9543 81.9299L99.7994 81.8477L99.6635 81.8346L99.4611 81.7359L99.2778 81.7458C98.9047 81.7129 99.0944 81.726 99.0185 81.6241L97.444 81.6504L97.1342 81.7523L96.9476 81.7392L96.7421 81.8411L96.5999 81.851L96.4513 81.9365H96.388C96.388 82.0878 96.4165 82.0352 96.2394 82.0187L95.6261 82.3213L95.5312 82.4331L95.351 82.5153L95.2498 82.6173L95.155 82.7192L94.4152 83.4954L94.314 83.5907L94.2192 83.6894L94.1275 83.8078L93.9441 84.0774L93.8429 84.1761L93.7481 84.2748L93.6595 84.3932L93.473 84.6497L93.375 84.7615L93.2802 84.8602L93.1853 84.9621L93.0083 85.2449L92.9071 85.3436L92.8122 85.4423L92.7111 85.5376C92.5814 85.8237 92.6036 85.7284 92.3886 85.975C92.2115 86.1789 92.2242 86.2019 92.0756 86.4157L91.9586 86.5111L91.6108 87.0011L91.4907 87.0998C91.3105 87.3037 91.3041 87.376 91.1302 87.5865C90.8994 87.8594 90.9089 87.7476 90.7667 88.0732L90.6592 88.1686L90.5517 88.264L90.2924 88.6553L90.1912 88.7507L90.0995 88.8493L89.9984 88.9513L89.834 89.2407L89.7233 89.3361L89.619 89.4314L89.3597 89.8228L89.2522 89.9182L89.1447 90.0135L88.8855 90.4049L88.7843 90.5003L88.6895 90.5989L88.6009 90.7173L88.4144 90.9804L88.3164 91.0824L88.2215 91.181L88.1299 91.2961L87.9433 91.5559L87.8485 91.6677L87.7536 91.7664L87.6556 91.8651L87.4817 92.1545L87.3774 92.2498L87.2825 92.3485L87.1972 92.4702L87.0106 92.7267C86.998 92.8681 87.0359 92.8319 86.8937 92.8319L86.5459 93.3187L86.4257 93.414C86.255 93.6147 86.2392 93.7034 86.078 93.9041L85.961 94.0027C85.7966 94.1869 85.7839 94.2559 85.6417 94.4335C85.4678 94.6539 85.4456 94.6111 85.3192 94.8676L85.2243 94.9729L85.1295 95.0715C85.1295 95.213 85.1642 95.1801 85.0315 95.1801L84.8449 95.4399C84.8512 95.5879 84.8892 95.5583 84.7564 95.5583L84.6615 95.6569L84.5604 95.7523C84.4276 95.9332 84.4149 95.92 84.3043 96.1437L84.1936 96.239L84.0893 96.3344L83.83 96.7258L83.7257 96.8211L83.6182 96.9165L83.3621 97.3079L83.2609 97.4032L83.1661 97.5019L83.0744 97.6203L82.9005 97.8899L82.793 97.9853L82.6887 98.0807L82.4294 98.472L82.3251 98.5674L82.2145 98.6628C82.1006 98.8996 82.1006 98.8667 81.9584 99.0541L81.8572 99.1495L81.7623 99.2482L81.6738 99.3666L81.4873 99.6297C81.4746 99.7711 81.5126 99.7349 81.3703 99.7349C81.1901 99.9421 80.6937 100.623 80.5609 100.902L80.4408 101.001L80.3649 101.195L80.2574 101.29L80.1878 101.488L80.0835 101.606V101.682L79.976 101.777L79.9065 101.974L79.8021 102.093V102.162L79.7073 102.287V102.353L79.6156 102.481V102.547L79.5081 102.652L79.4291 102.935L79.3374 103.06V103.129L79.2457 103.254V103.326L79.154 103.451L79.056 103.816L78.9643 103.938L78.9485 104.086C78.958 104.247 78.9991 104.214 78.8631 104.214L78.8726 104.313L78.7556 104.477L78.7746 104.599L78.6576 104.767L78.6829 104.892L78.5628 105.056L78.2023 106.901C78.196 107.207 78.2561 107.056 78.1043 107.22L78.1265 107.539C78.1233 107.575 78.1075 107.786 78.1043 107.805C78.0221 108.121 78.0917 107.881 78.019 108.009L78.0348 108.808L78.0379 110.69L78 115.899C78.2498 116.076 78.1107 120.473 78.1107 121.151L78.117 126.363C78.3288 126.784 78.2023 130.895 78.2055 131.458L78.2972 132.013C78.4331 132.013 78.392 131.984 78.392 132.142L78.4742 132.319L78.5786 132.415L78.6734 132.513L78.7683 132.612L78.86 132.724L79.2868 132.911L79.565 132.98L101.949 133L102.155 132.901L102.224 132.905L102.338 132.809H102.417L102.515 132.701L102.79 132.431C102.8 132.29 102.765 132.326 102.904 132.326L103.075 131.849L103.084 130.737L103.072 130.198C102.974 130.096 103.015 130.185 102.986 129.988C102.971 129.866 102.983 129.701 102.986 129.576L102.977 129.034C102.885 128.935 102.92 129.014 102.895 128.82C102.879 128.702 102.892 128.531 102.892 128.409L102.879 127.87C102.844 127.804 102.819 127.814 102.797 127.653C102.781 127.537 102.793 127.366 102.793 127.245L102.784 126.705C102.695 126.525 102.759 126.89 102.705 126.485C102.689 126.373 102.699 126.199 102.699 126.081L102.689 125.538C102.62 125.39 102.661 125.693 102.61 125.314C102.594 125.206 102.604 125.028 102.601 124.913L102.591 124.37C102.537 124.255 102.56 124.492 102.515 124.147C102.503 124.045 102.506 123.861 102.506 123.749C102.474 123.15 102.427 122.572 102.373 121.957C102.319 121.335 102.164 120.74 102.401 120.352L102.522 120.256L102.683 119.964L102.803 119.868C102.901 119.654 103.116 119.382 103.242 119.184L103.363 119.089C103.546 118.691 103.9 118.428 104.083 118.017L104.2 117.921L104.365 117.625L104.485 117.53L104.649 117.234L104.751 117.139L104.849 117.033L104.931 116.846L105.032 116.751L105.124 116.635L105.212 116.461L105.31 116.359L105.402 116.241L105.497 116.08L105.592 115.971L105.686 115.859L105.778 115.695L105.873 115.583L105.968 115.478L106.053 115.294L106.154 115.192L106.252 115.093L106.331 114.899L106.451 114.804C106.698 114.425 106.995 113.991 107.261 113.633L107.381 113.534L107.466 113.353L107.558 113.245C107.558 113.103 107.523 113.136 107.659 113.136L107.751 112.972L107.839 112.853L107.941 112.752L108.035 112.587C108.029 112.436 107.988 112.465 108.121 112.462L108.222 112.367L108.311 112.192L108.399 112.074L108.5 111.979L108.665 111.686L108.785 111.591L108.949 111.298L109.069 111.203L109.234 110.91L109.354 110.815L109.515 110.522L109.635 110.426C109.717 110.252 109.698 110.282 109.796 110.137L109.917 110.038L110.075 109.746L110.195 109.647L110.356 109.354L110.473 109.259L110.634 108.966L110.751 108.868L110.84 108.693L110.932 108.581L111.042 108.486L111.207 108.19L111.308 108.095L111.409 107.993L111.491 107.802L111.589 107.703L111.684 107.588L111.773 107.414L111.871 107.312L111.962 107.197L112.057 107.036L112.152 106.924L112.247 106.815L112.338 106.651L112.433 106.536L112.531 106.434L112.617 106.253L112.715 106.148L112.813 106.052L112.892 105.858L112.993 105.76L113.094 105.664C113.214 105.401 113.499 105.056 113.673 104.816C113.862 104.553 114.166 104.184 114.292 103.912L114.394 103.816L114.495 103.718L114.574 103.523L114.675 103.428L114.776 103.333L114.937 103.037L115.057 102.941L115.222 102.649L115.342 102.553L115.506 102.261L115.627 102.165L115.791 101.873L115.911 101.777L116.072 101.484L116.174 101.389L116.259 101.264L116.354 101.103L116.455 100.998L116.543 100.883L116.632 100.712L116.749 100.61L116.91 100.317L117.027 100.222L117.097 100.024L117.214 99.9289L117.283 99.7316L117.391 99.6264V99.554C117.388 99.406 117.353 99.4422 117.495 99.4422L117.659 99.0509L117.767 98.9522V98.8831C117.761 98.7253 117.72 98.7582 117.859 98.7582L117.862 98.6891L117.944 98.5477L118.14 97.9985C118.137 97.8472 118.096 97.8768 118.232 97.8768L118.317 97.4953L118.434 97.3276L118.415 97.2125L118.532 97.0382L118.598 96.6139L118.703 96.4035L118.69 96.216L118.81 95.943L118.788 95.7424L118.88 95.4234L118.886 95.0748C118.883 94.815 118.823 94.7197 119 94.6013L118.994 92.6215C118.82 92.411 118.886 92.1939 118.883 91.8453L118.908 91.158C118.722 90.9475 118.791 90.7239 118.791 90.372L118.425 84.4557C118.355 84.3471 118.377 84.4589 118.339 84.2583C118.333 84.2254 118.323 84.0807 118.323 84.0774C118.317 83.9788 118.323 83.788 118.317 83.6762V82.9363L118.232 82.2128L118.229 81.4662C118.216 81.4432 118.2 81.4169 118.197 81.3972L118.146 80.7394L118.14 79.9929C118.102 79.9205 118.089 79.9403 118.061 79.7791C118.055 79.7462 118.048 79.6015 118.048 79.595C118.042 79.4897 118.045 79.3384 118.039 79.2168L118.052 78.5229C118.004 78.4373 118.001 78.49 117.966 78.3157C117.963 78.3025 117.953 78.1578 117.95 78.1348C117.944 78.0328 117.95 77.8651 117.947 77.75L117.96 77.0594C117.909 76.9772 117.906 77.0265 117.871 76.8588C117.865 76.8193 117.859 76.7239 117.855 76.6779C117.849 76.5792 117.859 76.3984 117.855 76.2833L117.874 75.5926C117.704 75.3756 117.77 75.1684 117.764 74.8165L117.4 68.9857L117.283 68.6107L117.309 68.397C117.185 68.3279 117.207 68.5351 117.217 68.1832L117.223 67.9892L117.109 67.8215L117.018 67.4465L116.926 67.3282V67.2525L116.834 67.1308V67.0552L116.743 66.9335L116.569 66.5487L116.455 66.4468L116.363 66.2824L116.278 66.1607L116.183 66.062L116.082 65.9633L115.434 65.2957L115.342 65.1872L115.247 65.0918L114.599 64.7071L114.498 64.6018H114.425C114.28 64.6051 114.308 64.6479 114.308 64.5065H114.235L114.09 64.421L113.489 64.2203L113.284 64.1151L113.113 64.125C112.81 64.0954 112.964 64.1611 112.851 64L112.503 64.0132L111.361 64.0526L111.039 64.0197C110.941 64.1611 110.998 64.1381 110.72 64.1184L110.726 64.1644Z" fill="#02345D" stroke="#02345D"/>
<path fill-rule="evenodd" clip-rule="evenodd" d="M43.8763 52.9578C44.3356 52.7343 45.104 52.5247 45.6332 52.35C47.3325 51.7876 46.7318 51.695 50.0867 54.2975C50.7661 54.825 52.083 56.011 52.951 56.1909C54.053 56.4179 56.0457 56.5542 56.671 57.2301C57.422 58.0441 56.4719 59.4781 56.9556 61.0553C57.4062 62.5207 57.9721 63.5547 56.14 64.1695C54.191 64.8245 54.4791 64.7197 54.0652 66.8401C53.9185 67.5929 53.5378 70.2269 53.2636 70.667C51.1119 68.6584 48.9917 66.29 47.2644 63.0691C46.0471 60.802 43.9671 55.9865 43.8763 52.9596V52.9578ZM75.5067 69.1684C74.747 68.1239 73.9419 65.621 73.3097 64.1625C71.7344 60.5313 73.4145 61.2509 73.2433 58.2694C73.1053 55.8782 71.6662 55.356 71.4322 54.5892C71.2349 53.943 71.7623 52.0321 69.7888 50.9195C67.576 49.6707 66.0094 51.4383 63.5032 50.8165C60.5743 50.0916 59.2558 46.7119 60.5866 43.9522C60.9795 43.1365 61.6414 42.375 62.1305 41.8195C64.0009 39.6956 64.0795 38.562 65.7684 38.3193C66.6626 38.1918 68.2257 38.1236 69.1548 38.1516C68.9819 39.4162 69.4517 39.5122 70.2202 40.0013C70.8576 40.4065 71.3344 40.7593 71.9998 41.1401C73.266 41.8632 75.1837 42.2125 75.9399 40.6161C76.5756 40.7314 77.4069 40.9776 78.006 41.1838C78.9264 41.4999 79.0748 41.5209 79.5149 42.2754C80.4947 43.9592 81.2509 47.1573 82.8647 49.089C83.5283 49.8838 84.2374 50.3396 85.3027 50.551C85.4774 50.5859 85.6905 50.6104 85.8564 50.6505L86.1777 50.7606C86.19 50.7379 86.2284 50.7815 86.2528 50.7955C86.066 51.1151 84.7317 52.4408 84.3981 52.7343C79.5376 57.0048 83.4288 59.0117 81.9949 60.7112C81.4011 61.4151 80.837 61.8133 80.3777 62.8805C79.4486 65.0411 79.6634 63.9826 78.9718 65.1529C78.3238 66.2498 78.6591 66.9432 77.8191 67.7851C77.4156 68.1885 76.3817 69.0496 75.505 69.1684H75.5067ZM43.9514 43.8858C43.8431 41.5401 46.241 35.8373 47.1963 34.1273C48.0119 32.6689 48.8537 31.3746 49.7636 30.2079C50.4587 29.3188 51.9974 27.5006 52.799 26.7914C54.6992 27.2229 55.9951 29.89 54.4005 31.5999C53.9831 32.0471 52.8497 33.2453 52.5912 33.6854L49.7898 38.5603C49.0598 39.8336 49.3829 39.3445 47.8181 40.4816C46.8627 41.175 45.9022 41.6064 45.7852 42.3697C45.6227 43.4299 46.7597 44.1286 47.0129 44.9565C44.9765 45.6726 45.0621 44.45 43.9514 43.8858ZM43.5811 50.3187L43.527 46.9424C44.484 47.5013 43.8134 47.9729 46.131 47.6847C47.5369 47.5101 51.7494 47.435 50.2841 45.1277C49.8981 44.5216 49.0441 43.4823 48.838 42.9007C51.4455 40.6126 50.2841 42.7138 52.4061 39.121C52.9876 38.1359 54.5839 35.0426 55.1463 34.5064C57.2421 32.5082 58.7126 29.9895 56.8421 26.8893C56.2413 25.8937 55.5113 25.6195 55.0188 24.9487C55.2982 24.6204 56.2693 23.9724 56.7303 23.6562C61.5367 20.3533 67.0695 18.694 73.0896 18.5421C72.5482 19.4189 71.7798 20.2415 71.1318 21.0799C70.7668 21.5533 70.2987 21.6057 69.6997 21.8135C69.1426 22.0074 68.5697 22.2048 68.0144 22.3952C66.9053 22.7742 65.8295 23.1637 64.7345 23.5497C63.8053 23.8763 62.1619 24.2029 61.7427 24.9907C61.348 25.7347 59.2103 30.8471 59.2837 31.434C59.4182 32.5222 62.4483 35.5998 62.9042 36.8835C62.1287 37.4931 61.6973 38.3612 61.0319 39.2013C59.0829 41.6658 56.6151 43.7915 57.7817 48.221C58.7196 51.7841 61.8894 53.7438 65.3667 53.4731C66.1928 53.4085 68.3217 52.5387 68.7531 53.391C69.1426 54.1595 68.6221 55.3455 69.7032 56.631C69.9844 56.9646 70.1241 57.0013 70.3634 57.3768C71.3012 58.8423 69.9267 60.3322 70.0542 62.1434C70.1573 63.6106 70.9991 65.1896 71.516 66.3895C72.1256 67.8043 72.4487 69.2068 73.2538 70.3823C75.2692 73.3202 79.1639 70.5849 80.3969 68.6287C80.8737 67.8724 80.7933 67.2506 81.1147 66.5345C81.3889 65.9214 82.0106 65.5302 82.3442 64.842C82.7442 64.0193 82.7005 63.5792 83.317 63.001C86.4327 60.0772 83.9126 58.4178 84.5098 56.624C84.8312 55.6599 86.5323 54.198 87.1802 53.5657C87.7915 52.9701 89.414 51.4051 89.1066 49.8698C88.7416 48.0358 86.5183 48.5493 85.3551 47.9013C83.8008 47.035 82.6621 42.2649 81.3487 40.4414C80.5226 39.2956 79.3263 38.8695 77.6375 38.4136C75.7705 37.9088 74.7348 37.4861 73.5856 39.0756L72.1116 38.218C72.1029 34.688 68.0667 35.7517 65.7404 35.736C66.7813 32.6776 69.3626 34.0837 70.3669 33.1841C70.8489 32.7545 70.9484 31.9894 70.4559 31.4393C69.3574 30.2114 66.3325 31.324 65.0296 32.3859C64.4777 32.8366 64.3433 33.2331 63.863 33.661C63.58 33.3972 63.2796 32.8872 63.0456 32.5763C61.5646 30.6096 61.8807 31.3607 63.5276 27.3154C63.828 26.5801 63.6674 26.5958 64.4847 26.3251L70.2516 24.3042C73.2224 23.2685 72.4888 23.4327 74.5724 20.8424C74.8378 20.5123 76.0237 18.8268 76.2979 18.715C79.0818 18.6975 83.5406 20.2014 85.7918 21.1847C87.1261 21.7681 88.663 22.6013 89.7196 23.3121C90.771 24.0178 93.1846 25.712 93.9828 26.6185C94.2954 26.9748 94.4281 27.0884 94.7268 27.3871C96.2392 28.9066 97.5595 30.5659 98.7786 32.4174C99.9837 34.2479 101.996 38.2878 102.436 40.8292C101.194 41.7514 101.177 42.3278 100.756 43.6308C99.6396 41.5733 100.473 41.5575 98.2529 39.1035C97.7761 38.576 97.6573 38.3053 97.0478 37.9315C95.9091 37.2311 92.2799 36.7805 91.6791 38.714C91.391 39.6467 91.7962 40.038 92.0669 40.6283C91.0592 41.3584 89.4821 42.719 87.8247 43.0614C87.4265 41.8318 86.0957 39.7078 85.439 38.4066C84.8923 37.3237 85.7935 36.7927 84.6426 35.743C84.0348 35.1893 83.324 34.6251 82.7721 34.0417C82.1294 33.364 81.3557 33.2365 80.444 32.9134C79.3997 32.5449 78.4129 32.585 78.2522 33.7239C77.9937 35.5613 80.2973 35.0862 81.1758 35.9648L82.0875 36.8888C82.5311 37.28 82.7057 37.2049 82.7249 38.0258C82.7511 39.1856 83.7554 40.665 84.3073 41.699C84.7229 42.4763 85.0705 43.1854 85.4931 43.9714C85.8878 44.705 86.2284 45.8246 87.1208 45.9189C88.153 46.0272 91.3386 44.2683 92.0337 43.8159C92.7707 43.3374 93.382 42.8605 93.9688 42.2946C94.6324 41.6536 95.3817 41.3899 94.7844 39.9838C95.2297 39.9803 95.4777 39.907 95.7851 40.1672C96.1781 40.5008 96.5117 41.037 96.8889 41.4405C98.3123 42.9618 98.5288 46.0429 99.3881 47.269C100.303 48.5755 101.622 47.3546 102.34 46.4481C102.677 46.0219 102.892 45.3879 103.23 44.9216C104.044 52.2435 102.294 58.7287 99.1471 64.0193C98.0468 65.869 96.8976 67.551 95.3712 69.0007C94.9154 69.4339 94.2639 70.0714 93.8623 70.5221C93.1113 71.3604 90.7413 72.4783 91.8136 73.8756C92.3847 74.6179 93.237 74.4153 93.8046 73.928C94.849 73.0337 95.9668 72.1412 96.9203 71.095L98.3035 69.5579C101.058 66.5642 103.361 62.1015 104.603 58.0126C106.634 51.3178 106.425 44.064 104.142 37.6503C100.427 27.2106 91.0661 18.17 78.2068 16.3413C69.5565 15.1099 61.3795 17.2723 54.9053 21.831C53.8329 22.5855 52.4532 23.52 51.5852 24.4597L49.3777 26.6832C48.2198 27.7504 47.0514 29.5529 46.1397 30.9065C39.0245 41.4702 39.3476 56.8406 46.7929 67.1109C47.4199 67.9755 47.9962 68.8191 48.6721 69.5562L50.8272 71.8338C51.1364 72.1237 51.2656 72.2355 51.5905 72.5831C52.7536 73.8284 54.3324 74.8153 55.8169 75.8214C63.7285 81.1801 74.768 82.4796 84.2025 79.2535C84.908 79.0125 85.7464 78.8273 85.9053 78.0186C86.0922 77.0685 85.432 76.3908 84.543 76.4711L80.0581 77.8021C71.7763 79.7024 62.5653 77.6134 56.5085 73.2887C55.19 72.3473 55.5078 72.8521 56.2169 69.1055C56.7548 66.2655 56.2221 66.9816 57.787 66.2393C59.5352 65.4096 60.4102 63.4412 59.6941 61.2387C59.2802 59.9671 59.2278 60.2256 59.4968 58.8807C59.6802 57.962 59.4776 56.9891 59.116 56.3009C58.4052 54.9525 57.3434 54.439 55.4869 54.0932C53.0977 53.646 53.2863 53.55 51.4682 52.1614C50.3452 51.3038 49.2432 50.4444 48.0958 49.5886C46.971 48.7502 44.8962 50.0934 43.5828 50.3204L43.5811 50.3187Z" fill="#02345D" stroke="#02345D"/>
<path fill-rule="evenodd" clip-rule="evenodd" d="M88.0991 66.9901C87.7394 66.1692 88.6563 65.0496 88.7034 63.9877C88.7785 62.2812 88.2039 62.1816 90.0412 61.5616C89.8247 62.6497 88.6807 66.522 88.1009 66.9901H88.0991ZM90.7678 56.5941C89.5924 57.05 89.9469 58.746 88.4554 59.4936C84.7756 61.3363 86.6793 62.7633 85.9387 64.5483C84.8385 67.2032 85.9457 69.411 87.776 69.6992C90.4918 70.1271 91.4402 65.909 92.0933 63.6663C92.3833 62.669 93.246 60.4891 93.005 59.5005C92.7133 58.3024 92.4409 55.9461 90.7695 56.5941H90.7678Z" fill="#02345D" stroke="#02345D"/>
<path fill-rule="evenodd" clip-rule="evenodd" d="M74.4082 31.048C72.9028 31.4794 73.4651 33.9177 75.1418 33.5229C75.767 33.3762 76.2892 32.7317 76.0604 31.9038C75.9015 31.3292 75.1156 30.8453 74.41 31.048H74.4082Z" fill="#02345D" stroke="#02345D"/>
<path fill-rule="evenodd" clip-rule="evenodd" d="M88.6319 74.4502C86.985 75.1785 88.0189 77.3618 89.5349 76.8011C91.0945 76.223 90.2754 73.7236 88.6319 74.4502Z" fill="#02345D" stroke="#02345D"/>
<rect x="2" y="2" width="146" height="146" rx="23" stroke="#02345D" stroke-width="4"/>
</svg>
