<svg width="150" height="150" viewBox="0 0 150 150" fill="none" xmlns="http://www.w3.org/2000/svg">
<path fill-rule="evenodd" clip-rule="evenodd" d="M75.433 73.0872C75.3927 68.6445 75.4304 64.1837 75.4304 59.7372C75.4304 55.4683 74.6462 52.9482 76.7988 51.1696L82.1598 46.3626C85.0318 44.0175 90.0954 38.9941 92.6947 36.9122C93.9113 35.9373 94.8071 34.8704 96.6703 34.0485C100.3 32.4475 103.515 34.287 106.082 36.7955C108.654 39.3078 113.658 43.5353 116.614 46.2434C117.156 46.7399 117.77 47.3077 118.366 47.8236C119.694 48.9735 122.985 51.644 123.381 52.7952C123.875 54.2316 123.539 75.8679 123.539 79.3538C123.539 82.1695 123.758 111.487 123.501 112.727C123.053 114.886 121.321 115.111 119.241 115.104L82.017 115.149C82.8232 113.102 82.7479 110.461 81.8884 107.808C82.6921 107.091 82.9933 107.222 83.823 106.069C85.2369 104.105 85.1019 102.425 85.0279 100.002C84.9811 98.4687 84.6591 98.2249 84.3138 97.0816C85.4576 95.9732 86.7599 95.2005 87.0196 92.5896C87.1117 91.6589 87.1078 89.9917 87.0338 89.0545C86.9183 87.6051 86.4781 87.2201 86.1302 86.1843C87.0988 85.4985 87.9803 84.3914 88.3192 82.7049C88.5672 81.472 88.5166 78.5085 88.1829 77.3289C87.113 73.5487 83.9035 73.0846 80.8186 73.0846L75.4369 73.0859L75.433 73.0872ZM96.0977 73.2557C98.6412 73.1585 101.668 72.9355 103.742 74.04C109.916 77.3276 108.362 87.5636 100.289 87.5688L96.1003 87.552L96.0977 73.2557ZM96.1237 90.3949C98.7658 90.3586 101.777 90.7021 104.08 89.7934C111.312 86.9375 111.922 77.8772 107.53 73.2894C103.326 68.8999 94.1008 70.3752 93.6542 70.8626C92.8297 71.7649 93.2569 85.1796 93.2569 87.5416C92.2078 87.5948 89.8526 87.1436 89.9097 89.0285C89.9577 90.6373 91.7936 90.3651 93.2504 90.3962L93.2634 92.8139C91.8313 92.8606 89.8175 92.5806 89.911 94.3255C89.9967 95.9122 91.8235 95.6348 93.2699 95.6789C93.2296 97.3706 93.2608 99.0883 93.2582 100.784C93.2556 102.402 92.9206 104.512 94.7799 104.407C96.5054 104.31 96.1029 102.219 96.1016 100.595C96.1016 98.9639 96.0743 97.3097 96.112 95.6815C98.1192 95.6231 100.176 95.6633 102.187 95.6633C103.744 95.6633 106.616 96.1235 106.503 94.1764C106.396 92.3498 103.606 92.8308 101.997 92.8308C100.051 92.8308 98.0543 92.8748 96.099 92.8152L96.1237 90.3949ZM96.8378 47.6525C96.1146 43.919 101.555 43.3201 102.118 46.5117C102.766 50.1701 97.4675 50.9051 96.8378 47.6525ZM97.8791 41.1331C90.0175 43.2734 93.1361 54.9796 100.964 53.0337C103.866 52.3117 106.42 49.3521 105.45 45.4578C104.758 42.6784 101.612 40.1155 97.8778 41.1331H97.8791ZM74.3099 115.022C74.2294 114.988 74.1502 114.951 74.071 114.91C73.9256 114.954 73.7763 114.993 73.6231 115.026C66.93 115.069 58.0972 115.36 52.7 114.283C47.4818 113.241 42.6078 110.779 38.3959 109.757L38.3972 109.756C38.2427 104.446 38.5725 98.2561 38.3855 93.3182C38.3193 91.5863 36.6366 90.4338 35.2513 91.5746C34.1243 92.5002 34.4787 94.4603 34.4787 96.2493V113.009L25.981 113.037V77.9032L34.4787 77.968C34.4813 79.5223 34.4787 81.0598 34.4787 82.5986C34.4787 84.0933 34.21 85.8862 35.1539 86.6756C36.1394 87.4975 37.6377 87.1099 38.1531 86.113C38.5582 85.3287 38.392 82.6673 38.3842 81.6224C38.3764 80.4959 38.2128 80.4738 38.7971 79.7932C39.1619 79.3693 39.406 78.9778 39.7631 78.388L52.2455 57.8368C52.935 56.8684 54.1944 56.4211 55.2681 57.3921C58.8308 60.6084 56.5314 64.9862 55.3746 67.7863C54.9046 68.9219 54.4852 69.9552 54.036 71.0467C53.6659 71.9438 52.9051 73.5357 52.6649 74.4276C51.7353 77.8876 56.9196 76.9905 59.3255 76.9905L82.7648 77.0177C84.2463 77.2239 84.5397 78.4113 84.5371 79.9488C84.5267 84.1594 83.7308 83.5721 78.7204 83.5721C75.6044 83.5721 72.4883 83.5721 69.3722 83.5721C67.7467 83.5721 66.3379 83.3881 65.7758 84.7181C65.1681 86.1519 66.1666 87.3433 67.4208 87.4599C70.8848 87.7853 79.2073 87.2201 81.3548 87.5014C82.8479 87.6959 83.1517 88.882 83.1491 90.3975C83.1387 94.6483 82.2688 94.0558 77.4636 94.0558C74.3034 94.0558 71.1276 94.026 67.9687 94.0532C66.5613 94.0662 65.4758 94.7273 65.629 96.2285C65.7939 97.8347 67.1118 97.9657 68.6724 97.9592C71.8352 97.9475 74.9993 97.9696 78.1621 97.9579C79.6565 97.9527 80.829 98.2223 81.0705 99.6146C81.2834 100.845 81.2795 103.045 80.5953 103.837C79.7267 104.843 78.0401 104.538 76.4859 104.538L67.2182 104.577C66.1081 104.76 65.1136 106.102 65.8472 107.425C66.5171 108.635 67.8298 108.443 69.3696 108.443C70.951 108.443 72.5324 108.443 74.1138 108.443C75.6031 108.443 77.2987 108.191 78.0803 109.148C78.7126 109.922 78.7191 112.14 78.5244 113.351C78.2829 114.856 77.052 115.028 75.5096 115.025C75.1188 115.023 74.7176 115.023 74.3073 115.025L74.3099 115.022ZM78.5335 118.564C85.0642 118.792 113.104 118.574 117.309 118.574C120.767 118.574 122.336 118.919 124.704 117.043C126.668 115.489 127.001 113.732 127 110.358L126.968 56.7595C126.969 53.2437 127.27 51.6272 125.36 49.4234L106.466 32.5564C104.642 31.2211 102.778 30.1711 100.102 30.0181C94.467 29.694 91.0743 33.7996 88.3854 36.1123L77.7557 45.6432C73.3595 49.4752 71.9183 50.1636 71.9209 55.3581C71.9235 61.1658 72.1131 67.3132 71.9079 73.0859L57.4961 73.0846C58.0479 69.7348 62.1637 65.2312 60.8537 59.6257C59.6566 54.5025 55.1188 51.237 50.8965 53.831C49.1723 54.8901 48.331 56.7284 47.1313 58.7144C46.386 59.9472 37.5598 74.6921 37.1443 75.0965C35.5032 74.1515 35.8706 74.0607 33.3764 74.0555C31.3056 74.0517 25.6174 73.6874 24.0594 74.5456C21.4094 76.0053 22.0742 79.2916 22.0742 82.316V111.571C22.069 117.808 25.4447 116.935 31.4237 116.935C33.7465 116.935 37.5299 117.46 38.2492 113.862C39.9682 114.254 42.2832 115.174 43.9802 115.752C52.304 118.583 54.258 118.921 63.6529 118.921C66.4652 118.921 76.5638 119.244 78.4854 118.582L78.5335 118.564Z" fill="#02345D" stroke="#02345D"/>
<rect x="2" y="2" width="146" height="146" rx="23" stroke="#02345D" stroke-width="4"/>
</svg>
