<svg width="66" height="40" viewBox="0 0 66 40" fill="none" xmlns="http://www.w3.org/2000/svg">
<path d="M57.2959 0.799805L53.0834 10.6217L48.7587 0.799805H40.3555L49.1604 17.9031V28.7709H56.279V17.9031L65.0731 0.799805H57.2959Z" fill="white"/>
<path d="M2.12796 27.3703C2.9748 28.1086 3.8904 28.6551 4.87115 29.0206C5.85189 29.3861 6.84711 29.5671 7.85319 29.5671C9.05107 29.5671 10.2345 29.3282 11.3962 28.8469C12.5542 28.3619 13.5712 27.3486 14.4542 25.7961C15.3336 24.2436 15.7751 22.0143 15.7751 19.0974V0.799805H8.64936V19.9008C8.64936 20.867 8.52993 21.5981 8.29108 22.0975C8.05585 22.6042 7.59262 22.8575 6.89777 22.8575C5.7578 22.8575 4.98333 22.1264 4.57801 20.6608L0 24.6887C0.575418 25.749 1.28474 26.6393 2.12796 27.374V27.3703Z" fill="white"/>
<path d="M37.6234 1.91806C35.5461 0.640559 33.1322 0 30.3782 0C27.6241 0 25.203 0.640559 23.133 1.91806C21.0557 3.19556 19.4669 4.95438 18.3668 7.19815C17.263 9.44192 16.7129 11.968 16.7129 14.7763C16.7129 17.5846 17.263 20.1034 18.3668 22.3544C19.4706 24.5982 21.0557 26.3643 23.1293 27.6418C25.1994 28.9265 27.6169 29.5671 30.3818 29.5671C32.4663 29.5671 34.3627 29.2015 36.0636 28.4741C37.7609 27.7467 39.2085 26.7153 40.3883 25.3835C41.5753 24.059 42.4764 22.4847 43.1025 20.6825C43.7286 18.8766 44.0434 16.9115 44.0434 14.7763C44.0434 11.9643 43.4933 9.44192 42.3968 7.19815C41.293 4.95438 39.7079 3.19556 37.6306 1.91806H37.6234ZM35.6221 19.3326C35.0032 20.5522 34.2107 21.4425 33.2408 22.0106C32.2781 22.5788 31.2648 22.8575 30.2225 22.8575C29.1803 22.8575 28.1633 22.5788 27.2007 22.0106C26.2308 21.4461 25.4382 20.5522 24.8194 19.3326C24.2006 18.1202 23.8929 16.6003 23.8929 14.7763C23.8929 12.9523 24.2006 11.4396 24.8158 10.2345C25.4346 9.02212 26.2272 8.13547 27.1971 7.56367C28.167 6.99911 29.1803 6.70959 30.2262 6.70959C31.272 6.70959 32.2781 6.99549 33.248 7.56367C34.2179 8.13547 35.0104 9.02212 35.6293 10.2345C36.2409 11.4396 36.5521 12.9596 36.5521 14.7763C36.5521 16.593 36.2409 18.1202 35.6257 19.3326H35.6221Z" fill="white"/>
<path d="M21.1698 34.6657H18.4556V31.7959H16.2227V39.7685H18.4556V36.5802H21.1698V39.7685H23.4027V31.7959H21.1698V34.6657Z" fill="white"/>
<path d="M39.7886 31.7969L38.3844 36.6608L36.9803 31.7969H34.7473L33.582 39.7695H35.7281L36.3216 35.1444L37.6679 39.7695H39.1046L40.4472 35.1444L41.0407 39.7695H43.1832L42.0179 31.7969H39.7886Z" fill="white"/>
<path d="M44.0645 39.7695H48.8524V37.855H46.2974V36.5812H48.6135V34.826H46.2974V33.7113H48.8524V31.7969H44.0645V39.7695Z" fill="white"/>
<path d="M31.0498 32.1138C30.3984 31.7483 29.6384 31.5674 28.7771 31.5674C27.9157 31.5674 27.1558 31.7483 26.5043 32.1138C25.8529 32.4794 25.3535 32.9788 25.0097 33.6193C24.6623 34.2599 24.4922 34.9801 24.4922 35.7799C24.4922 36.5797 24.6659 37.2998 25.0097 37.9404C25.3571 38.581 25.8529 39.084 26.5043 39.4495C27.1521 39.815 27.9121 39.9996 28.7771 39.9996C29.4321 39.9996 30.0256 39.8947 30.5576 39.6884C31.0896 39.4821 31.542 39.189 31.9147 38.809C32.2875 38.4326 32.5697 37.9838 32.7652 37.4699C32.9606 36.956 33.0583 36.3951 33.0583 35.7871C33.0583 34.9873 32.8846 34.2671 32.5408 33.6266C32.1934 32.986 31.6976 32.4866 31.0462 32.1211L31.0498 32.1138ZM30.4671 37.0791C30.2717 37.4265 30.0256 37.6798 29.7216 37.8427C29.4176 38.0055 29.1028 38.0852 28.7734 38.0852C28.4441 38.0852 28.1293 38.0055 27.8253 37.8427C27.5249 37.6798 27.2752 37.4265 27.0798 37.0791C26.8843 36.7353 26.7902 36.301 26.7902 35.7799C26.7902 35.2587 26.888 34.8281 27.0798 34.4843C27.2752 34.1405 27.5213 33.8871 27.8253 33.7243C28.1293 33.5614 28.4441 33.4818 28.7734 33.4818C29.1028 33.4818 29.4176 33.5651 29.7216 33.7243C30.0256 33.8871 30.2753 34.1405 30.4671 34.4843C30.6589 34.8281 30.7566 35.2624 30.7566 35.7799C30.7566 36.2974 30.6589 36.7317 30.4671 37.0791Z" fill="white"/>
</svg>
