<svg width="108" height="29" viewBox="0 0 108 29" fill="none" xmlns="http://www.w3.org/2000/svg">
<path d="M53.0164 14.3862C53.0164 6.47584 46.5962 0.0556641 38.6859 0.0556641C30.7756 0.0556641 24.3555 6.47584 24.3555 14.3862C24.3555 22.2965 30.7756 28.7166 38.6859 28.7166C46.5962 28.7166 53.0164 22.2965 53.0164 14.3862ZM31.0263 14.3862C31.0263 10.1525 34.4522 6.72652 38.6859 6.72652C42.9196 6.72652 46.3456 10.1525 46.3456 14.3862C46.3456 18.6198 42.9196 22.0458 38.6859 22.0458C34.4522 22.0458 31.0263 18.6198 31.0263 14.3862Z" fill="white"/>
<path d="M11.9908 20.6809H7.75713V27.9645H0V0.542969H12.5339C15.0129 0.542969 17.1715 0.960766 18.9959 1.78244C20.8203 2.60411 22.2269 3.77394 23.2296 5.30587C24.2184 6.83779 24.7197 8.63432 24.7197 10.6955C24.7197 12.7566 24.2602 14.4139 23.3271 15.8901C22.394 17.3663 21.071 18.5222 19.3441 19.3578L25.2629 27.9784H16.9626L11.9908 20.6948V20.6809ZM15.6674 7.71516C14.8597 7.00491 13.662 6.65675 12.0604 6.65675H7.75713V14.6924H12.0604C13.6481 14.6924 14.8597 14.3442 15.6674 13.6479C16.4752 12.9516 16.879 11.9767 16.879 10.6955C16.879 9.41421 16.4752 8.42542 15.6674 7.71516Z" fill="white"/>
<path d="M56.9878 27.6861C54.8988 27.143 53.1997 26.4048 51.8906 25.4996L54.4392 19.7758C55.6647 20.5835 57.0852 21.2381 58.7147 21.7394C60.3301 22.2408 61.9317 22.4775 63.4915 22.4775C66.4718 22.4775 67.9619 21.7394 67.9619 20.2493C67.9619 19.4694 67.5302 18.8845 66.6946 18.5085C65.8451 18.1324 64.4803 17.7286 62.6002 17.3108C60.5391 16.8651 58.8122 16.3916 57.4334 15.8763C56.0547 15.361 54.857 14.5533 53.8682 13.4253C52.8794 12.2972 52.3781 10.7931 52.3781 8.88518C52.3781 7.21399 52.8376 5.70992 53.7428 4.35904C54.662 3.00815 56.0268 1.94972 57.8373 1.16983C59.6477 0.38994 61.876 0 64.5221 0C66.3186 0 68.1012 0.208903 69.842 0.612774C71.5968 1.01665 73.1287 1.61549 74.4656 2.39538L72.0703 8.14707C69.466 6.74049 66.9314 6.03022 64.4664 6.03022C62.9205 6.03022 61.8064 6.25306 61.0961 6.71264C60.3858 7.17221 60.0377 7.77106 60.0377 8.49524C60.0377 9.21942 60.4555 9.77648 61.2911 10.1386C62.1267 10.5007 63.4776 10.8767 65.3298 11.2806C67.4188 11.7262 69.1457 12.1997 70.5244 12.715C71.8892 13.2303 73.0869 14.038 74.0896 15.1382C75.0924 16.2523 75.5937 17.7564 75.5937 19.6644C75.5937 21.3077 75.1341 22.7979 74.2289 24.1348C73.3098 25.4718 71.9449 26.5302 70.1206 27.324C68.2962 28.1178 66.0679 28.5217 63.4636 28.5217C61.2493 28.5217 59.0907 28.2432 57.0017 27.7L56.9878 27.6861Z" fill="white"/>
<path d="M80.2866 27.6861C78.1976 27.143 76.4986 26.4048 75.1895 25.4996L77.738 19.7758C78.9635 20.5835 80.3841 21.2381 82.0135 21.7394C83.629 22.2408 85.2305 22.4775 86.7903 22.4775C89.7706 22.4775 91.2607 21.7394 91.2607 20.2493C91.2607 19.4694 90.829 18.8845 89.9934 18.5085C89.1439 18.1324 87.7791 17.7286 85.899 17.3108C83.8378 16.8651 82.111 16.3916 80.7322 15.8763C79.3535 15.361 78.1558 14.5533 77.167 13.4253C76.1782 12.2972 75.6769 10.7931 75.6769 8.88518C75.6769 7.21399 76.1364 5.70992 77.0417 4.35904C77.9608 3.00815 79.3256 1.94972 81.1361 1.16983C82.9466 0.38994 85.1748 0 87.8209 0C89.6174 0 91.4 0.208903 93.1408 0.612774C94.8956 1.01665 96.4275 1.61549 97.7645 2.39538L95.3691 8.14707C92.7648 6.74049 90.2302 6.03022 87.7652 6.03022C86.2193 6.03022 85.1052 6.25306 84.3949 6.71264C83.6847 7.17221 83.3365 7.77106 83.3365 8.49524C83.3365 9.21942 83.7543 9.77648 84.5899 10.1386C85.4255 10.5007 86.7764 10.8767 88.6286 11.2806C90.7176 11.7262 92.4445 12.1997 93.8232 12.715C95.188 13.2303 96.3857 14.038 97.3884 15.1382C98.3911 16.2523 98.8925 17.7564 98.8925 19.6644C98.8925 21.3077 98.4329 22.7979 97.5277 24.1348C96.6085 25.4718 95.2438 26.5302 93.4194 27.324C91.595 28.1178 89.3667 28.5217 86.7625 28.5217C84.5481 28.5217 82.3895 28.2432 80.3005 27.7L80.2866 27.6861Z" fill="white"/>
<path d="M100.242 0.417969H107.999V27.9648H100.242V0.417969Z" fill="white"/>
</svg>
