<svg width="10" height="10" viewBox="0 0 10 10" fill="none" xmlns="http://www.w3.org/2000/svg">
<path d="M9.39589 7.44299L9.37664 0.0241661L1.95782 0.0049162C1.88053 -0.00554873 1.80189 0.000715265 1.72723 0.0232843C1.65257 0.0458537 1.58363 0.0842015 1.52507 0.135731C1.46652 0.18726 1.41972 0.250768 1.38785 0.321956C1.35597 0.393144 1.33977 0.470349 1.34032 0.548345C1.34088 0.626342 1.35819 0.703307 1.39108 0.774033C1.42396 0.844758 1.47166 0.907592 1.53095 0.958279C1.59023 1.00897 1.65971 1.04632 1.73469 1.06783C1.80967 1.08933 1.88839 1.09447 1.96552 1.0829L7.52483 1.106L0.159903 8.47092C0.057796 8.57303 0.000433114 8.71151 0.000432777 8.85591C0.000433114 9.00031 0.057796 9.1388 0.159903 9.24091C0.262009 9.34301 0.400496 9.40038 0.544896 9.40038C0.689297 9.40038 0.827783 9.34301 0.929889 9.24091L8.29481 1.87598L8.31791 7.43529C8.31842 7.57977 8.37631 7.71813 8.47883 7.81993C8.58136 7.92173 8.72012 7.97864 8.8646 7.97813C9.00908 7.97762 9.14744 7.91973 9.24925 7.81721C9.35105 7.71469 9.40795 7.57592 9.40744 7.43144L9.39589 7.44299Z" fill="#2B2A29"/>
</svg>
