<svg width="35" height="35" viewBox="0 0 35 35" fill="none" xmlns="http://www.w3.org/2000/svg">
<circle cx="17.5" cy="17.5" r="17.5" fill="#02436E"/>
<path d="M10 25C9.45 25 8.97933 24.8043 8.588 24.413C8.19667 24.0217 8.00067 23.5507 8 23V11C8 10.45 8.196 9.97933 8.588 9.588C8.98 9.19667 9.45067 9.00067 10 9H26C26.55 9 27.021 9.196 27.413 9.588C27.805 9.98 28.0007 10.4507 28 11V23C28 23.55 27.8043 24.021 27.413 24.413C27.0217 24.805 26.5507 25.0007 26 25H10ZM18 18L26 13V11L18 16L10 11V13L18 18Z" fill="white"/>
</svg>
