<svg width="10" height="10" viewBox="0 0 10 10" fill="none" xmlns="http://www.w3.org/2000/svg">
<path d="M9.39589 7.44293L9.37664 0.024105L1.95782 0.00485516C1.88053 -0.00560976 1.80189 0.00065423 1.72723 0.0232233C1.65257 0.0457926 1.58363 0.0841405 1.52507 0.13567C1.46652 0.187199 1.41972 0.250707 1.38785 0.321895C1.35597 0.393083 1.33977 0.470288 1.34032 0.548284C1.34088 0.626281 1.35819 0.703246 1.39108 0.773972C1.42396 0.844697 1.47166 0.90753 1.53095 0.958218C1.59023 1.00891 1.65971 1.04626 1.73469 1.06776C1.80967 1.08926 1.88839 1.0944 1.96552 1.08284L7.52483 1.10594L0.159903 8.47086C0.057796 8.57297 0.000433114 8.71145 0.000432777 8.85585C0.000433114 9.00025 0.057796 9.13874 0.159903 9.24085C0.262009 9.34295 0.400496 9.40032 0.544896 9.40032C0.689297 9.40032 0.827783 9.34295 0.929889 9.24085L8.29481 1.87592L8.31791 7.43523C8.31842 7.57971 8.37631 7.71807 8.47883 7.81987C8.58136 7.92167 8.72012 7.97858 8.8646 7.97807C9.00908 7.97756 9.14744 7.91967 9.24925 7.81715C9.35105 7.71462 9.40795 7.57586 9.40744 7.43138L9.39589 7.44293Z" fill="#012547"/>
</svg>
