<svg xmlns="http://www.w3.org/2000/svg" width="105" height="64" fill="none" viewBox="0 0 105 64"><path fill="#fff" d="m91.67 1.28-6.74 15.716L78.012 1.28H64.566l14.088 27.365v17.388h11.39V28.646l14.07-27.365zM3.405 43.793c1.355 1.181 2.82 2.056 4.389 2.64a13.6 13.6 0 0 0 4.771.875c1.917 0 3.81-.383 5.669-1.153 1.853-.776 3.48-2.397 4.892-4.88 1.407-2.485 2.114-6.052 2.114-10.719V1.28H13.839v30.562q0 2.317-.573 3.514-.564 1.216-2.23 1.216-2.738.001-3.711-3.514L0 39.502C.92 41.2 2.056 42.623 3.405 43.8z"/><path fill="#fff" d="M60.2 3.069Q55.216.002 48.607 0c-4.406 0-8.28 1.025-11.592 3.069q-4.985 3.064-7.626 8.448-2.648 5.385-2.646 12.125c0 4.493.88 8.523 2.646 12.125 1.766 3.59 4.302 6.415 7.62 8.46q4.968 3.081 11.604 3.08c3.335 0 6.37-.585 9.09-1.749 2.717-1.164 5.033-2.814 6.92-4.945 1.9-2.119 3.341-4.638 4.343-7.521 1.002-2.89 1.506-6.034 1.506-9.45 0-4.5-.88-8.535-2.635-12.125-1.766-3.59-4.302-6.404-7.626-8.448zm-3.203 27.863c-.99 1.951-2.258 3.376-3.81 4.285-1.54.909-3.161 1.355-4.829 1.355s-3.294-.446-4.834-1.355q-2.326-1.357-3.81-4.285-1.484-2.912-1.483-7.29 0-4.376 1.477-7.267c.99-1.94 2.258-3.358 3.81-4.273 1.551-.904 3.173-1.367 4.846-1.367q2.509.002 4.835 1.367c1.552.915 2.82 2.333 3.81 4.273.979 1.928 1.477 4.36 1.477 7.267s-.498 5.35-1.483 7.29zM33.872 55.467H29.53v-4.592h-3.573v12.756h3.573v-5.1h4.342v5.1h3.573V50.875h-3.573zm29.788-4.592-2.246 7.782-2.246-7.782h-3.573L53.73 63.631h3.433l.95-7.4 2.154 7.4h2.298l2.149-7.4.95 7.4h3.427l-1.864-12.756zm6.844 12.756h7.66v-3.063h-4.088V58.53h3.706v-2.808h-3.706v-1.784h4.089v-3.063h-7.661zM49.68 51.383c-1.042-.585-2.258-.875-3.636-.875s-2.594.29-3.636.875-1.841 1.384-2.392 2.409c-.555 1.024-.828 2.177-.828 3.456q.001 1.92.828 3.457a6 6 0 0 0 2.392 2.415c1.036.585 2.252.88 3.636.88q1.572-.002 2.849-.498a6.1 6.1 0 0 0 2.171-1.407 6.1 6.1 0 0 0 1.361-2.142q.47-1.234.47-2.693-.002-1.92-.829-3.457a6 6 0 0 0-2.391-2.408zm-.932 7.944c-.312.556-.706.961-1.192 1.222a3.16 3.16 0 0 1-3.035 0q-.722-.389-1.193-1.222c-.312-.55-.463-1.245-.463-2.078q.002-1.25.463-2.074c.313-.55.707-.955 1.193-1.215s.99-.388 1.517-.388 1.031.133 1.518.388q.73.39 1.192 1.215c.307.55.464 1.245.464 2.074q-.002 1.243-.464 2.078"/></svg>