<svg width="70" height="11" viewBox="0 0 70 11" fill="none" xmlns="http://www.w3.org/2000/svg">
<path d="M2.11382 10.3158L3.01185 6.50168L0 3.9363L3.97896 3.59696L5.52633 0L7.0737 3.59696L11.0527 3.9363L8.04081 6.50168L8.93884 10.3158L5.52633 8.29337L2.11382 10.3158Z" fill="#2B2A29"/>
<path d="M16.8521 10.3158L17.7501 6.50168L14.7383 3.9363L18.7172 3.59696L20.2646 0L21.812 3.59696L25.7909 3.9363L22.7791 6.50168L23.6771 10.3158L20.2646 8.29337L16.8521 10.3158Z" fill="#2B2A29"/>
<path d="M31.5884 10.3158L32.4865 6.50168L29.4746 3.9363L33.4536 3.59696L35.0009 0L36.5483 3.59696L40.5273 3.9363L37.5154 6.50168L38.4134 10.3158L35.0009 8.29337L31.5884 10.3158Z" fill="#2B2A29"/>
<path d="M46.3248 10.3158L47.2228 6.50168L44.2109 3.9363L48.1899 3.59696L49.7373 0L51.2846 3.59696L55.2636 3.9363L52.2517 6.50168L53.1498 10.3158L49.7373 8.29337L46.3248 10.3158Z" fill="#2B2A29"/>
<path d="M61.0611 10.3158L61.9591 6.50168L58.9473 3.9363L62.9262 3.59696L64.4736 0L66.021 3.59696L69.9999 3.9363L66.9881 6.50168L67.8861 10.3158L64.4736 8.29337L61.0611 10.3158Z" fill="#2B2A29"/>
</svg>
