<svg width="16" height="16" viewBox="0 0 16 16" fill="none" xmlns="http://www.w3.org/2000/svg">
<path d="M15.4858 12.2676L15.4541 0.039789L3.2263 0.00806076C3.0989 -0.00918763 2.96929 0.00113657 2.84623 0.0383358C2.72317 0.0755344 2.60954 0.13874 2.51304 0.223671C2.41653 0.308602 2.3394 0.413277 2.28686 0.53061C2.23432 0.647942 2.20761 0.775194 2.20853 0.903747C2.20945 1.0323 2.23797 1.15916 2.29218 1.27573C2.34639 1.3923 2.42501 1.49586 2.52272 1.57941C2.62043 1.66295 2.73495 1.72452 2.85853 1.75996C2.9821 1.7954 3.11185 1.80387 3.23899 1.7848L12.4019 1.82288L0.262945 13.9618C0.0946514 14.1301 0.000106271 14.3584 0.000104922 14.5964C0.000105596 14.8344 0.0946514 15.0626 0.262945 15.2309C0.431238 15.3992 0.659494 15.4938 0.897497 15.4938C1.1355 15.4938 1.36375 15.3992 1.53205 15.2309L13.671 3.09198L13.7091 12.2549C13.7099 12.493 13.8053 12.7211 13.9743 12.8889C14.1433 13.0567 14.372 13.1505 14.6101 13.1496C14.8483 13.1488 15.0763 13.0534 15.2441 12.8844C15.4119 12.7154 15.5057 12.4867 15.5049 12.2485L15.4858 12.2676Z" fill="black"/>
</svg>
