<svg width="15" height="15" viewBox="0 0 15 15" fill="none" xmlns="http://www.w3.org/2000/svg">
<path d="M1.58238 0.815354L2.13418 0.263555C2.30299 0.0948008 2.53191 0 2.7706 0C3.00929 0 3.23821 0.0948008 3.40701 0.263555L5.73483 2.59137C5.90358 2.76018 5.99838 2.9891 5.99838 3.22779C5.99838 3.46648 5.90358 3.6954 5.73483 3.8642L4.12084 5.47819C3.98966 5.60929 3.90313 5.77841 3.87356 5.9615C3.84399 6.14459 3.87287 6.33234 3.95611 6.49808C4.94011 8.46493 6.53507 10.0599 8.50193 11.0439C8.66775 11.127 8.85556 11.1558 9.03865 11.126C9.22175 11.0963 9.39081 11.0096 9.52181 10.8783L11.1358 9.26517C11.3046 9.09642 11.5335 9.00162 11.7722 9.00162C12.0109 9.00162 12.2398 9.09642 12.4086 9.26517L14.7364 11.593C14.9052 11.7618 15 11.9907 15 12.2294C15 12.4681 14.9052 12.697 14.7364 12.8658L14.1846 13.4176C13.2654 14.3371 12.0453 14.8941 10.7484 14.9864C9.45151 15.0786 8.16485 14.7 7.12468 13.9199L6.03728 13.1035C4.46782 11.9264 3.07363 10.5322 1.89654 8.96272L1.08009 7.87532C0.300021 6.83515 -0.0786448 5.54849 0.0136248 4.2516C0.105894 2.9547 0.662905 1.73461 1.58238 0.815354Z" fill="black"/>
</svg>
