<svg width="35" height="35" viewBox="0 0 35 35" fill="none" xmlns="http://www.w3.org/2000/svg">
<circle cx="17.5" cy="17.5" r="17.5" fill="#8BAE89"/>
<path d="M18.0031 7C12.4727 7.00605 7.99396 11.4917 8.00001 17.0192C8.00142 18.6965 8.42499 20.3465 9.23172 21.8174L8.46393 26.5333L13.1823 25.7659C18.0263 28.4215 24.1081 26.65 26.7651 21.8081C29.4221 16.9662 27.6502 10.8885 22.8057 8.23246C21.3338 7.42544 19.6819 7.00161 18.0031 7ZM13.0008 11.5438H15.7276C15.8511 11.5438 15.9694 11.5928 16.0567 11.68C16.1439 11.7672 16.193 11.8855 16.193 12.0089C16.1777 12.6291 16.282 13.2465 16.5001 13.8273C16.594 14.0218 16.6147 14.2436 16.5583 14.452C16.5018 14.6604 16.3722 14.8415 16.193 14.9621L15.2391 15.8923C15.662 16.7178 16.2151 17.47 16.877 18.12C17.5221 18.7924 18.2716 19.3562 19.0966 19.7896L20.0272 18.8362C20.4926 18.3712 20.7066 18.3712 21.1626 18.5293C21.7438 18.7473 22.3615 18.8515 22.982 18.8362C23.1036 18.8419 23.2187 18.8927 23.3048 18.9787C23.3909 19.0648 23.4417 19.1798 23.4474 19.3013V22.0267C23.4417 22.1482 23.3909 22.2632 23.3048 22.3492C23.2187 22.4353 23.1036 22.4861 22.982 22.4917C20.2448 22.3726 17.6502 21.2384 15.7044 19.3106C13.7725 17.3679 12.6373 14.7734 12.5216 12.0368C12.5227 11.9088 12.5731 11.7861 12.6624 11.6943C12.7516 11.6025 12.8728 11.5486 13.0008 11.5438Z" fill="white"/>
</svg>
