<svg width="35" height="35" viewBox="0 0 35 35" fill="none" xmlns="http://www.w3.org/2000/svg">
<circle cx="17.5" cy="17.5" r="17.5" fill="#669BBC"/>
<path d="M25.0991 10C25.7154 10 26.1804 10.5477 25.9317 11.5665L22.915 25.9721C22.7041 26.9964 22.0932 27.2429 21.2498 26.7664L14.0541 21.3821C14.0262 21.3618 14.0034 21.3351 13.9878 21.3041C13.9721 21.2731 13.9639 21.2388 13.9639 21.2041C13.9639 21.1693 13.9721 21.135 13.9878 21.104C14.0034 21.073 14.0262 21.0463 14.0541 21.026L22.3635 13.4234C22.742 13.0838 22.2824 12.9195 21.7851 13.2262L11.3563 19.8922C11.3247 19.9131 11.2888 19.9264 11.2513 19.9312C11.2139 19.9359 11.1758 19.932 11.1401 19.9196L6.71236 18.5009C5.72841 18.2106 5.72841 17.526 6.93401 17.0385L24.6504 10.115C24.7911 10.0473 24.9435 10.0082 25.0991 10Z" fill="#FFFDFA"/>
</svg>
