<svg width="150" height="150" viewBox="0 0 150 150" fill="none" xmlns="http://www.w3.org/2000/svg">
<path fill-rule="evenodd" clip-rule="evenodd" d="M73.2915 21.4047C75.5433 21.052 77.4358 21.6462 78.8818 22.6847C81.1052 24.2809 81.7685 27.4897 86.9417 28.8176C92.54 30.2545 94.7279 26.5991 98.9093 27.5924C100.931 28.0722 102.332 29.1096 103.284 30.3191C104.636 32.0357 104.55 33.2823 105.04 35.6624C105.609 38.4279 107.123 40.4536 109.164 42.0589C112.029 44.3115 114.69 43.7681 117.102 44.7645C119.941 45.9374 122.615 49.8525 121.152 54.0817C120.435 56.156 119.746 57.2577 119.853 59.878C119.986 63.1129 121.644 66.229 124.11 68.0249C124.462 68.2808 124.772 68.4762 125.103 68.8038C126.21 69.8971 127.245 71.0908 127.577 73.3321C127.904 75.5452 127.26 77.5221 126.234 78.9166C124.66 81.0574 121.411 81.8443 120.136 87.0177C118.718 92.7755 122.426 94.5336 121.363 98.9883C120.878 101.021 119.784 102.386 118.59 103.314C115.377 105.81 113.122 103.678 108.582 107.376C104.563 110.65 105.234 114.8 104.176 117.164C102.928 119.954 99.0779 122.671 94.8102 121.105C92.7898 120.363 91.6004 119.698 89.0081 119.848C86.8951 119.971 85.1374 120.602 83.663 121.59C79.9883 124.05 80.3154 126.807 75.5744 127.568C73.3604 127.924 71.4191 127.152 70.0018 126.167C68.7107 125.27 67.83 123.624 66.589 122.486C64.2978 120.386 59.728 119.031 55.8038 120.45C53.8266 121.165 52.3786 121.994 49.883 121.337C47.9299 120.823 46.5211 119.68 45.631 118.496C43.2802 115.37 45.2256 112.961 41.5533 108.503C38.2559 104.501 33.9661 105.176 31.7551 104.117C30.2001 103.372 28.9257 102.157 28.1992 100.581C26.0123 95.8367 29.3287 93.7708 29.1461 89.0766C29.0354 86.2294 28.0583 84.5332 26.7114 82.672C25.5911 81.1243 23.6829 80.5104 22.3061 78.209C20.7832 75.6619 21.1144 72.4251 22.7778 70.038C23.2226 69.3989 23.8645 68.7666 24.5613 68.2738C28.241 65.6726 30.2365 60.893 28.5567 55.8739C27.8861 53.8696 27.0485 52.724 27.6098 50.1449C28.0697 48.0301 29.1297 46.6855 30.2957 45.7444C32.1398 44.2563 33.0897 44.4804 35.6074 43.9555C37.6214 43.5356 39.0215 42.7052 40.308 41.6905C44.36 38.4951 43.7753 34.2017 44.7607 31.9537C46.0194 29.0815 49.5699 26.3669 54.0133 27.8119C56.1895 28.5198 57.0521 29.1849 59.7902 29.1304C61.8875 29.0889 63.7579 28.3381 65.221 27.4683C68.6692 25.4171 68.6214 22.1364 73.2915 21.4047ZM72.9825 18.1156C67.3353 18.877 66.277 22.413 64.0821 24.2009C59.7006 27.768 55.6841 24.3127 52.4529 24.1096C48.3852 23.8537 44.3757 25.9858 42.5112 29.1096C41.181 31.3395 41.3014 32.0524 40.7676 34.8096C40.3581 36.9217 39.0446 38.5486 37.8053 39.4249C34.4604 41.7905 31.4219 39.9073 27.4068 43.9197C24.484 46.8398 23.3374 51.0355 24.6616 55.0352C25.3674 57.168 26.3103 58.3447 25.6627 61.0871C24.5733 65.7014 21.4967 65.0349 19.1496 69.598C16.8185 74.129 18.1307 79.8082 22.1968 83.0447C23.0179 83.6978 23.5203 83.9986 24.1953 84.8296C25.2553 86.1357 26.0685 88.2836 25.7768 90.5259C25.4962 92.6851 24.3649 93.918 24.1542 96.4684C23.7592 101.244 26.4859 104.671 29.0886 106.425C32.6853 108.848 36.4624 107.139 39.4065 111.122C40.8903 113.13 40.5699 114.215 41.2017 116.781C42.6611 122.703 49.1796 126.203 54.9709 124.35C57.204 123.635 58.1847 122.722 61.0416 123.311C63.1926 123.755 64.6467 125.046 65.5876 126.324C69.471 131.598 76.421 132.445 81.1851 128.691C83.1636 127.132 83.2991 126.068 84.7929 124.848C89.349 121.127 93.1715 124.574 96.3505 124.83C98.4992 125.004 100.842 124.515 102.438 123.579C104.367 122.448 105.209 121.629 106.38 119.953C108.955 116.27 107.064 112.631 111.072 109.631C114.109 107.358 117.758 108.798 121.521 105.182C123.833 102.961 125.87 98.5169 124.339 93.928C123.618 91.7651 122.691 90.6319 123.347 87.8574C124.426 83.2913 127.707 83.7139 129.842 79.3264C132.171 74.5422 130.9 69.3183 126.807 65.9172C125.913 65.1738 125.537 64.9737 124.807 64.1336C123.7 62.8583 122.926 60.6789 123.226 58.4005C123.508 56.2604 124.653 54.9967 124.845 52.4269C125.192 47.7822 122.42 44.0114 119.772 42.4443C115.758 40.0685 112.235 41.74 109.484 37.7189C107.167 34.3315 109.136 31.0755 104.591 26.8868C104.401 26.7115 104.249 26.6198 104.06 26.4683C101.164 24.1524 97.4332 23.4743 93.8625 24.6596C91.682 25.3836 90.5337 26.2501 87.7812 25.6131C85.6291 25.115 84.2888 23.7627 83.3198 22.5004C81.3557 19.941 78.0851 17.4277 72.9828 18.1149L72.9825 18.1156Z" fill="#02345D" stroke="#02345D"/>
<path fill-rule="evenodd" clip-rule="evenodd" d="M60.8498 90.7313C60.7177 86.223 60.9983 80.9704 60.8395 76.778C60.7839 75.3073 59.3577 74.33 58.1839 75.2976C57.2293 76.0845 57.5297 77.7476 57.5297 79.2658V93.4907L50.3295 93.5148V63.6936L57.5294 63.7485C57.5317 65.067 57.5297 66.3725 57.5297 67.6779C57.5297 68.9473 57.3026 70.4688 58.1023 71.139C58.9369 71.8375 60.2066 71.508 60.6431 70.6616C60.987 69.9958 60.8455 67.7361 60.8391 66.8496C60.8324 65.8934 60.6933 65.874 61.189 65.2965C61.4977 64.9365 61.7044 64.604 62.0068 64.1038L72.5833 46.6601C73.168 45.8387 74.2344 45.4593 75.1452 46.2837C78.1639 49.014 76.2152 52.7297 75.2355 55.1057C74.8381 56.0696 74.4822 56.9468 74.1012 57.8729C73.7878 58.6344 73.1439 59.9853 72.9406 60.7428C72.1528 63.6796 76.5457 62.9191 78.5834 62.9191L98.444 62.9419C99.6993 63.1162 99.9485 64.1245 99.9451 65.4297C99.9368 69.0028 99.2624 68.5053 95.0165 68.5053C92.3763 68.5053 89.7356 68.5056 87.0951 68.5053C85.7173 68.505 84.5246 68.3484 84.0476 69.4775C83.5328 70.6947 84.3794 71.7054 85.4421 71.8051C88.3772 72.0808 95.4289 71.601 97.2488 71.8399C98.5135 72.0058 98.7721 73.0115 98.7687 74.2979C98.76 77.9062 98.0228 77.4037 93.9518 77.4037C91.2739 77.4037 88.5832 77.3776 85.907 77.401C84.7146 77.4113 83.7947 77.9727 83.9245 79.2468C84.0636 80.6101 85.1802 80.7212 86.5037 80.7165C89.1837 80.7068 91.8642 80.7248 94.5438 80.7148C95.8105 80.7101 96.804 80.939 97.0083 82.1213C97.189 83.1655 97.1853 85.0327 96.6063 85.7048C95.8701 86.5593 94.4408 86.3013 93.1243 86.3013L85.2715 86.3334C84.3319 86.4887 83.4883 87.6272 84.1105 88.7513C84.6784 89.7771 85.7906 89.6145 87.0951 89.6142C88.4351 89.6142 89.775 89.6142 91.115 89.6142C92.3773 89.6142 93.8133 89.4007 94.4756 90.2137C95.0108 90.8708 95.0168 92.7534 94.8522 93.7805C94.6478 95.0588 93.6046 95.205 92.2977 95.2007C86.5101 95.1816 77.986 95.5774 72.968 94.5734C68.5471 93.6891 64.4165 91.5991 60.8488 90.7316L60.8498 90.7313ZM59.7868 61.3129C58.3957 60.5113 58.7074 60.4337 56.5945 60.4296C54.8401 60.426 50.0204 60.1165 48.6992 60.8458C46.4545 62.0851 47.0181 64.8743 47.0181 67.4411V92.2733C47.0134 97.5667 49.8739 96.827 54.9394 96.827C56.9079 96.827 60.1136 97.2726 60.7227 94.2174C62.1797 94.551 64.1405 95.3315 65.5791 95.8216C72.6318 98.2245 74.2882 98.5115 82.2487 98.5115C84.6313 98.5115 93.1881 98.7862 94.8171 98.2228C98.1867 97.0572 98.9928 93.0879 97.6974 89.0805C98.3791 88.4713 98.6339 88.583 99.3367 87.6048C100.535 85.9383 100.42 84.5118 100.358 82.4555C100.318 81.1528 100.045 80.9467 99.7531 79.9754C100.722 79.0343 101.825 78.3796 102.045 76.1634C102.123 75.3732 102.121 73.958 102.057 73.1617C101.959 71.9316 101.586 71.6047 101.291 70.7258C102.112 70.1443 102.859 69.2042 103.146 67.7723C103.356 66.7268 103.313 64.2099 103.03 63.2085C102.124 60.0004 99.4046 59.6056 96.7902 59.6063C90.2038 59.608 83.6178 59.6063 77.031 59.6063C77.498 56.7622 80.9867 52.9401 79.8762 48.182C78.861 43.8327 75.0167 41.0618 71.4394 43.2629C69.978 44.1622 69.2652 45.7223 68.2484 47.4075C67.6172 48.4533 60.1387 60.9693 59.7865 61.3129H59.7868Z" fill="#02345D" stroke="#02345D"/>
<path fill-rule="evenodd" clip-rule="evenodd" d="M32.1191 76.2618C30.4634 76.7706 30.921 78.4997 31.1304 80.139C32.1736 88.301 35.4747 95.7999 40.5425 102.064C52.2071 116.484 72.0627 122.087 89.912 115.427C95.4087 113.376 99.472 110.621 103.118 107.583C103.379 107.366 103.522 107.174 103.789 106.958C104.919 106.048 107.317 103.461 108.25 102.317C113.378 96.0317 116.578 88.9798 117.85 80.3411C118.081 78.7713 118.519 76.9346 117.111 76.3243C116.347 75.9931 115.574 76.3016 115.196 76.7452C114.755 77.2628 114.774 78.0503 114.694 78.8295C113.622 89.3994 108.067 99.3412 99.9172 105.922C97.9678 107.497 96.0592 108.745 93.5931 110.122C83.4851 115.765 70.0702 116.455 59.2669 111.949C53.7699 109.656 49.9714 106.88 46.5108 103.661C40.0943 97.6928 35.3339 88.396 34.3518 79.1567C34.2712 78.3996 34.2756 75.5983 32.1188 76.2611L32.1191 76.2618Z" fill="#02345D" stroke="#02345D"/>
<path fill-rule="evenodd" clip-rule="evenodd" d="M71.7118 30.8384C64.9053 31.3366 60.5951 32.7632 55.1383 35.2373C52.5838 36.3952 47.6528 39.6217 45.7786 41.4862C45.2679 41.9944 44.8226 42.2226 44.4059 42.714C43.9011 43.3106 43.5693 43.6435 43.0599 44.0881C41.7714 45.2122 39.3972 48.3009 38.3797 49.8128C36.9394 51.9516 35.7711 54.0112 34.5953 56.5472C32.9379 60.1223 31.6455 64.7346 31.1244 68.8032C30.9267 70.3482 30.5296 72.3609 32.1696 72.7179C34.3649 73.196 34.2612 70.6192 34.3445 69.7791C35.0118 63.0792 37.8402 56.1414 41.6751 50.8606C43.2211 48.7318 44.8705 46.8653 46.5814 45.2443C59.1966 33.2908 78.1096 30.4641 93.584 38.8388C97.6684 41.0489 101.479 44.0366 104.543 47.3882C104.806 47.6769 104.898 47.8599 105.188 48.1651C108.359 51.5037 111.231 57.1397 112.789 61.4917C113.726 64.1103 114.36 67.2137 114.689 70.1525C114.779 70.9548 114.732 71.6099 115.225 72.1803C115.652 72.6724 116.277 72.9213 117.083 72.6089C118.555 72.0398 118.062 70.1585 117.819 68.5178C116.713 61.0373 113.832 53.8289 109.438 48.1711C107.681 45.9081 105.249 43.1236 103.05 41.3183C94.3961 34.2105 83.7929 29.9538 71.7122 30.8384H71.7118Z" fill="#02345D" stroke="#02345D"/>
<rect x="2" y="2" width="146" height="146" rx="23" stroke="#02345D" stroke-width="4"/>
</svg>
